<svg xmlns="http://www.w3.org/2000/svg" id="_x31_" x="0" y="0" enable-background="new 0 0 500 500" version="1.1" viewBox="0 0 500 500" xml:space="preserve"><rect width="500" height="500" fill="#45cff4"/><path fill="#fff" d="M36.669,185.231h199.972c0,0,11.291-5.717,4.854-9.812c-6.436-4.099-26.334,0-26.334,0
	s7.045-9.011-4.658-16.617c-11.705-7.61-22.848,2.435-22.848,2.435s3.59-11.245-12.209-12.325
	c-15.801-1.079-22.904,10.535-22.904,10.535s4.297-19.541-25.395-19.541c-28.444,0-20.252,23.085-20.252,23.085
	s-1.17-13.494-16.971-11.737c-15.802,1.755-8.193,18.157-8.193,18.157s0.225-6.318-18.142-6.318c-14.63,0-3.512,12.188-3.512,12.188
	s-13.46-1.754-25.164,1.172C23.209,179.378,36.669,185.231,36.669,185.231z" opacity=".47"/><linearGradient id="SVGID_1_" x1="299.771" x2="298.798" y1="182.374" y2="383.714" gradientUnits="userSpaceOnUse"><stop offset="0" stop-color="#ffe7d0"/><stop offset=".051" stop-color="#f8e1cd"/><stop offset=".254" stop-color="#e0cfc2"/><stop offset=".47" stop-color="#cfc2ba"/><stop offset=".706" stop-color="#c5bab5"/><stop offset="1" stop-color="#c2b8b4"/></linearGradient><polygon fill="url(#SVGID_1_)" points="409.104 166.094 409.104 266.934 395.538 266.934 395.538 181.017 352.58 181.017 352.58 266.934 297.865 266.934 297.865 223.713 265.308 223.713 265.308 199.556 235.463 199.556 235.463 293.16 177.191 293.16 177.191 261.959 145.477 261.959 145.477 330.239 153.616 330.239 177.191 330.239 235.463 330.239 265.308 330.239 297.865 330.239 352.58 330.239 395.538 330.239 409.104 330.239 452.967 330.239 452.967 266.934 452.967 166.094"/><polygon fill="#f4e9e6" points="265.518 223.747 265.518 330.273 287.457 330.273 272.468 223.747"/><rect width="13.565" height="63.307" x="395.438" y="267.15" fill="#f4e9e6"/><polygon fill="#f4e9e6" points="318.9 330.306 297.745 330.306 297.745 266.999 304.222 266.999"/><g opacity=".55"><rect width="2.261" height="8.14" x="242.147" y="203.554" fill="#fff"/><rect width="2.261" height="8.139" x="242.147" y="215.829" fill="#fff"/><rect width="2.261" height="8.14" x="242.147" y="228.104" fill="#fff"/><rect width="2.261" height="8.139" x="242.147" y="240.377" fill="#fff"/><rect width="2.261" height="8.14" x="242.147" y="252.652" fill="#fff"/><rect width="2.261" height="8.14" x="242.147" y="264.927" fill="#fff"/><rect width="2.261" height="8.14" x="242.147" y="277.201" fill="#fff"/><rect width="2.261" height="8.14" x="242.147" y="289.476" fill="#fff"/><rect width="2.261" height="8.14" x="242.147" y="301.75" fill="#fff"/><rect width="2.261" height="8.141" x="242.147" y="314.024" fill="#fff"/><rect width="2.261" height="8.14" x="247.746" y="203.554" fill="#fff"/><rect width="2.261" height="8.139" x="247.746" y="215.829" fill="#fff"/><rect width="2.261" height="8.14" x="247.746" y="228.104" fill="#fff"/><rect width="2.261" height="8.139" x="247.746" y="240.377" fill="#fff"/><rect width="2.261" height="8.14" x="247.746" y="252.652" fill="#fff"/><rect width="2.261" height="8.14" x="247.746" y="264.927" fill="#fff"/><rect width="2.261" height="8.14" x="247.746" y="277.201" fill="#fff"/><rect width="2.261" height="8.14" x="247.746" y="289.476" fill="#fff"/><rect width="2.261" height="8.14" x="247.746" y="301.75" fill="#fff"/><rect width="2.261" height="8.141" x="247.746" y="314.024" fill="#fff"/><rect width="2.261" height="8.14" x="253.345" y="203.554" fill="#fff"/><rect width="2.261" height="8.139" x="253.345" y="215.829" fill="#fff"/><rect width="2.261" height="8.14" x="253.345" y="228.104" fill="#fff"/><rect width="2.261" height="8.139" x="253.345" y="240.377" fill="#fff"/><rect width="2.261" height="8.14" x="253.345" y="252.652" fill="#fff"/><rect width="2.261" height="8.14" x="253.345" y="264.927" fill="#fff"/><rect width="2.261" height="8.14" x="253.345" y="277.201" fill="#fff"/><rect width="2.261" height="8.14" x="253.345" y="289.476" fill="#fff"/><rect width="2.261" height="8.14" x="253.345" y="301.75" fill="#fff"/><rect width="2.261" height="8.141" x="253.345" y="314.024" fill="#fff"/><rect width="2.261" height="8.14" x="258.943" y="203.554" fill="#fff"/><rect width="2.261" height="8.139" x="258.943" y="215.829" fill="#fff"/><rect width="2.261" height="8.14" x="258.943" y="228.104" fill="#fff"/><rect width="2.261" height="8.139" x="258.943" y="240.377" fill="#fff"/><rect width="2.261" height="8.14" x="258.943" y="252.652" fill="#fff"/><rect width="2.261" height="8.14" x="258.943" y="264.927" fill="#fff"/><rect width="2.261" height="8.14" x="258.943" y="277.201" fill="#fff"/><rect width="2.261" height="8.14" x="258.943" y="289.476" fill="#fff"/><rect width="2.261" height="8.14" x="258.943" y="301.75" fill="#fff"/><rect width="2.261" height="8.141" x="258.943" y="314.024" fill="#fff"/><rect width="2.261" height="8.14" x="273.969" y="228.104" fill="#fff"/><rect width="2.261" height="8.139" x="273.969" y="240.378" fill="#fff"/><rect width="2.261" height="8.139" x="273.969" y="252.653" fill="#fff"/><rect width="2.261" height="8.14" x="273.969" y="264.927" fill="#fff"/><rect width="2.261" height="8.14" x="273.969" y="277.201" fill="#fff"/><rect width="2.261" height="8.141" x="273.969" y="289.476" fill="#fff"/><rect width="2.261" height="8.14" x="273.969" y="301.75" fill="#fff"/><rect width="2.261" height="8.141" x="273.969" y="314.024" fill="#fff"/><rect width="2.262" height="8.14" x="279.567" y="228.104" fill="#fff"/><rect width="2.262" height="8.139" x="279.567" y="240.378" fill="#fff"/><rect width="2.262" height="8.139" x="279.567" y="252.653" fill="#fff"/><rect width="2.262" height="8.14" x="279.567" y="264.927" fill="#fff"/><rect width="2.262" height="8.14" x="279.567" y="277.201" fill="#fff"/><rect width="2.262" height="8.141" x="279.567" y="289.476" fill="#fff"/><rect width="2.262" height="8.14" x="279.567" y="301.75" fill="#fff"/><rect width="2.262" height="8.141" x="279.567" y="314.024" fill="#fff"/><rect width="2.261" height="8.14" x="285.166" y="228.104" fill="#fff"/><rect width="2.261" height="8.139" x="285.166" y="240.378" fill="#fff"/><rect width="2.261" height="8.139" x="285.166" y="252.653" fill="#fff"/><rect width="2.261" height="8.14" x="285.166" y="264.927" fill="#fff"/><rect width="2.261" height="8.14" x="285.166" y="277.201" fill="#fff"/><rect width="2.261" height="8.141" x="285.166" y="289.476" fill="#fff"/><rect width="2.261" height="8.14" x="285.166" y="301.75" fill="#fff"/><rect width="2.261" height="8.141" x="285.166" y="314.024" fill="#fff"/><rect width="2.261" height="8.14" x="290.765" y="228.104" fill="#fff"/><rect width="2.261" height="8.139" x="290.765" y="240.378" fill="#fff"/><rect width="2.261" height="8.139" x="290.765" y="252.653" fill="#fff"/><rect width="2.261" height="8.14" x="290.765" y="264.927" fill="#fff"/><rect width="2.261" height="8.14" x="290.765" y="277.201" fill="#fff"/><rect width="2.261" height="8.141" x="290.765" y="289.476" fill="#fff"/><rect width="2.261" height="8.14" x="290.765" y="301.75" fill="#fff"/><rect width="2.261" height="8.141" x="290.765" y="314.024" fill="#fff"/><rect width="3.377" height="11.379" x="362.319" y="187.388" fill="#fff"/><rect width="3.377" height="11.378" x="362.319" y="204.547" fill="#fff"/><rect width="3.377" height="11.377" x="362.319" y="221.706" fill="#fff"/><rect width="3.377" height="11.378" x="362.319" y="238.864" fill="#fff"/><rect width="3.377" height="11.378" x="362.319" y="256.022" fill="#fff"/><rect width="3.377" height="11.377" x="362.319" y="273.182" fill="#fff"/><rect width="3.377" height="11.379" x="362.319" y="290.339" fill="#fff"/><rect width="3.377" height="11.379" x="362.319" y="307.496" fill="#fff"/><rect width="3.376" height="11.379" x="370.681" y="187.388" fill="#fff"/><rect width="3.376" height="11.378" x="370.681" y="204.547" fill="#fff"/><rect width="3.376" height="11.377" x="370.681" y="221.706" fill="#fff"/><rect width="3.376" height="11.378" x="370.681" y="238.864" fill="#fff"/><rect width="3.376" height="11.378" x="370.681" y="256.022" fill="#fff"/><rect width="3.376" height="11.377" x="370.681" y="273.182" fill="#fff"/><rect width="3.376" height="11.379" x="370.681" y="290.339" fill="#fff"/><rect width="3.376" height="11.379" x="370.681" y="307.496" fill="#fff"/><rect width="3.376" height="11.379" x="379.042" y="187.388" fill="#fff"/><rect width="3.376" height="11.378" x="379.042" y="204.547" fill="#fff"/><rect width="3.376" height="11.377" x="379.042" y="221.706" fill="#fff"/><rect width="3.376" height="11.378" x="379.042" y="238.864" fill="#fff"/><rect width="3.376" height="11.378" x="379.042" y="256.022" fill="#fff"/><rect width="3.376" height="11.377" x="379.042" y="273.182" fill="#fff"/><rect width="3.376" height="11.379" x="379.042" y="290.339" fill="#fff"/><rect width="3.376" height="11.379" x="379.042" y="307.496" fill="#fff"/><rect width="3.377" height="11.379" x="387.402" y="187.388" fill="#fff"/><rect width="3.377" height="11.378" x="387.402" y="204.547" fill="#fff"/><rect width="3.377" height="11.377" x="387.402" y="221.706" fill="#fff"/><rect width="3.377" height="11.378" x="387.402" y="238.864" fill="#fff"/><rect width="3.377" height="11.378" x="387.402" y="256.022" fill="#fff"/><rect width="3.377" height="11.377" x="387.402" y="273.182" fill="#fff"/><rect width="3.377" height="11.379" x="387.402" y="290.339" fill="#fff"/><rect width="3.377" height="11.379" x="387.402" y="307.496" fill="#fff"/><rect width="35.989" height="2.27" x="415.403" y="171.083" fill="#fff"/><rect width="35.989" height="2.269" x="415.403" y="179.71" fill="#fff"/><rect width="35.989" height="2.269" x="415.403" y="188.337" fill="#fff"/><rect width="35.989" height="2.27" x="415.403" y="196.963" fill="#fff"/><rect width="35.989" height="2.27" x="415.403" y="205.59" fill="#fff"/><rect width="35.989" height="2.269" x="415.403" y="214.218" fill="#fff"/><rect width="35.989" height="2.27" x="415.403" y="222.844" fill="#fff"/><rect width="35.989" height="2.27" x="415.403" y="231.471" fill="#fff"/><rect width="35.989" height="2.27" x="415.403" y="240.098" fill="#fff"/><rect width="35.989" height="2.269" x="415.403" y="248.725" fill="#fff"/><rect width="35.989" height="2.269" x="415.403" y="257.353" fill="#fff"/><rect width="35.989" height="2.268" x="415.403" y="265.979" fill="#fff"/><rect width="35.989" height="2.269" x="415.403" y="274.606" fill="#fff"/><rect width="35.989" height="2.27" x="415.403" y="283.233" fill="#fff"/><rect width="35.989" height="2.27" x="415.403" y="291.859" fill="#fff"/><rect width="35.989" height="2.27" x="415.403" y="300.486" fill="#fff"/><rect width="35.989" height="2.27" x="415.403" y="309.113" fill="#fff"/><rect width="35.989" height="2.269" x="415.403" y="317.741" fill="#fff"/><rect width="19.622" height="1.2" x="305.33" y="274.979" fill="#fff"/><rect width="19.622" height="1.202" x="305.33" y="279.543" fill="#fff"/><rect width="19.622" height="1.201" x="305.33" y="284.106" fill="#fff"/><rect width="19.622" height="1.2" x="305.33" y="288.671" fill="#fff"/><rect width="19.622" height="1.2" x="305.33" y="293.234" fill="#fff"/><rect width="19.622" height="1.2" x="305.33" y="297.797" fill="#fff"/><rect width="19.622" height="1.2" x="305.33" y="302.36" fill="#fff"/><rect width="19.622" height="1.201" x="305.33" y="306.923" fill="#fff"/><rect width="19.622" height="1.2" x="305.33" y="311.486" fill="#fff"/><rect width="19.622" height="1.2" x="305.33" y="316.05" fill="#fff"/><rect width="19.622" height="1.2" x="305.33" y="320.614" fill="#fff"/><rect width="19.622" height="1.2" x="305.33" y="325.178" fill="#fff"/><rect width="19.621" height="1.2" x="328.669" y="274.637" fill="#fff"/><rect width="19.621" height="1.2" x="328.669" y="279.2" fill="#fff"/><rect width="19.621" height="1.2" x="328.669" y="283.764" fill="#fff"/><rect width="19.621" height="1.2" x="328.669" y="288.326" fill="#fff"/><rect width="19.621" height="1.2" x="328.669" y="292.89" fill="#fff"/><rect width="19.621" height="1.198" x="328.669" y="297.454" fill="#fff"/><rect width="19.621" height="1.198" x="328.669" y="302.018" fill="#fff"/><rect width="19.621" height="1.199" x="328.669" y="306.58" fill="#fff"/><rect width="19.621" height="1.198" x="328.669" y="311.144" fill="#fff"/><rect width="19.621" height="1.2" x="328.669" y="315.707" fill="#fff"/><rect width="19.621" height="1.2" x="328.669" y="320.27" fill="#fff"/><rect width="19.621" height="1.2" x="328.669" y="324.833" fill="#fff"/><rect width="19.622" height="1.2" x="152.946" y="266.432" fill="#fff"/><rect width="19.622" height="1.2" x="152.946" y="270.994" fill="#fff"/><rect width="19.622" height="1.2" x="152.946" y="275.56" fill="#fff"/><rect width="19.622" height="1.2" x="152.946" y="280.122" fill="#fff"/><rect width="19.622" height="1.202" x="152.946" y="284.684" fill="#fff"/><rect width="19.622" height="1.201" x="152.946" y="289.248" fill="#fff"/><rect width="19.622" height="1.2" x="152.946" y="293.811" fill="#fff"/><rect width="19.622" height="1.2" x="152.946" y="298.375" fill="#fff"/><rect width="19.622" height="1.2" x="152.946" y="302.938" fill="#fff"/><rect width="19.622" height="1.2" x="152.946" y="307.501" fill="#fff"/><rect width="19.622" height="1.2" x="152.946" y="312.065" fill="#fff"/><rect width="19.622" height="1.2" x="152.946" y="316.629" fill="#fff"/><rect width="19.622" height="1.202" x="152.946" y="321.19" fill="#fff"/><rect width="19.622" height="1.2" x="152.946" y="325.755" fill="#fff"/><rect width="48.787" height="1.2" x="184.546" y="297.093" fill="#fff"/><rect width="48.787" height="1.2" x="184.546" y="301.656" fill="#fff"/><rect width="48.787" height="1.202" x="184.546" y="306.219" fill="#fff"/><rect width="48.787" height="1.2" x="184.546" y="310.783" fill="#fff"/><rect width="48.787" height="1.2" x="184.546" y="315.347" fill="#fff"/><rect width="48.787" height="1.2" x="184.546" y="319.91" fill="#fff"/><rect width="48.787" height="1.2" x="184.546" y="324.473" fill="#fff"/><g><rect width=".676" height="8.502" x="231.471" y="285.225" fill="#fff"/><rect width=".676" height="8.504" x="224.555" y="285.186" fill="#fff"/><rect width=".676" height="8.504" x="217.638" y="285.148" fill="#fff"/><rect width=".675" height="8.504" x="210.721" y="285.11" fill="#fff"/><rect width=".675" height="8.504" x="203.804" y="285.073" fill="#fff"/><rect width=".675" height="8.504" x="196.887" y="285.034" fill="#fff"/><rect width=".676" height="8.503" x="189.969" y="284.997" fill="#fff"/></g></g><polygon fill="#f4e9e6" points="195.257 330.621 178.902 330.621 178.902 293.54 183.909 293.234"/><polygon fill="#fff" points="237.174 293.54 179.724 293.49 189.89 284.964 237.174 285.285" opacity=".4"/><linearGradient id="SVGID_00000178924252486406371430000009994510546831476634_" x1="178.902" x2="237.174" y1="293.68" y2="293.68" gradientUnits="userSpaceOnUse"><stop offset="0" stop-color="#9e9d9b"/><stop offset="1" stop-color="#c2b8b4"/></linearGradient><rect width="58.272" height=".891" x="178.902" y="293.234" fill="url(#SVGID_00000178924252486406371430000009994510546831476634_)"/><path fill="#bac136" d="M206.1,318.07c0-2.271-1.779-4.165-4.155-4.637c0.257-0.644,0.401-1.349,0.401-2.085
		c0-3.066-2.465-5.555-5.504-5.555c-0.816,0-1.591,0.182-2.289,0.503c-0.499-1.915-2.183-3.322-4.185-3.322
		c-2.396,0-4.339,2.016-4.339,4.503c0,0.298,0.03,0.588,0.082,0.87c-0.689-0.326-1.494-0.564-2.36-0.708
		c1.092-2.408,0.355-5.55-1.855-7.371c-0.657-0.539-1.376-0.908-2.108-1.108c0.621-1.87,0.02-4.114-1.591-5.442
		c-1.925-1.585-4.564-1.249-5.892,0.749c-0.16,0.239-0.293,0.492-0.4,0.754c-0.635-1.201-1.627-2.422-2.896-3.467
		c-3.008-2.479-6.427-3.015-7.633-1.198c-0.396,0.595-0.503,1.374-0.363,2.234c-3.102-1.664-6.139-1.663-7.405,0.241
		c-0.201,0.302-0.346,0.636-0.441,0.994c-0.887,0.148-1.705,0.369-2.429,0.645c0.066-0.283,0.104-0.575,0.104-0.874
		c0-2.485-2.417-4.497-5.396-4.497c-2.491,0-4.588,1.405-5.209,3.318c-0.867-0.32-1.829-0.502-2.845-0.502
		c-3.781,0-6.847,2.489-6.847,5.556c0,0.738,0.178,1.44,0.5,2.083c-0.845,0.136-1.623,0.388-2.312,0.73
		c-0.756-1.316-2.13-2.201-3.714-2.201c-2.396,0-4.338,2.015-4.338,4.501c0,0.298,0.029,0.588,0.082,0.87
		c-1.152-0.547-2.603-0.87-4.182-0.87c-3.742,0-6.777,1.829-6.777,4.087c0,0.743,0.329,1.438,0.903,2.037
		c-0.973,0.207-1.864,0.522-2.645,0.918c0.025-0.101,0.041-0.201,0.041-0.307c0-1.343-2.243-2.429-5.012-2.429
		c-1.167,0-2.239,0.193-3.093,0.517c0.042-0.168,0.062-0.341,0.062-0.517c0-1.046-0.726-1.941-1.774-2.383
		c0.119-0.341,0.193-0.69,0.193-1.052c0-2.676-3.427-4.946-8.182-5.756c0.806-0.676,1.269-1.462,1.269-2.301
		c0-2.548-4.263-4.615-9.522-4.615c-2.218,0-4.255,0.368-5.875,0.982c0.076-0.318,0.116-0.646,0.116-0.982
		c0-2.809-2.728-5.082-6.094-5.082c-2.814,0-5.181,1.59-5.882,3.751c-0.979-0.364-2.067-0.569-3.215-0.569
		c-4.27,0-7.732,2.81-7.732,6.273c0,0.834,0.203,1.63,0.565,2.355c-2.842,0.453-5.07,2.075-5.673,4.126
		c-0.674,0.151-1.307,0.337-1.884,0.557c0.075-0.317,0.116-0.648,0.116-0.984c0-2.807-2.73-5.083-6.095-5.083
		c-2.813,0-5.18,1.591-5.882,3.751c-0.98-0.361-2.066-0.567-3.214-0.567c-4.27,0-7.733,2.81-7.733,6.275
		c0,0.833,0.201,1.626,0.565,2.355c-3.341,0.528-5.841,2.671-5.841,5.233c0,2.193,1.834,4.08,4.458,4.908
		c-0.636,0.607-1.001,1.317-1.001,2.075c0,2.235,3.176,4.048,7.094,4.048c0.866,0,1.696-0.09,2.464-0.252
		c-0.005,0.084-0.007,0.167-0.007,0.252c0,1.997,1.537,3.717,3.76,4.531v3.357h145.236c1.164,0.572,2.639,0.919,4.249,0.919
		c1.608,0,3.084-0.347,4.25-0.919h3.325c2.611,0,4.727-1.995,4.727-4.457c0-0.076-0.001-0.149-0.005-0.222
		c0.545,0.142,1.136,0.222,1.752,0.222c2.79,0,5.053-1.604,5.053-3.587c0-0.67-0.263-1.295-0.713-1.833
		C204.796,321.683,206.1,320.013,206.1,318.07z"/><path fill="#dbdb42" d="M124.851,303.654c-0.054-0.282-0.081-0.572-0.081-0.87c0-1.713,0.922-3.201,2.28-3.964
			c-0.605-0.34-1.294-0.537-2.033-0.537c-2.396,0-4.338,2.015-4.338,4.501l0,0C122.255,302.785,123.701,303.11,124.851,303.654z"/><path fill="#dbdb42" d="M132.822,300.484c0.686-0.343,1.467-0.595,2.311-0.73c-0.322-0.643-0.501-1.345-0.501-2.083
			c0-2.484,2.014-4.591,4.791-5.298c-0.645-0.165-1.325-0.258-2.033-0.258c-3.781,0-6.847,2.489-6.847,5.556
			c0,0.311,0.039,0.615,0.101,0.913C131.558,298.949,132.324,299.619,132.822,300.484z"/><path fill="#dbdb42" d="M165.102,292.79c-0.142-0.86-0.034-1.64,0.362-2.234c0.154-0.234,0.347-0.429,0.57-0.586
			c-2.023-0.789-3.846-0.642-4.66,0.586c-0.199,0.297-0.325,0.644-0.383,1.02C162.233,291.606,163.658,292.016,165.102,292.79z"/><path fill="#dbdb42" d="M141.477,292.115c1.017,0,1.979,0.182,2.847,0.502c0.44-1.36,1.637-2.452,3.182-2.977
			c-0.636-0.22-1.333-0.342-2.062-0.342c-2.3,0-4.245,1.202-5.022,2.891C140.766,292.145,141.117,292.115,141.477,292.115z"/><path fill="#dbdb42" d="M104.144,307.146c-0.006,0.157-0.021,0.311-0.056,0.462c0.321-0.12,0.686-0.218,1.063-0.302
			C104.831,307.237,104.494,307.18,104.144,307.146z"/><path fill="#dbdb42" d="M25.833,320.357c0-0.758,0.366-1.468,1-2.075c-2.624-0.828-4.457-2.715-4.457-4.908
			c0-2.562,2.499-4.705,5.841-5.233c-0.364-0.729-0.566-1.522-0.566-2.355c0-2.888,2.408-5.316,5.68-6.043
			c-0.651-0.147-1.33-0.232-2.036-0.232c-4.27,0-7.733,2.81-7.733,6.275c0,0.833,0.201,1.626,0.565,2.355
			c-3.341,0.528-5.841,2.671-5.841,5.233c0,2.193,1.834,4.08,4.458,4.908c-0.636,0.607-1.001,1.317-1.001,2.075
			c0,2.235,3.176,4.048,7.094,4.048c0.699,0,1.362-0.073,2.001-0.181C27.94,323.718,25.833,322.178,25.833,320.357z"/><path fill="#dbdb42" d="M35.383,324.405c0-0.085,0.004-0.168,0.009-0.252c-0.769,0.162-1.597,0.252-2.463,0.252
			c-0.562,0-1.106-0.042-1.631-0.113c0,0.039-0.002,0.075-0.002,0.113c0,1.997,1.537,3.717,3.76,4.531v3.357h4.089v-3.357
			C36.921,328.122,35.383,326.402,35.383,324.405z"/><path fill="#dbdb42" d="M112.19,309.52c0,0.105-0.014,0.206-0.042,0.307c0.782-0.396,1.674-0.711,2.646-0.918
			c-0.572-0.6-0.901-1.294-0.901-2.037c0-1.823,1.978-3.365,4.71-3.893c-0.641-0.122-1.315-0.194-2.023-0.194
			c-3.742,0-6.777,1.829-6.777,4.087c0,0.207,0.03,0.406,0.08,0.604C111.27,307.909,112.19,308.659,112.19,309.52z"/><path fill="#dbdb42" d="M35.383,299.511c1.148,0,2.235,0.206,3.215,0.567c0.521-1.607,1.966-2.897,3.829-3.452
			c-0.639-0.19-1.32-0.299-2.037-0.299c-2.572,0-4.767,1.331-5.662,3.21C34.946,299.522,35.163,299.511,35.383,299.511z"/><path fill="#dbdb42" d="M65.184,289.084c1.146,0,2.234,0.205,3.214,0.569c0.521-1.607,1.966-2.897,3.83-3.455
			c-0.638-0.188-1.321-0.296-2.037-0.296c-2.573,0-4.767,1.33-5.661,3.209C64.745,289.096,64.962,289.084,65.184,289.084z"/><path fill="#dbdb42" d="M50.041,299.338c0.339,0.634,0.534,1.334,0.534,2.072c0,0.336-0.042,0.667-0.117,0.984
			c0.578-0.22,1.211-0.405,1.885-0.557c0.602-2.051,2.831-3.673,5.673-4.126c-0.362-0.725-0.563-1.521-0.563-2.355
			c0-2.886,2.406-5.311,5.679-6.042c-0.65-0.143-1.331-0.231-2.038-0.231c-4.27,0-7.732,2.81-7.732,6.273
			c0,0.834,0.203,1.63,0.565,2.355C52.402,297.956,51.056,298.536,50.041,299.338z"/><path fill="#b7b725" d="M66.734,330.904c0,0.483,0.126,0.946,0.35,1.389h36.262c-0.181-2.155-1.523-4.034-3.505-5.156
		c0.49-0.789,0.771-1.694,0.771-2.656c0-3.027-2.757-5.483-6.159-5.483c-0.836,0-1.632,0.149-2.358,0.418
		c0.229-0.33,0.357-0.68,0.357-1.046c0-0.678-0.431-1.307-1.163-1.836c0.252-0.473,0.392-0.99,0.392-1.534
		c0-2.207-2.291-3.997-5.117-3.997c-2.03,0-3.779,0.926-4.608,2.266c0.012-0.116,0.023-0.233,0.023-0.352
		c0-2.602-2.757-4.713-6.159-4.713c-2.972,0-5.452,1.613-6.031,3.754c-3.305,0.01-5.979,2.195-5.979,4.89
		c0,0.725,0.2,1.412,0.547,2.03c-1.928,1.036-3.165,2.622-3.165,4.404c0,2.646,2.728,4.86,6.407,5.476
		C67.051,329.406,66.734,330.134,66.734,330.904z M81.457,314.811c-0.004,0.064-0.012,0.124-0.012,0.189h-0.002
		c-0.038,0-0.071,0.004-0.107,0.004C81.377,314.941,81.419,314.876,81.457,314.811z"/><path fill="#bac136" d="M313.601,315.94c0-2.271-1.779-4.164-4.158-4.637c0.259-0.642,0.403-1.347,0.403-2.085
		c0-3.066-2.464-5.555-5.505-5.555c-0.817,0-1.591,0.183-2.288,0.503c-0.5-1.915-2.184-3.322-4.187-3.322
		c-2.395,0-4.339,2.018-4.339,4.503c0,0.297,0.03,0.587,0.083,0.87c-0.688-0.325-1.495-0.564-2.362-0.708
		c1.093-2.407,0.357-5.551-1.855-7.369c-0.656-0.541-1.374-0.909-2.106-1.11c0.621-1.871,0.02-4.114-1.591-5.442
		c-1.926-1.585-4.564-1.249-5.893,0.749c-0.16,0.239-0.291,0.492-0.4,0.754c-0.635-1.2-1.627-2.422-2.895-3.467
		c-3.01-2.479-6.428-3.013-7.635-1.199c-0.396,0.597-0.503,1.375-0.362,2.236c-3.104-1.665-6.14-1.663-7.406,0.24
		c-0.2,0.303-0.346,0.636-0.44,0.994c-0.886,0.149-1.704,0.368-2.429,0.643c0.068-0.28,0.104-0.571,0.104-0.873
		c0-2.483-2.417-4.496-5.396-4.496c-2.493,0-4.588,1.405-5.21,3.318c-0.867-0.319-1.829-0.5-2.845-0.5
		c-3.782,0-6.846,2.486-6.846,5.555c0,0.736,0.178,1.44,0.499,2.083c-0.844,0.136-1.621,0.389-2.312,0.73
		c-0.757-1.316-2.131-2.202-3.714-2.202c-2.396,0-4.338,2.017-4.338,4.502c0,0.298,0.028,0.588,0.083,0.872
		c-1.153-0.546-2.604-0.872-4.182-0.872c-3.744,0-6.778,1.829-6.778,4.088c0,0.743,0.33,1.436,0.902,2.037
		c-0.973,0.206-1.863,0.522-2.646,0.918c0.026-0.101,0.042-0.201,0.042-0.307c0-1.343-2.244-2.43-5.011-2.43
		c-1.168,0-2.24,0.193-3.092,0.518c0.04-0.169,0.062-0.341,0.062-0.518c0-1.046-0.727-1.941-1.774-2.382
		c0.118-0.342,0.192-0.691,0.192-1.052c0-2.676-3.427-4.947-8.182-5.756c0.807-0.676,1.269-1.463,1.269-2.301
		c0-2.549-4.263-4.616-9.521-4.616c-2.218,0-4.255,0.367-5.875,0.982c0.077-0.317,0.116-0.646,0.116-0.982
		c0-2.809-2.729-5.082-6.095-5.082c-2.813,0-5.18,1.591-5.882,3.751c-0.979-0.363-2.067-0.568-3.214-0.568
		c-4.271,0-7.732,2.811-7.732,6.273c0,0.834,0.2,1.628,0.564,2.354c-2.843,0.451-5.07,2.075-5.673,4.126
		c-0.674,0.151-1.307,0.338-1.884,0.557c0.074-0.319,0.115-0.647,0.115-0.984c0-2.807-2.729-5.083-6.096-5.083
		c-2.812,0-5.179,1.591-5.881,3.753c-0.98-0.362-2.066-0.569-3.215-0.569c-4.27,0-7.73,2.81-7.73,6.274
		c0,0.833,0.201,1.628,0.564,2.355c-3.341,0.53-5.841,2.674-5.841,5.234c0,2.193,1.834,4.081,4.458,4.909
		c-0.636,0.607-1,1.317-1,2.075c0,2.234,3.176,4.047,7.095,4.047c0.867,0,1.695-0.09,2.464-0.252
		c-0.004,0.084-0.009,0.168-0.009,0.252c0,1.997,1.538,3.717,3.762,4.532v3.355H287.79c1.165,0.572,2.641,0.919,4.25,0.919
		c1.607,0,3.085-0.347,4.249-0.919h3.325c2.611,0,4.727-1.994,4.727-4.457c0-0.075-0.002-0.149-0.004-0.221
		c0.545,0.141,1.136,0.221,1.752,0.221c2.791,0,5.051-1.604,5.051-3.586c0-0.67-0.261-1.296-0.712-1.834
		C312.296,319.551,313.601,317.881,313.601,315.94z"/><g><path fill="#dbdb42" d="M232.351,301.525c-0.055-0.284-0.082-0.574-0.082-0.872c0-1.714,0.922-3.201,2.281-3.963
			c-0.605-0.34-1.295-0.539-2.033-0.539c-2.396,0-4.338,2.017-4.338,4.502l0,0C229.754,300.656,231.201,300.98,232.351,301.525z"/><path fill="#dbdb42" d="M240.32,298.354c0.688-0.341,1.468-0.594,2.312-0.73c-0.323-0.643-0.501-1.347-0.501-2.083
			c0-2.486,2.014-4.592,4.79-5.299c-0.644-0.166-1.324-0.256-2.033-0.256c-3.782,0-6.846,2.486-6.846,5.555
			c0,0.311,0.039,0.614,0.099,0.912C239.057,296.818,239.823,297.489,240.32,298.354z"/><path fill="#dbdb42" d="M272.6,290.66c-0.139-0.861-0.033-1.64,0.364-2.236c0.154-0.232,0.348-0.429,0.57-0.585
			c-2.023-0.79-3.846-0.641-4.661,0.585c-0.199,0.299-0.325,0.646-0.382,1.022C269.732,289.476,271.157,289.885,272.6,290.66z"/><path fill="#dbdb42" d="M248.977,289.986c1.017,0,1.98,0.181,2.848,0.5c0.441-1.359,1.636-2.452,3.18-2.977
			c-0.635-0.22-1.33-0.342-2.061-0.342c-2.299,0-4.245,1.202-5.021,2.891C248.266,290.014,248.617,289.986,248.977,289.986z"/><path fill="#dbdb42" d="M211.643,305.015c-0.004,0.158-0.02,0.312-0.056,0.463c0.323-0.121,0.686-0.219,1.063-0.302
			C212.33,305.104,211.993,305.051,211.643,305.015z"/><path fill="#dbdb42" d="M219.691,307.39c0,0.105-0.017,0.206-0.043,0.307c0.782-0.397,1.673-0.712,2.646-0.918
			c-0.573-0.601-0.903-1.294-0.903-2.037c0-1.823,1.979-3.366,4.711-3.892c-0.641-0.123-1.314-0.196-2.021-0.196
			c-3.744,0-6.778,1.829-6.778,4.088c0,0.207,0.031,0.407,0.079,0.603C218.77,305.777,219.691,306.529,219.691,307.39z"/></g><path fill="#b7b725" d="M174.233,328.774c0,0.482,0.127,0.947,0.35,1.388h36.264c-0.183-2.154-1.524-4.034-3.507-5.156
		c0.489-0.788,0.773-1.693,0.773-2.655c0-3.027-2.757-5.483-6.16-5.483c-0.835,0-1.632,0.149-2.359,0.419
		c0.229-0.332,0.357-0.681,0.357-1.047c0-0.678-0.43-1.308-1.162-1.836c0.251-0.472,0.392-0.989,0.392-1.534
		c0-2.206-2.291-3.997-5.117-3.997c-2.03,0-3.78,0.926-4.608,2.267c0.013-0.117,0.024-0.233,0.024-0.351
		c0-2.604-2.758-4.714-6.16-4.714c-2.972,0-5.452,1.612-6.031,3.753c-3.306,0.01-5.98,2.196-5.98,4.891
		c0,0.726,0.2,1.411,0.547,2.03c-1.929,1.036-3.164,2.623-3.164,4.403c0,2.646,2.727,4.86,6.406,5.476
		C174.55,327.275,174.233,328.004,174.233,328.774z M188.957,312.681c-0.004,0.063-0.013,0.124-0.013,0.188h-0.003
		c-0.037,0-0.07,0.005-0.106,0.005C188.877,312.811,188.919,312.746,188.957,312.681z"/><path fill="#b7b725" d="M172.473,329.891c0.043-0.229,0.071-0.465,0.071-0.702c0-0.009,0-0.017,0-0.025
		c0.223,0.017,0.45,0.025,0.681,0.025c3.504,0,6.348-1.858,6.348-4.156c0-2.292-2.844-4.15-6.348-4.15
		c-0.396,0-0.783,0.024-1.159,0.068c0.311-0.469,0.479-0.968,0.479-1.488c0-2.771-4.771-5.015-10.655-5.015
		c-2.546,0-4.881,0.421-6.712,1.12c-1.462-2.915-6.146-5.051-11.706-5.051c-4.873,0-9.064,1.641-11.014,4.005
		c-1.102-0.73-2.571-1.18-4.189-1.18c-2.526,0-4.693,1.088-5.648,2.642c-0.171-0.004-0.344-0.016-0.52-0.016
		c-5.07,0-9.179,2.595-9.179,5.798c0,0.419,0.073,0.827,0.206,1.221c-2.976,0.985-4.969,2.76-4.969,4.791
		c0,0.749,0.274,1.463,0.766,2.113H172.473z"/><path fill="#b7b725" d="M259.343,330.162c0.029-0.231,0.047-0.467,0.047-0.702c0-0.01,0-0.017,0-0.026
		c0.151,0.017,0.308,0.026,0.463,0.026c2.381,0,4.312-1.86,4.312-4.156c0-2.293-1.932-4.152-4.312-4.152
		c-0.27,0-0.531,0.025-0.786,0.071c0.21-0.47,0.323-0.97,0.323-1.489c0-2.771-3.239-5.016-7.236-5.016
		c-1.729,0-3.315,0.422-4.559,1.121c-0.993-2.915-4.173-5.051-7.951-5.051c-3.31,0-6.156,1.64-7.48,4.003
		c-0.749-0.728-1.745-1.179-2.846-1.179c-1.716,0-3.186,1.088-3.836,2.642c-0.116-0.002-0.232-0.015-0.353-0.015
		c-3.444,0-6.236,2.595-6.236,5.797c0,0.419,0.05,0.827,0.142,1.221c-2.022,0.985-3.376,2.762-3.376,4.793
		c0,0.748,0.188,1.462,0.52,2.112H259.343z"/><rect width="500" height="98.639" y="329.711" fill="#cbd84e"/><path fill="#fff" d="M213.395,97.651h232.802c0,0,13.146-6.655,5.652-11.424c-7.495-4.769-30.659,0-30.659,0
	s8.204-10.489-5.422-19.346c-13.626-8.857-26.599,2.837-26.599,2.837s4.181-13.092-14.215-14.348
	c-18.395-1.255-26.663,12.264-26.663,12.264s5.001-22.748-29.564-22.748c-33.114,0-23.576,26.875-23.576,26.875
	s-1.362-15.709-19.758-13.665c-18.395,2.044-9.537,21.141-9.537,21.141s0.262-7.357-21.12-7.357
	c-17.032,0-4.088,14.189-4.088,14.189s-15.671-2.044-29.297,1.363C197.725,90.837,213.395,97.651,213.395,97.651z" opacity=".47"/><rect width="500" height="21.299" y="478.701" fill="#cbd84e"/><rect width="500" height="4.4" y="426.35" fill="#c0c63c"/><rect width="500" height="3.66" y="430.75" fill="#b4b4b4"/><rect width="500" height="37.281" y="441.42" fill="#b4b4b4"/><rect width="500" height="9.407" y="434.35" fill="#d1d1cf"/><g><path fill="#e0dede" d="M437.475,370.126c0,2.391-16.418,4.325-36.676,4.325c-20.253,0-36.673-1.935-36.673-4.325
		c0-2.388,16.42-4.319,36.673-4.319C421.057,365.807,437.475,367.738,437.475,370.126z"/><path fill="#c6cc3e" d="M426.455,197.325c0-5.613-7.996-10.374-19.089-12.068c1.878-1.422,2.962-3.068,2.962-4.827
			c0-5.346-9.947-9.681-22.218-9.681c-5.172,0-9.93,0.774-13.703,2.065c0.175-0.668,0.269-1.359,0.269-2.065
			c0-5.887-6.365-10.658-14.219-10.658c-6.562,0-12.084,3.336-13.722,7.868c-2.284-0.763-4.822-1.19-7.5-1.19
			c-9.961,0-18.036,5.89-18.036,13.154c0,1.747,0.471,3.415,1.318,4.937c-7.795,1.116-13.626,5.607-13.626,10.98
			c0,4.601,4.275,8.554,10.396,10.296c-1.479,1.271-2.334,2.758-2.334,4.346c0,4.688,7.411,8.487,16.552,8.487
			c2.021,0,3.959-0.186,5.75-0.527c-0.013,0.175-0.021,0.35-0.021,0.527c0,5.832,6.938,10.561,15.493,10.561
			c2.797,0,5.418-0.507,7.684-1.394c4.088,2.18,10.25,3.568,17.145,3.568c12.307,0,22.282-4.419,22.282-9.87
			c0-0.077-0.01-0.154-0.015-0.229c1.223,0.217,2.51,0.334,3.835,0.334c8.2,0,14.853-4.464,14.853-9.972
			c0-2.05-0.92-3.955-2.499-5.537C423.219,204.12,426.455,200.895,426.455,197.325z"/><path fill="#dbdb42" d="M276.717,134.533c0-3.952,5.63-7.304,13.439-8.496c-1.323-1.002-2.084-2.16-2.084-3.397
			c0-3.765,7.001-6.815,15.64-6.815c3.642,0,6.988,0.545,9.646,1.452c-0.123-0.469-0.19-0.954-0.19-1.452
			c0-4.145,4.484-7.503,10.011-7.503c4.621,0,8.507,2.347,9.659,5.538c1.607-0.538,3.395-0.839,5.28-0.839
			c7.013,0,12.696,4.145,12.696,9.26c0,1.231-0.33,2.403-0.928,3.477c5.487,0.784,9.594,3.945,9.594,7.728
			c0,3.24-3.012,6.023-7.32,7.248c1.042,0.896,1.643,1.941,1.643,3.061c0,3.299-5.217,5.974-11.651,5.974
			c-1.424,0-2.786-0.131-4.048-0.37c0.008,0.122,0.015,0.246,0.015,0.37c0,4.105-4.885,7.434-10.907,7.434
			c-1.968,0-3.814-0.358-5.409-0.981c-2.876,1.534-7.214,2.511-12.068,2.511c-8.663,0-15.685-3.109-15.685-6.946
			c0-0.056,0.004-0.108,0.009-0.163c-0.862,0.154-1.766,0.237-2.7,0.237c-5.774,0-10.456-3.143-10.456-7.021
			c0-1.443,0.648-2.783,1.758-3.898C278.994,139.316,276.717,137.046,276.717,134.533z"/><path fill="#bac136" d="M482.622,182.849c0-5.615-7.996-10.374-19.088-12.07c1.882-1.421,2.96-3.067,2.96-4.826
			c0-5.343-9.947-9.679-22.217-9.679c-5.172,0-9.928,0.774-13.703,2.063c0.175-0.667,0.267-1.358,0.267-2.063
			c0-5.886-6.362-10.66-14.216-10.66c-6.565,0-12.086,3.336-13.722,7.867c-2.284-0.763-4.822-1.191-7.499-1.191
			c-9.964,0-18.037,5.89-18.037,13.157c0,1.747,0.47,3.411,1.316,4.936c-7.794,1.115-13.626,5.605-13.626,10.98
			c0,4.599,4.276,8.554,10.399,10.295c-1.482,1.273-2.335,2.758-2.335,4.348c0,4.687,7.41,8.487,16.551,8.487
			c2.022,0,3.959-0.186,5.75-0.528c-0.014,0.176-0.019,0.351-0.019,0.528c0,5.832,6.935,10.559,15.491,10.559
			c2.798,0,5.42-0.506,7.683-1.392c4.091,2.179,10.252,3.566,17.146,3.566c12.307,0,22.282-4.418,22.282-9.868
			c0-0.075-0.009-0.152-0.014-0.23c1.224,0.218,2.507,0.337,3.831,0.337c8.207,0,14.858-4.466,14.858-9.973
			c0-2.05-0.923-3.954-2.5-5.539C479.386,189.644,482.622,186.42,482.622,182.849z"/><path fill="#825748" d="M400.01,240.058c5.188-5.624,9.518-11.97,14.718-17.584c1.43-1.545-1.877-1.836-2.807-0.83
			c-5.198,5.614-9.573,11.922-14.719,17.584c-3.964,4.36-8.704,7.983-12.192,12.709c-1.487,1.55-3.26,3.75-4.791,6.624
			c-3.396,6.364-6.499-0.731-7.917-12.248c-1.2-9.733-6.535-22.564-8.162-26.317c0.285-0.179-0.288-2.17-0.607-3.007
			c2.07-11.552,12.02-19.534,16.524-30.074c2.57-2.229,6.673-1.361,9.325-3.852c3.194-2.996,6.455-7.131,7.906-11.303
			c0.235-0.678-1.015-0.653-1.192-0.137c-1.378,3.966-4.337,7.349-7.092,10.459c-2.255,2.545-5.665,2.109-8.363,3.378
			c0.213-0.575,0.422-1.15,0.599-1.742c0.094-0.324,3.323-12.723,2.826-12.581c-1.066,0.303-4.772,12.546-4.865,12.867
			c-3.278,11.049-13.272,18.949-16.822,29.779c-2.618-7.716-4.343-15.797-6.559-23.667c0.698-14.442,12.959-25.614,12.7-40.296
			c-0.017-1.036-2.083-0.689-2.066,0.174c0.228,12.977-9.344,23.218-12.036,35.418c-2.129-6.692-4.827-13.145-8.994-18.985
			c-0.59-0.83-3.664,0.556-3.409,0.914c7.723,10.828,10.413,23.76,13.748,36.44c-7.836-7.641-17.832-12.898-25.309-20.987
			c-0.743-0.807-3.98,0.419-3.178,1.286c3.536,3.829,7.641,7.021,11.809,10.135c-5.273-0.731-10.751,0.147-15.888-1.561
			c-5.521-1.836-9.357-6.425-13.737-9.98c-0.411-0.335-2.179,0.475-1.934,0.673c4.621,3.751,8.51,8.244,14.323,10.176
			c6.108,2.033,12.757,0.252,18.901,2.172c0.077,0.024,0.193,0.02,0.332,0c5.751,4.265,16.224,14.512,16.473,14.545
			c0.974,3.28,4.127,13.938,4.127,13.938s3.435,6.881,5.192,26.15c-2.051-2.194-4.431-4.135-6.655-5.977
			c-0.91-0.756-1.83-1.499-2.751-2.242c-6.206-9.705-9.48-20.458-11.452-31.786c-0.061-0.356-2.125,0.099-2.046,0.548
			c1.698,9.755,4.362,19.083,9.029,27.686c-1.962-1.542-3.929-3.081-5.883-4.632c-5.741-4.556-11.23-9.281-16.42-14.461
			c-5.402-5.39-10.834-10.75-16.397-15.977c-1.1-1.032-4.32,0.365-3.126,1.49c5.392,5.063,10.661,10.256,15.899,15.477
			c4.98,4.964,10.152,9.576,15.626,13.982c-5.82-0.003-11.667-0.081-17.392-1.217c-6.734-1.341-12.705-4.692-17.577-9.498
			c-0.681-0.671-2.613,0.186-1.869,0.917c4.867,4.8,10.654,8.234,17.337,9.801c6.962,1.632,14.179,1.551,21.287,1.551
			c0.049,0,0.096-0.006,0.143-0.012c3.908,3.115,7.851,6.187,11.744,9.325c4.021,3.239,8.558,6.781,10.989,11.451
			c0.001,0.004,0.003,0.004,0.003,0.006c0.123,1.986,0.227,4.079,0.311,6.283c1.086,29.042-0.613,107.436-0.613,107.436
			l18.253-0.219c0,0-7.389-76.296-5.095-91.756c1.325-8.93,3.782-17.347,5.623-22.864c0.201-0.128,0.365-0.281,0.464-0.462
			c0.201-0.362,0.412-0.718,0.63-1.068c8.46,0.062,17.391-5.562,21.832-12.474c0.559-0.864-1.518-0.746-1.924-0.114
			c-3.88,6.036-11.609,11.191-19.041,11.292C391.203,248.01,396.022,244.374,400.01,240.058z"/><path fill="#936f5c" d="M371.366,265.625c0.119,3.443,3.776,5.932,6.55,3.276c0.304-0.29-0.363-0.362-0.562-0.175
				c-2.432,2.33-5.209-0.551-5.299-3.167C372.043,265.224,371.356,265.347,371.366,265.625L371.366,265.625z"/><path fill="#936f5c" d="M414.727,222.473c1.43-1.545-1.877-1.836-2.807-0.83c-2.3,2.483-4.439,5.104-6.553,7.745
				c-1.474,2.41-3.212,4.556-5.217,6.432c-0.963,1.152-1.939,2.295-2.949,3.407c-3.964,4.36-8.704,7.983-12.192,12.709
				c-1.487,1.55-3.26,3.75-4.791,6.624c-0.036,0.065-0.07,0.121-0.106,0.182C380.295,259.065,409.528,228.088,414.727,222.473z"/><path fill="#936f5c" d="M371.661,370.424c0,0-2.359-114.569-2.36-114.572c-1.264-2.426-3.082-4.801-3.069-4.654
				c-2.051-2.19-18.472-14.692-19.642-14.627c-0.394,0.021-0.786,0.027-1.182,0.027c3.653,2.902,7.331,5.775,10.963,8.706
				c4.021,3.239,8.558,6.781,10.989,11.451c0.001,0.004,0.003,0.004,0.003,0.006c0.123,1.986,0.227,4.079,0.311,6.283
				c1.086,29.042-0.613,107.436-0.613,107.436L371.661,370.424z"/><path fill="#936f5c" d="M363.906,231.169c0.205,1.385,2.82,13.793,2.968,19.161c1.758,1.468,0.936-0.036,2.524,1.662
				C369.16,249.362,365.51,231.978,363.906,231.169z"/><path fill="#cbd84e" d="M356.582,163.124c0-5.367-7.514-9.918-17.938-11.538c1.767-1.359,2.783-2.934,2.783-4.615
			c0-5.111-9.349-9.254-20.879-9.254c-4.859,0-9.33,0.738-12.878,1.973c0.164-0.639,0.253-1.298,0.253-1.973
			c0-5.627-5.981-10.189-13.36-10.189c-6.168,0-11.357,3.188-12.896,7.521c-2.147-0.73-4.531-1.139-7.047-1.139
			c-9.362,0-16.951,5.63-16.951,12.578c0,1.669,0.441,3.262,1.238,4.721c-7.325,1.066-12.806,5.359-12.806,10.495
			c0,4.399,4.02,8.179,9.772,9.844c-1.392,1.216-2.193,2.638-2.193,4.157c0,4.48,6.964,8.115,15.554,8.115
			c1.9,0,3.721-0.179,5.402-0.505c-0.011,0.167-0.017,0.336-0.017,0.505c0,5.574,6.517,10.094,14.558,10.094
			c2.629,0,5.093-0.486,7.22-1.328c3.842,2.081,9.633,3.407,16.112,3.407c11.563,0,20.938-4.226,20.938-9.436
			c0-0.075-0.008-0.145-0.011-0.22c1.147,0.208,2.355,0.321,3.602,0.321c7.709,0,13.959-4.267,13.959-9.534
			c0-1.96-0.866-3.779-2.35-5.294C353.541,169.621,356.582,166.537,356.582,163.124z"/><path fill="#c6cc3e" d="M431.082,138.445c0-5.615-7.994-10.376-19.09-12.07c1.881-1.42,2.963-3.068,2.963-4.827
			c0-5.346-9.947-9.678-22.215-9.678c-5.174,0-9.931,0.772-13.705,2.064c0.174-0.668,0.267-1.357,0.267-2.064
			c0-5.886-6.363-10.657-14.216-10.657c-6.563,0-12.085,3.332-13.723,7.865c-2.283-0.762-4.821-1.19-7.498-1.19
			c-9.962,0-18.037,5.89-18.037,13.154c0,1.748,0.469,3.414,1.316,4.939c-7.794,1.115-13.626,5.605-13.626,10.979
			c0,4.6,4.276,8.554,10.399,10.295c-1.483,1.272-2.335,2.759-2.335,4.346c0,4.689,7.41,8.49,16.551,8.49
			c2.022,0,3.96-0.188,5.75-0.528c-0.013,0.173-0.019,0.35-0.019,0.528c0,5.832,6.935,10.559,15.491,10.559
			c2.798,0,5.419-0.508,7.685-1.392c4.086,2.179,10.248,3.564,17.144,3.564c12.307,0,22.283-4.417,22.283-9.868
			c0-0.076-0.009-0.154-0.014-0.231c1.223,0.218,2.507,0.339,3.832,0.339c8.204,0,14.854-4.466,14.854-9.975
			c0-2.048-0.922-3.954-2.498-5.537C427.848,145.238,431.082,142.014,431.082,138.445z"/><path fill="#c6cc3e" d="M267.509,208.982c0-3.953,5.63-7.304,13.439-8.497c-1.323-1-2.085-2.16-2.085-3.398
			c0-3.764,7.001-6.814,15.64-6.814c3.642,0,6.989,0.544,9.647,1.453c-0.123-0.469-0.19-0.954-0.19-1.453
			c0-4.145,4.483-7.503,10.011-7.503c4.62,0,8.507,2.347,9.658,5.539c1.608-0.538,3.395-0.84,5.28-0.84
			c7.012,0,12.697,4.145,12.697,9.263c0,1.23-0.331,2.4-0.927,3.475c5.486,0.785,9.592,3.947,9.592,7.73
			c0,3.239-3.012,6.022-7.319,7.249c1.041,0.893,1.642,1.94,1.642,3.058c0,3.3-5.217,5.976-11.649,5.976
			c-1.426,0-2.788-0.133-4.049-0.371c0.007,0.124,0.014,0.248,0.014,0.371c0,4.107-4.882,7.433-10.906,7.433
			c-1.968,0-3.814-0.356-5.41-0.979c-2.876,1.533-7.214,2.508-12.067,2.508c-8.664,0-15.686-3.109-15.686-6.942
			c0-0.059,0.005-0.111,0.009-0.165c-0.862,0.152-1.765,0.238-2.698,0.238c-5.775,0-10.458-3.143-10.458-7.022
			c0-1.443,0.648-2.784,1.76-3.9C269.788,213.765,267.509,211.495,267.509,208.982z"/><path fill="#cbd84e" d="M474.891,169.163c0-4.181-5.96-7.732-14.226-8.995c1.4-1.059,2.206-2.286,2.206-3.595
			c0-3.984-7.412-7.215-16.558-7.215c-3.853,0-7.397,0.578-10.211,1.539c0.129-0.499,0.198-1.011,0.198-1.539
			c0-4.388-4.743-7.941-10.595-7.941c-4.892,0-9.006,2.484-10.226,5.861c-1.703-0.568-3.595-0.889-5.59-0.889
			c-7.423,0-13.441,4.392-13.441,9.806c0,1.302,0.351,2.544,0.982,3.679c-5.81,0.832-10.156,4.178-10.156,8.183
			c0,3.428,3.189,6.374,7.75,7.671c-1.103,0.949-1.739,2.058-1.739,3.241c0,3.495,5.522,6.326,12.335,6.326
			c1.507,0,2.95-0.14,4.285-0.393c-0.009,0.131-0.016,0.262-0.016,0.393c0,4.346,5.17,7.869,11.545,7.869
			c2.086,0,4.039-0.378,5.727-1.037c3.047,1.624,7.639,2.656,12.777,2.656c9.172,0,16.606-3.292,16.606-7.353
			c0-0.057-0.006-0.113-0.011-0.174c0.911,0.165,1.868,0.254,2.855,0.254c6.113,0,11.071-3.329,11.071-7.434
			c0-1.528-0.686-2.947-1.863-4.128C472.477,174.226,474.891,171.823,474.891,169.163z"/><path fill="#dbdb42" d="M362.382,222.111c0-3.953,5.629-7.305,13.439-8.499c-1.324-1.001-2.086-2.159-2.086-3.399
			c0-3.761,7.003-6.812,15.64-6.812c3.642,0,6.989,0.543,9.647,1.452c-0.123-0.469-0.188-0.956-0.188-1.452
			c0-4.145,4.48-7.504,10.008-7.504c4.622,0,8.507,2.349,9.661,5.537c1.607-0.535,3.393-0.838,5.278-0.838
			c7.014,0,12.698,4.147,12.698,9.263c0,1.23-0.332,2.401-0.929,3.475c5.488,0.785,9.592,3.947,9.592,7.731
			c0,3.239-3.009,6.02-7.319,7.246c1.041,0.895,1.645,1.944,1.645,3.06c0,3.301-5.219,5.977-11.653,5.977
			c-1.424,0-2.786-0.134-4.048-0.372c0.01,0.124,0.015,0.248,0.015,0.372c0,4.106-4.883,7.435-10.904,7.435
			c-1.971,0-3.817-0.358-5.413-0.984c-2.876,1.536-7.212,2.515-12.066,2.515c-8.662,0-15.685-3.112-15.685-6.95
			c0-0.052,0.005-0.108,0.008-0.161c-0.86,0.152-1.765,0.239-2.697,0.239c-5.776,0-10.459-3.146-10.459-7.024
			c0-1.442,0.648-2.784,1.76-3.898C364.66,226.893,362.382,224.623,362.382,222.111z"/><path fill="#cbd84e" d="M423.656,127.534c0-4.904-6.985-9.064-16.679-10.546c1.644-1.24,2.588-2.679,2.588-4.213
			c0-4.671-8.689-8.458-19.409-8.458c-4.519,0-8.673,0.676-11.972,1.804c0.153-0.584,0.234-1.187,0.234-1.804
			c0-5.143-5.559-9.31-12.422-9.31c-5.733,0-10.56,2.912-11.988,6.872c-1.996-0.666-4.212-1.042-6.552-1.042
			c-8.702,0-15.758,5.148-15.758,11.494c0,1.526,0.411,2.981,1.152,4.313c-6.812,0.974-11.905,4.899-11.905,9.592
			c0,4.02,3.735,7.473,9.085,8.994c-1.297,1.112-2.04,2.411-2.04,3.799c0,4.095,6.474,7.415,14.46,7.415
			c1.768,0,3.459-0.163,5.022-0.461c-0.009,0.154-0.017,0.307-0.017,0.461c0,5.095,6.061,9.224,13.534,9.224
			c2.443,0,4.734-0.443,6.714-1.217c3.57,1.904,8.955,3.115,14.979,3.115c10.751,0,19.467-3.858,19.467-8.619
			c0-0.067-0.008-0.135-0.013-0.203c1.069,0.191,2.191,0.296,3.35,0.296c7.167,0,12.977-3.901,12.977-8.714
			c0-1.792-0.805-3.453-2.184-4.838C420.829,133.47,423.656,130.652,423.656,127.534z"/><path fill="#e7ed70" d="M261.291,178.384c0-1.518,0.803-2.94,2.193-4.154c-5.752-1.667-9.772-5.446-9.772-9.845
				c0-5.136,5.48-9.43,12.805-10.496c-0.797-1.456-1.239-3.05-1.239-4.719c0-6.949,7.59-12.579,16.953-12.579
				c2.515,0,4.9,0.409,7.047,1.139c1.538-4.333,6.727-7.522,12.896-7.522c0.51,0,1.013,0.024,1.509,0.067
				c-2.388-1.703-5.595-2.748-9.12-2.748c-6.168,0-11.357,3.189-12.896,7.522c-2.147-0.73-4.531-1.138-7.047-1.138
				c-9.362,0-16.951,5.63-16.951,12.578c0,1.669,0.441,3.262,1.238,4.721c-7.325,1.066-12.806,5.359-12.806,10.495
				c0,4.399,4.02,8.179,9.772,9.843c-1.392,1.215-2.193,2.637-2.193,4.158c0,3.663,4.657,6.758,11.052,7.766
				C262.582,182.08,261.291,180.312,261.291,178.384z"/><g><path fill="#e7ed70" d="M321.678,129.325c0-4.694,5.095-8.618,11.905-9.591c-0.537-0.966-0.897-1.996-1.057-3.07
					c-6.745,1.004-11.778,4.907-11.778,9.572c0,1.196,0.333,2.343,0.94,3.403C321.683,129.534,321.678,129.431,321.678,129.325z"/><path fill="#e7ed70" d="M379.15,107.405c0,0.617-0.081,1.219-0.234,1.802c3.299-1.126,7.453-1.802,11.974-1.802
					c8.612,0,15.908,2.445,18.447,5.829c0.018-0.154,0.031-0.306,0.031-0.459c0-4.671-8.69-8.458-19.41-8.458
					c-4.082,0-7.868,0.553-10.993,1.491C379.086,106.327,379.15,106.859,379.15,107.405z"/><path fill="#e7ed70" d="M332.43,115.419c0-6.347,7.058-11.494,15.761-11.494c2.34,0,4.556,0.375,6.552,1.039
					c1.43-3.957,6.253-6.872,11.988-6.872c5.173,0,9.606,2.371,11.475,5.744c-0.333-4.921-5.76-8.831-12.406-8.831
					c-5.733,0-10.557,2.912-11.988,6.872c-1.995-0.666-4.214-1.042-6.551-1.042c-8.704,0-15.76,5.147-15.76,11.496
					c0,1.402,0.352,2.743,0.983,3.988C332.452,116.024,332.43,115.724,332.43,115.419z"/></g><g><path fill="#e7ed70" d="M275.278,219.291c0-1.443,0.648-2.784,1.758-3.9c-3.664-1.626-5.941-3.896-5.941-6.408
					c0-3.953,5.63-7.304,13.438-8.497c-1.323-1-2.084-2.16-2.084-3.398c0-3.493,6.035-6.373,13.81-6.766
					c-0.576-0.029-1.159-0.048-1.755-0.048c-8.639,0-15.64,3.051-15.64,6.814c0,1.237,0.762,2.398,2.085,3.398
					c-7.809,1.193-13.439,4.544-13.439,8.497c0,2.512,2.279,4.782,5.943,6.408c-1.111,1.116-1.76,2.457-1.76,3.9
					c0,3.879,4.683,7.022,10.458,7.022c0.608,0,1.202-0.04,1.78-0.108C279.018,225.632,275.278,222.755,275.278,219.291z"/><path fill="#e7ed70" d="M288.425,226.239c0-0.059,0.007-0.111,0.009-0.165c-0.861,0.152-1.764,0.238-2.698,0.238
					c-0.303,0-0.599-0.012-0.894-0.031c0.059,3.815,7.057,6.899,15.684,6.899c0.611,0,1.212-0.012,1.807-0.046
					C294.506,232.746,288.425,229.806,288.425,226.239z"/></g></g><g><path fill="#e0dede" d="M342.7,409.049c0,4.782-40.569,8.654-90.615,8.654c-50.044,0-90.61-3.872-90.61-8.654
		c0-4.779,40.566-8.652,90.61-8.652C302.131,400.397,342.7,404.27,342.7,409.049z"/><rect width="8.1" height="62.444" x="176.839" y="300.029" fill="#755f4e"/><rect width="8.1" height="46.823" x="161.02" y="360.864" fill="#755f4e"/><rect width="8.101" height="46.823" x="326.78" y="360.864" fill="#755f4e"/><rect width="8.101" height="62.444" x="311.993" y="300.029" fill="#755f4e"/><rect width="168.911" height="15.402" x="163.839" y="304.469" fill="#846c55"/><rect width="181.99" height="5.804" x="157.3" y="359.605" fill="#846c55"/><rect width="168.911" height="8.102" x="163.839" y="326.241" fill="#846c55"/></g><g><polygon fill="#c0c63c" points="108.828 409.759 126.373 427.315 131.735 427.315 119.548 409.759"/><path fill="#454b60" d="M108.828,393.831v15.928c0,0.923,2.4,1.671,5.36,1.671c2.961,0,5.36-0.748,5.36-1.671v-15.928H108.828z"/><path fill="#383d4c" d="M119.523,394.198c0,1.126-2.4,2.041-5.36,2.041c-2.961,0-5.362-0.915-5.362-2.041
		c0-1.125,2.4-2.038,5.362-2.038C117.123,392.16,119.523,393.073,119.523,394.198z"/><path fill="#fffdb6" d="M110.385,361.524v32.475h0.013c0.069,0.831,1.723,1.5,3.766,1.5c2.042,0,3.695-0.669,3.764-1.5h0.014v-32.475
		H110.385z"/><path fill="#f2ed8f" d="M117.941,361.524c0,0.856-1.691,1.552-3.778,1.552c-2.087,0-3.778-0.695-3.778-1.552
		c0-0.857,1.691-1.553,3.778-1.553C116.249,359.972,117.941,360.667,117.941,361.524z"/><path fill="#fff" d="M113.238,387.327c0,0.476-0.293,0.862-0.651,0.862l0,0c-0.361,0-0.651-0.387-0.651-0.862v-20.552
		c0-0.476,0.29-0.86,0.651-0.86l0,0c0.358,0,0.651,0.385,0.651,0.86V387.327z"/><rect width="2.558" height="229.076" x="112.908" y="133.732" fill="#fff"/><path fill="#fffdb6" d="M131.735,125.15c0,9.714-7.875,17.588-17.588,17.588c-9.715,0-17.59-7.874-17.59-17.588
		c0-9.715,7.875-17.59,17.59-17.59C123.861,107.561,131.735,115.436,131.735,125.15z"/><path fill="#fff" d="M114.188,120.268c0,3.918-2.245,7.093-5.017,7.093c-2.771,0-5.016-3.175-5.016-7.093
		c0-3.919,2.245-7.096,5.016-7.096C111.943,113.172,114.188,116.349,114.188,120.268z"/></g></svg>