<svg xmlns="http://www.w3.org/2000/svg" xmlns:xlink="http://www.w3.org/1999/xlink" viewBox="0 0 1596.1 1154.38"><defs><linearGradient id="e" x1="93.94" x2="17.7" y1="852.75" y2="960.46" gradientUnits="userSpaceOnUse"><stop offset="0" stop-color="#fff"/><stop offset=".98"/></linearGradient><linearGradient id="g" x1="802.69" x2="796.69" y1="2.48" y2="746.56" gradientUnits="userSpaceOnUse"><stop offset="0" stop-color="#78d5ee"/><stop offset=".61" stop-color="#bbf3fe"/><stop offset="1" stop-color="#e9fdff"/></linearGradient><linearGradient id="b" x1="787.38" x2="802.38" y1="394.66" y2="1072.73" gradientUnits="userSpaceOnUse"><stop offset="0" stop-color="#88d4ae"/><stop offset=".98" stop-color="#b6e69c"/></linearGradient><linearGradient id="h" x1="-7560.41" x2="-7546.74" y1="427.89" y2="1046.07" gradientTransform="matrix(-1 0 0 1 -6727.01 0)" xlink:href="#b"/><linearGradient id="i" x1="687.28" x2="748.77" y1="118.68" y2="289.67" gradientUnits="userSpaceOnUse"><stop offset=".02" stop-color="#e9fdff"/><stop offset=".49" stop-color="#bbf3fe"/><stop offset="1" stop-color="#78d5ee"/></linearGradient><linearGradient id="k" x1="93.94" x2="17.7" y1="852.75" y2="960.46" gradientUnits="userSpaceOnUse"><stop offset="0" stop-color="#7f9900"/><stop offset=".98" stop-color="#7f9900"/></linearGradient><linearGradient id="f" x1="1061.68" x2="1024.19" y1="554.61" y2="409.12" gradientUnits="userSpaceOnUse"><stop offset="0" stop-color="#78d5ee"/><stop offset=".51" stop-color="#bbf3fe"/><stop offset=".98" stop-color="#e9fdff"/></linearGradient><linearGradient id="l" x1="249.9" x2="227.18" y1="267.79" y2="121.03" xlink:href="#f"/><linearGradient id="m" x1="1317.87" x2="1302.58" y1="317.85" y2="219" xlink:href="#f"/><filter id="a" width="112.36" height="32766" x="0" y="-8769" color-interpolation-filters="sRGB" filterUnits="userSpaceOnUse"><feFlood flood-color="#fff" result="bg"/><feBlend in="SourceGraphic" in2="bg"/></filter><filter id="d" width="112.36" height="68.33" x="0" y="886.32" color-interpolation-filters="sRGB" filterUnits="userSpaceOnUse"><feFlood flood-color="#fff" result="bg"/><feBlend in="SourceGraphic" in2="bg"/></filter><mask id="j" width="112.36" height="68.33" x="0" y="886.32" maskUnits="userSpaceOnUse"><g filter="url(#d)" mask="url(#c)"><polygon points="97.86 886.32 0 925.87 0 954.65 112.36 886.32 97.86 886.32" style="mix-blend-mode:multiply" fill="url(#e)"/></g></mask></defs><g data-name="Layer 1"><rect width="1596.1" height="1154.38" fill="url(#g)"/><path fill="url(#b)" d="M1093.47,618.68c-57,12.86-129-18.86-195-27.11s-123,20.25-159,27.11-57-15.86-78-27.11-192,41.25-240,53.25-99-21-195-47.74C132.37,570.89,5.23,630.26,0,632.73v521.65H1596.1V599.8c-23.41-5.49-158.26-36.78-226.6-45C1294.49,545.81,1150.48,605.82,1093.47,618.68Z"/><path d="M1296.69,608.11c-117.65,32-123.52,110.75-179,101.57-54.31-9-171.78-109.25-254.25-86.58-23.36,6.42-149.95,56.74-186,52.32-35.5-4.35-43.9-45.35-106.08-34.95-60.51,10.12-124.69,39.75-174.19,31.38-48.39-8.18-166-49.81-224.65-39.22C115.41,642.93,2.32,676.92,2.32,676.92v414l1584.82,63.45h9V630C1581.74,625.62,1414.53,576.07,1296.69,608.11Z" style="mix-blend-mode:multiply" fill="url(#h)" opacity=".29"/><path fill="#5c9159" d="M767.77,756.76h33.49l30.93-4,37.11-4.08,7.25-3.6-2.8-3.08h9l.23-.11c-1.38-1.27-10.36-13.53-10.36-13.53l7.31.3-8.81-10.38h5.25l-8.06-15.06-7.12,15.06h5.25l-4.86,5.4-7.13-8h5.91l-8-17.08-6.52,12.26-4.1-7.67-.4.84-5.82-12.38-8.26,15.52-8.46-15.81-5.91,12.49-.17-.37-4,7.58-6.82-12.75-8.08,17.08h6l-7.23,8-4.37-4.88h5.22l-7.08-15.07-8,15.07h5.22L774.68,729l7.27-.29s-9.93,13.63-10.46,13.63h9.34ZM860.5,744l-.35-.46.73,0Zm4.06-15.62-3.46,3.89-3.45-3.89Zm-6-1.24-1,1.12-1-1.12Zm-12.25,1.7-.28-.39.54,0Zm2.86-13-.47.56-.3-.56ZM847,718.33l-.84,1-.89-1Zm-8.43-8.4-.28.6-.54-.6Zm-11.33,30.46-1.63-1.79h3.23Zm0-14.12-2.89-3.92,5.94-.23S829,723.89,827.26,726.27ZM826,709.64l-.15.29h6.3l-4.83,5.73-5.11-6Zm-9.46,0-.63.7-.33-.7Zm-8.08,9-.37.41-.35-.41Zm-2.07-3.16-.51,1-.82-1ZM793.59,743.7l-.41-.54.79,0Zm4-16.89L796.5,728l-1.08-1.21ZM796,728.63,793,732l-3-3.38Z" opacity=".29"/><path fill="#5c9159" d="M785.39,761.26H749.25l-33.37-4-40-4.08-7.82-3.6,3-3.07h-9.72l-.24-.12c1.49-1.26,11.18-13.52,11.18-13.52l-7.89.29,9.5-10.37h-5.66l8.7-15.06,7.68,15.06h-5.66l5.24,5.4,7.7-8h-6.39l8.67-17.07,7,12.25,4.42-7.66.43.83,6.28-12.38,8.91,15.53,9.14-15.82,6.37,12.5.19-.37,4.35,7.58,7.36-12.75L757.36,720h-6.42l7.8,8,4.72-4.88h-5.63l7.64-15.06,8.65,15.06h-5.63l9.45,10.37-7.85-.29s10.72,13.64,11.29,13.64H771.3Zm-100-12.8.37-.46-.79,0ZM681,732.84l3.74,3.89,3.72-3.89Zm6.49-1.24,1.08,1.12,1.07-1.12Zm13.22,1.7.3-.38-.58,0Zm-3.09-13,.51.56.32-.56Zm2.35,2.58.9,1,1-1Zm9.09-8.41.31.6.57-.6Zm12.22,30.46L723,743.1h-3.48Zm0-14.11c1.4-1.74,2.54-3.19,3.13-3.92l-6.42-.24Zm1.4-16.64.17.29H716l5.21,5.73,5.52-6Zm10.21,0,.68.7.36-.7Zm8.72,9,.4.41.38-.41Zm2.23-3.16.56,1,.88-1Zm13.77,28.23.44-.54-.84.05Zm-4.3-16.89,1.16,1.21,1.17-1.21Zm1.75,1.82,3.24,3.38,3.23-3.38Z" opacity=".29"/><path fill="#5c9159" d="M677.39,761.26H641.25l-33.37-4-40-4.08-7.82-3.6,3-3.07h-9.72l-.24-.12c1.49-1.26,11.18-13.52,11.18-13.52l-7.89.29,9.5-10.37h-5.66l8.7-15.06,7.68,15.06h-5.66l5.24,5.4,7.7-8h-6.39l8.67-17.07,7,12.25,4.42-7.66.43.83,6.28-12.38,8.91,15.53,9.14-15.82,6.37,12.5.19-.37,4.35,7.58,7.36-12.75L649.36,720h-6.42l7.8,8,4.72-4.88h-5.63l7.64-15.06,8.65,15.06h-5.63l9.45,10.37-7.85-.29s10.72,13.64,11.29,13.64H663.3Zm-100-12.8.37-.46-.79,0ZM573,732.84l3.74,3.89,3.72-3.89Zm6.49-1.24,1.08,1.12,1.07-1.12Zm13.22,1.7.3-.38-.58,0Zm-3.09-13,.51.56.32-.56Zm2.35,2.58.9,1,1-1Zm9.09-8.41.31.6.57-.6Zm12.22,30.46L615,743.1h-3.48Zm0-14.11c1.4-1.74,2.54-3.19,3.13-3.92l-6.42-.24Zm1.4-16.64.17.29H608l5.21,5.73,5.52-6Zm10.21,0,.68.7.36-.7Zm8.72,9,.4.41.38-.41Zm2.23-3.16.56,1,.88-1Zm13.77,28.23.44-.54-.84.05Zm-4.3-16.89,1.16,1.21,1.17-1.21Zm1.75,1.82,3.24,3.38,3.23-3.38Z" opacity=".29"/><path fill="#d0cc2d" d="M1279,712.87c-42-.44-144-44.57-228-44.57s-120,33-201,66C772.2,766,57.64,756.2,0,755.36v396H1596.1V588s-53.09,5.25-98.1,26.25S1321,713.3,1279,712.87Z"/><path d="M981.55,258.3a51,51,0,0,0-51-51,52.15,52.15,0,0,0-6.53.43,60.49,60.49,0,0,0-90.42-40.13,85.52,85.52,0,0,0-135.43-.72,71.88,71.88,0,0,0-44.06-3.49,71.75,71.75,0,0,0-115.76,49.25,51,51,0,0,0-46.28,50.79H981.3A50.88,50.88,0,0,0,981.55,258.3Z" style="mix-blend-mode:screen" fill="url(#i)" opacity=".43"/><path fill="#b7b127" d="M1596.1,1154.38V758.9c-19.58-3.93-119.44-22.2-248.29-14.55-144,8.55-330,30-437,15.28s-379-39.35-527-41C238.21,716.93,7.44,729,0,729.39v425Z"/><path fill="#e0dd79" d="M1189.47,884S1236,869.06,1224,849.5s-20.92-29.15-140.42-54.64c-72.12-15.39-261.8-45.77-261.8-45.77l158,17.54s100,10.39,193.63,23.37c95.19,13.19,126,41.13,138,63.56s10,49,10,49Z"/><path fill="#7f9900" d="M1596.1,1154.38V895c-23.51-.29-463.52-6.19-634.8-40-176-34.8-411.9-118.31-588-171.9C162.36,618.86,20.94,687.38,0,698.55v455.83Z"/><path fill="#695627" d="M51.3,731.52c-10.72-5.39,4.42-25.67,8.05-71S60.55,541.31,61,519.13s1.51-84.53,1.87-104.94,6.61-23.93,6.61,2C69.49,423,81,533.81,84.63,573.6c4.08,45.2,8.38,62.92,14.63,87.08s27.41,66.31,14.92,70.09C106.36,733.14,66.81,739.32,51.3,731.52Z"/><path d="M51.3,731.52c-10.72-5.39,4.42-25.67,8.05-71S60.55,541.31,61,519.13s1.51-84.53,1.87-104.94,4.2-6.61,4.2,19.31c0,6.79,0,102.21.16,142.17.14,45.16,1.1,48.58-.11,77.91C66.1,678.52,66.81,739.32,51.3,731.52Z" style="mix-blend-mode:multiply" fill="#695627" opacity=".14"/><path fill="#695627" d="M28.36,407c.65,2.58,1.55,5.08,2.41,7.58.44,1.24.89,2.48,1.37,3.71s.92,2.47,1.4,3.68,1,2.41,1.51,3.58c.26.58.52,1.16.8,1.7a12,12,0,0,0,.83,1.44l.52.74c.17.26.37.5.55.74.37.49.76,1,1.15,1.42a23.26,23.26,0,0,0,2.48,2.57,18,18,0,0,0,5.88,3.49,26.38,26.38,0,0,0,7,1.47l.94.08h.29l.34,0c.23,0,.46.06.68.11a11,11,0,0,1,2.61.82,13.54,13.54,0,0,1,4.19,3,19.93,19.93,0,0,1,2.78,3.83c.38.67.73,1.34,1,2,.15.35.3.69.44,1l.21.55.21.62-5-1.39c3.52-3.07,7-6.09,10.76-8.95.93-.72,1.87-1.43,2.86-2.14l.74-.53.78-.52,1.33-.89a18.46,18.46,0,0,0,4.34-4.16,20.47,20.47,0,0,0,2.77-5.53,31.11,31.11,0,0,0,.84-3.16c.12-.54.21-1.09.33-1.64L88,420.7c.37-2.28.73-4.56,1.16-6.84S90,409.3,90.43,407l.35,0-1.13,13.81a41.27,41.27,0,0,1-1,6.89,26,26,0,0,1-1.07,3.34,19.55,19.55,0,0,1-6.39,8.23l-1.41,1c-.47.32-.94.66-1.39,1-.92.7-1.82,1.41-2.71,2.14-3.57,2.92-7.06,5.95-10.5,9l-.38.34-.17-.49a18.86,18.86,0,0,0-3.94-6.69,10.13,10.13,0,0,0-3.09-2.27,7.65,7.65,0,0,0-1.81-.58c-.62-.12-1.28-.16-2-.23A29.6,29.6,0,0,1,46,440.8a21.15,21.15,0,0,1-6.78-4.33,30.36,30.36,0,0,1-5-6.3,24.71,24.71,0,0,1-1.62-3.7c-.45-1.26-.87-2.52-1.25-3.8q-1.17-3.82-2.05-7.73A56.48,56.48,0,0,1,28,407.05Z"/><path fill="#695627" d="M67.14,545.11a97.64,97.64,0,0,0,16.58-2.3l2-.45,2-.49c.67-.14,1.34-.32,2-.49l1-.24c.35-.08.63-.18,1-.27a19.4,19.4,0,0,0,1.86-.63c.61-.27,1.23-.5,1.83-.81a34.73,34.73,0,0,0,3.54-2,62.61,62.61,0,0,0,6.57-5.11c2.11-1.83,4.12-3.79,6.08-5.81a147.31,147.31,0,0,0,11.06-12.83l.29.19c-1.5,2.42-3.11,4.77-4.79,7.07s-3.42,4.55-5.25,6.75-3.76,4.31-5.79,6.34a63.85,63.85,0,0,1-6.55,5.7c-1.19.86-2.38,1.71-3.67,2.47-.63.4-1.31.73-2,1.09s-1.36.66-2.1.91c-.35.13-.73.28-1.08.38l-1,.32c-.7.19-1.39.42-2.1.57s-1.41.33-2.12.47l-2.15.37a51.61,51.61,0,0,1-8.69.52,32.06,32.06,0,0,1-8.58-1.34Z"/><path fill="#695627" d="M139.66,544.44c-3.89,1.95-7.56,4.3-11.48,6.35a44,44,0,0,1-6.17,2.64,21.88,21.88,0,0,1-6.83,1.14,26.11,26.11,0,0,1-6.89-1.08,30.65,30.65,0,0,1-6.25-2.57,48.5,48.5,0,0,1-5.64-3.59,38,38,0,0,1-5-4.39l.2-.29c4.15,1.6,8.07,3.43,12,5.09,2,.85,3.9,1.67,5.83,2.44a20.08,20.08,0,0,0,5.88,1.58,19.29,19.29,0,0,0,6.1-.59,40.48,40.48,0,0,0,6.06-2c2-.79,4-1.68,6-2.57s4-1.77,6.08-2.49Z"/><path fill="#695627" d="M95.14,507.69a52.25,52.25,0,0,0,1.91,6.83c.38,1.11.81,2.2,1.25,3.29s.9,2.16,1.4,3.21a33.51,33.51,0,0,0,1.66,3.07c.59,1,1.1,2,1.58,3,1,2,2.08,4,3.11,6.31l-.23.26a11.66,11.66,0,0,1-3.28-2,15,15,0,0,1-2.61-2.78c-1.56-2.1-2.1-4.54-2.86-6.86-.37-1.16-.69-2.34-1-3.51s-.52-2.38-.72-3.58a38.18,38.18,0,0,1-.56-7.23Z"/><path fill="#695627" d="M12.25,523.9a73.23,73.23,0,0,0,8.39,9.87,122.51,122.51,0,0,0,9.52,8.57l1.26,1c.42.33.84.65,1.28.95.87.61,1.75,1.21,2.63,1.8a60.18,60.18,0,0,0,5.54,3.1c1,.45,1.88,1,2.86,1.35l2.91,1.21c1,.39,2,.72,3,1.06l1.48.5c.5.15,1,.28,1.52.42l3,.78c1,.21,2,.39,3.07.57l1.54.25c.52.06,1,.12,1.56.15,1,.1,2.07.18,3.1.21l.15-.63c-.92-.52-1.85-1-2.77-1.44-.46-.24-.92-.45-1.38-.68l-1.36-.71c-.91-.48-1.82-.93-2.72-1.38l-2.67-1.44c-.45-.24-.9-.46-1.34-.71l-1.31-.75c-.87-.5-1.76-.95-2.62-1.47-1.72-1-3.47-2-5.15-3.08s-3.37-2.13-5.08-3.16-3.39-2.11-5-3.23a82,82,0,0,1-9.7-7.14,68.19,68.19,0,0,1-8.44-8.64,58.59,58.59,0,0,1-6.61-10.28c-3.58-6.81-6.13-14.29-8.87-21.7v3.43a140,140,0,0,0,6.09,19.71A62.37,62.37,0,0,0,12.25,523.9Z"/><path fill="#9fb432" d="M170.29,585.16c-14.15,8.12-38,.15-46.53-12.17-13.6-19.77-2.79-23.13-15.47-41.32-9.76-14-39.51,8.3-52.16-32.43-4.17-13.4-8.39-39.46,13.43-55.56,18.14-13.39,42.14-22.47,65.89-12.57,16,6.69,42.22,14.61,60.42,48.26s-7.58,43.86-7.15,56.4c1,30.12-4.28,41.27-18.43,49.39Z"/><path d="M170.29,585.16h0a36.71,36.71,0,0,0,9.48-7.45c-7.89-2.7-15-7.4-18.83-13-13.61-19.77-2.79-23.13-15.47-41.33-9.76-14-39.51,8.31-52.17-32.42-4.16-13.4-8.38-39.47,13.43-55.56a100,100,0,0,1,13-8.2c-18.37-1.76-36.08,6.06-50.22,16.5-21.82,16.1-17.6,42.16-13.43,55.56,12.65,40.73,42.4,18.42,52.16,32.43,12.68,18.19,1.87,21.55,15.47,41.32C132.24,585.31,156.14,593.28,170.29,585.16Z" style="mix-blend-mode:multiply" fill="#9fb432" opacity=".26"/><path fill="#9fb432" d="M27.59,507.75c11.83-3.49,21.12-18,18.63-32.57h0c-2.49-14.52-9.69-22.43-33.32-30.69C8,442.79,5.3,435.72,0,429.71v80C8.51,509.37,13.9,511.79,27.59,507.75Z"/><path fill="#695627" d="M10.21,534.17c2.15-1.73,4.25-3.5,6.28-5.43l-.21-.34C11,530.31,6.2,533.12,1.44,535.54L0,536.25v4.64A34.15,34.15,0,0,0,3.43,539,72.42,72.42,0,0,0,10.21,534.17Z"/><path fill="#9fb432" d="M61.59,425.83c27.94,3.34,22.82,20.08,53,23.86,18.83,2.35,46.38-11.62,50.45-29.77h0c4.07-18.16-3.46-48-38.83-52.2-9.54-1.13,2.62-31.69-44.66-42.28S22.84,347.08,6.36,345A28.08,28.08,0,0,0,0,345v86.13C33.84,442.25,41.49,423.43,61.59,425.83Z"/><g mask="url(#j)"><polygon points="97.86 886.32 0 925.87 0 954.65 112.36 886.32 97.86 886.32" style="mix-blend-mode:multiply" fill="url(#k)" opacity=".36"/></g><path fill="#d1ce6f" d="M1162,875.13l-98.17-11.44a807.53,807.53,0,0,0-302.29,22.06c-62,16.59-136.22,38.62-212.64,66.18-192,69.28-378.79,180.61-414.64,202.45H694.06c18.34-18.24,101.31-99.12,195.25-165.24C995.87,914.13,1162,875.13,1162,875.13Z"/><path d="M961.3,855.78c-176-34.79-411.9-118.3-588-171.89C248.18,645.82,147.52,654.44,82,670.08c59.48-2.56,135.54,8.21,225.41,50.19,232,108.39-43.88,198.54,88.06,307.46s680.25,58.07,784.1,9.5c67.8-31.71,278.5-68.07,416.58-89.48V895.83C1572.59,895.54,1132.58,889.64,961.3,855.78Z" style="mix-blend-mode:screen" fill="#7f9900" opacity=".35"/><path fill="#587b1f" d="M1544.32,495.55h51.78V482.9c-10.78-18.23-30.5-53.1-42.7-83.8a643.82,643.82,0,0,1-30.3-98.76s-18.17,54.23-41.82,105c-18.64,40-49.44,90.26-49.44,90.26h59.43s-9.84,24.74-43.23,69.74-64.55,59.28-64.55,59.28l90.8,1.64s-6.2,28.68-40.33,76.55c-42.84,60.08-77.75,83.94-92.39,90.12-5.59,2.35,120,10.11,120,10.11l-163.41,205.33h298V664.51l-30.55-39.31h30.55V580a278.2,278.2,0,0,1-19-21.5C1551.84,526.43,1544.32,495.55,1544.32,495.55Z"/><path fill="#587b1f" d="M1544.32,495.55h51.78V482.9c-10.78-18.23-30.5-53.1-42.7-83.8a643.82,643.82,0,0,1-30.3-98.76s-18.17,54.23-41.82,105c-18.64,40-49.44,90.26-49.44,90.26h59.43s-9.84,24.74-43.23,69.74-64.55,59.28-64.55,59.28l90.8,1.64s-6.2,28.68-40.33,76.55c-42.84,60.08-77.75,83.94-92.39,90.12-5.59,2.35,120,10.11,120,10.11l-163.41,205.33h298V664.51l-30.55-39.31h30.55V580a278.2,278.2,0,0,1-19-21.5C1551.84,526.43,1544.32,495.55,1544.32,495.55Z"/><path d="M1549.65,625.2h46.45v-2.27c-7.66-12.38-35.87-57.28-39.33-64.4a245,245,0,0,1-20.25-63h45c-6.44-17.45-31.46-64.38-39.35-96.45a964.32,964.32,0,0,1-18.74-98.76s-11.24,54.23-25.87,105c-11.54,40-30.58,90.26-30.58,90.26h36.76s-6.09,24.74-26.74,69.74S1437,624.57,1437,624.57l56.17,1.64s-3.83,28.68-24.94,76.55c-26.51,60.08-48.1,83.94-57.16,90.12-3.46,2.35,74.23,10.11,74.23,10.11l-101.1,205.33H1596.1V697.21Z" style="mix-blend-mode:multiply" fill="#587b1f" opacity=".24"/><g style="mix-blend-mode:screen" opacity=".69"><path fill="#587b1f" d="M1490.28,406.29c16.47-35.31,30.27-72.3,37.14-91.53-2.25-9.1-3.32-14.42-3.32-14.42s-18.17,54.23-41.82,105c-18.64,40-49.44,90.26-49.44,90.26h8.61C1445.85,488.31,1473.17,443,1490.28,406.29Z"/><path fill="#587b1f" d="M1457,566.29c33.39-45,43.23-69.74,43.23-69.74h-8.43c-2.17,5-13.27,28.95-42.8,68.74-33.38,45-64.55,59.28-64.55,59.28l9.64.18C1400.94,621.16,1428.15,605.23,1457,566.29Z"/><path fill="#587b1f" d="M1470.55,804l-8.37-.53-163,204.86h8.79Z"/><path fill="#587b1f" d="M1353.66,794.91c-2.57-.4-3.75-.76-3.09-1,14.64-6.18,49.55-30,92.39-90.12,34.13-47.87,40.33-76.55,40.33-76.55l-8.21-.15c-1.3,5.05-9.38,32.59-40.12,75.7-42.84,60.08-77.75,83.94-92.39,90.12C1341.41,793.36,1345.87,794.08,1353.66,794.91Z"/></g><path fill="#548e3c" d="M227.54,256.59a580.78,580.78,0,0,1-25.16,56.46c-11.23,21.52-29.76,48.56-29.76,48.56h35.76s-5.91,13.32-26,37.52S143.53,431,143.53,431l54.64.88s-3.73,15.43-24.27,41.18c-25.78,32.33-46.79,45.16-55.6,48.49-3.37,1.27,72.2,5.44,72.2,5.44L92.17,637.49H352.69l-77.9-105.27,62.58-3.9-84.29-97h48.53S275.18,412.77,260,395.5s-19.7-33.89-19.7-33.89h35.76s-19.79-28.25-30.3-51.89A318.7,318.7,0,0,1,227.54,256.59Z"/><path fill="#548e3c" d="M227.54,256.59a580.78,580.78,0,0,1-25.16,56.46c-11.23,21.52-29.76,48.56-29.76,48.56h35.76s-5.91,13.32-26,37.52S143.53,431,143.53,431l54.64.88s-3.73,15.43-24.27,41.18c-25.78,32.33-46.79,45.16-55.6,48.49-3.37,1.27,72.2,5.44,72.2,5.44L92.17,637.49H352.69l-77.9-105.27,62.58-3.9-84.29-97h48.53S275.18,412.77,260,395.5s-19.7-33.89-19.7-33.89h35.76s-19.79-28.25-30.3-51.89A318.7,318.7,0,0,1,227.54,256.59Z"/><path d="M226.39,256.59s-5.26,29.17-12.11,56.46C208.87,334.57,200,361.61,200,361.61h17.22s-2.85,13.32-12.53,37.52S185.93,431,185.93,431l26.32.88s-1.8,15.43-11.69,41.18c-12.42,32.33-22.53,45.16-26.77,48.49-1.63,1.27,34.77,5.44,34.77,5.44L161.2,637.49H286.67L249.15,532.22l30.14-3.9-40.6-97h23.38s-12.73-18.59-20-35.86a146.68,146.68,0,0,1-9.49-33.89h17.23s-9.54-28.25-14.6-51.89C229.07,281.2,226.39,256.59,226.39,256.59Z" style="mix-blend-mode:multiply" fill="#548e3c" opacity=".14"/><g style="mix-blend-mode:screen"><path fill="#548e3c" d="M260,395.5c-15.18-17.27-19.7-33.89-19.7-33.89h-6s4.52,16.62,19.7,33.89,41.6,35.87,41.6,35.87h6S275.18,412.77,260,395.5Z"/><polygon fill="#548e3c" points="274.79 532.22 337.37 528.32 253.08 431.37 247.08 431.37 331.37 528.32 268.79 532.22 346.69 637.49 352.69 637.49 274.79 532.22"/><path fill="#548e3c" d="M239.77,309.72c10.51,23.64,30.3,51.89,30.3,51.89h6s-19.79-28.25-30.3-51.89a318.7,318.7,0,0,1-18.23-53.13s-1.31,3.49-3.61,9.18A334,334,0,0,0,239.77,309.72Z"/></g><path fill="#587b1f" d="M130.09,370.68a545.86,545.86,0,0,1-21.73,53.48c-11,23.66-29.25,53.4-29.25,53.4h35.16s-5.82,14.64-25.58,41.26S50.5,553.9,50.5,553.9l53.72,1s-3.67,17-23.86,45.3c-25.35,35.55-46,49.66-54.67,53.32-3.3,1.39,71,6,71,6L0,781H256.16l-76.6-115.77,61.53-4.29L158.22,554.27h47.71s-26-20.46-40.9-39.45-19.37-37.26-19.37-37.26h35.16S161.36,446.49,151,420.49C138.56,389.12,130.09,370.68,130.09,370.68Z"/><g style="mix-blend-mode:screen"><path fill="#587b1f" d="M165,514.82c-14.92-19-19.37-37.26-19.37-37.26h-5s4.45,18.27,19.37,37.26,40.9,39.45,40.9,39.45h5S180,533.81,165,514.82Z"/><path fill="#587b1f" d="M146,420.49c10.33,26,29.79,57.07,29.79,57.07h5S161.36,446.49,151,420.49c-12.47-31.37-20.94-49.81-20.94-49.81h0A395.35,395.35,0,0,0,146,420.49Z"/><polygon fill="#587b1f" points="179.56 665.18 241.09 660.89 158.22 554.27 153.22 554.27 236.09 660.89 174.56 665.18 251.16 780.95 256.16 780.95 179.56 665.18"/></g><path d="M130.09,370.68s-5.3,23.46-13.34,53.48c-6.34,23.66-16.81,53.4-16.81,53.4h20.2s-3.34,14.64-14.69,41.26-22,35.08-22,35.08l30.87,1s-2.11,17-13.71,45.3c-14.57,35.55-26.43,49.66-31.41,53.32-1.9,1.39,40.79,6,40.79,6L54.48,781h147.2l-44-115.77L193,660.89,145.4,554.27h27.42s-14.93-20.46-23.51-39.45a153.48,153.48,0,0,1-11.13-37.26h20.21s-11.19-31.07-17.12-57.07C134.1,389.12,130.09,370.68,130.09,370.68Z" style="mix-blend-mode:multiply" fill="#587b1f" opacity=".14"/><path fill="#548e3c" d="M103.07,606.7a406.85,406.85,0,0,1-17.58,39.45c-7.84,15-20.79,33.93-20.79,33.93h25s-4.14,9.3-18.18,26.21-27.14,22.29-27.14,22.29l38.18.61S79.94,740,65.59,758c-18,22.59-32.68,31.55-38.84,33.88-2.35.88,50.44,3.8,50.44,3.8S69.64,813,50.5,834.49s-42,38.33-42,38.33L205,871.16s-29-9.64-48-33.67-20.95-38.22-20.95-38.22l43.72-2.72S152.91,776.27,138,759.16s-17.12-30.35-17.12-30.35h33.91s-18.46-13-29.07-25.06S112,680.08,112,680.08h25s-13.82-19.74-21.16-36.26A222.58,222.58,0,0,1,103.07,606.7Z"/><path fill="#548e3c" d="M384,602.73l-40.78,59h26.55l-44.57,40.61,37-1.14s-50.53,53.41-53.24,53.41h47.55l-73,62H476.89L419,757.51l46.47-2.19-62.6-54.45h36l-45.52-39.16H420Z"/><path fill="#61562d" d="M97.86,886.32c-2-30.5,3.33-244.31,3.33-244.31l11.17,244.31Z"/><path fill="#61562d" d="M101.19,674.32c1.44-.62,13.42-6,13.42-6l-12.75,9Z"/><path fill="#61562d" d="M101.19,672.82c-.72-.5-15.69-7.62-15.69-7.62L101.19,675Z"/><polygon fill="#61562d" points="103.36 720.95 128.08 714.95 103.36 723.7 103.36 720.95"/><path fill="#61562d" d="M100.61,721.7c-.37-.13-26.12-6.75-26.12-6.75l26.7,9.8Z"/><path fill="#61562d" d="M104.89,791.45l30.6-7.63s-30.45,16.5-30.6,15S104.89,791.45,104.89,791.45Z"/><path fill="#61562d" d="M101.19,791.37c-.33-.55-33.95-8.67-33.95-8.67l34,13.25Z"/><polygon fill="#61562d" points="107.99 859.32 147.61 844.2 107.99 865.32 107.99 859.32"/><path fill="#61562d" d="M101.19,860.2c-3.78-.13-37.83-8.5-37.83-8.5l37.83,16.37Z"/><path d="M1101.74,424.54q-3.77,0-7.41.29c-9.77-21.94-32.69-37.33-59.4-37.33A65.94,65.94,0,0,0,988,406.72,56.54,56.54,0,0,0,963.08,401c-30,0-54.35,23-54.35,51.49a49.52,49.52,0,0,0,11.14,31.22c.5.05,1,.09,1.53.09h232.78a12.68,12.68,0,0,0,11.9-7.93,31.27,31.27,0,0,0,.77-6.85C1166.85,444.44,1137.7,424.54,1101.74,424.54Z" style="mix-blend-mode:screen" fill="url(#f)" opacity=".44"/><path d="M295.2,138.22a84.54,84.54,0,0,0-27.06,4.31c-12.06-19.4-40.55-33-73.79-33-44.15,0-79.94,24-79.94,53.72a37.74,37.74,0,0,0,3.42,15.54H355.52C355.52,156.37,328.51,138.22,295.2,138.22Z" style="mix-blend-mode:screen" fill="url(#l)" opacity=".44"/><path d="M1367.59,230.58a30.29,30.29,0,0,0-12.76,2.79c-5.68-12.54-32.51-28.91-60.91-25.16-15,2-28.11,9.56-33.6,23.17a26.59,26.59,0,0,0-12.32-3c-15.17,0-27.47,12.73-27.47,28.44H1396C1396,242.32,1383.3,230.58,1367.59,230.58Z" style="mix-blend-mode:screen" fill="url(#m)" opacity=".44"/><path fill="#9fb432" d="M688.45,491c-3.84,17.13-29.83,30.31-47.6,28.09-28.51-3.56-23.67-19.35-50-22.51-20.29-2.42-27.1,18.12-65.14,2.36-15.37-6.37-32.24-26.29-25.29-49.44s26.17-30.75,38.32-29.2c15.54,2,26.37-28.42,71-18.43s33.13,38.82,42.13,39.89c33.36,3.94,40.46,32.12,36.63,49.24Z"/><path fill="#9fb432" d="M660.83,443.53a33.75,33.75,0,0,1-.64,9.73h0c-3.06,13.65-23.78,24.15-37.94,22.38-22.71-2.84-18.86-15.43-39.87-17.94-16.16-1.93-21.59,14.44-51.9,1.88-9.34-3.87-19.36-14-21.15-26.79a45,45,0,0,0-8.94,16.67c-6.95,23.15,9.92,43.07,25.29,49.44,38,15.76,44.85-4.78,65.14-2.36,26.36,3.16,21.52,18.95,50,22.51,17.77,2.22,43.76-11,47.6-28.09h0C691.91,475.5,686.46,451.05,660.83,443.53Z" opacity=".29"/><path fill="#9fb432" d="M62,425.89c27.79,3.45,22.24,20.07,52.72,23.78,18.75,2.29,46.12-11,50.17-28.7,3.65-16-.78-43.14-29.52-51.45a33.47,33.47,0,0,1-.27,12.14c-3.23,14.11-25.06,24.82-40,22.87-23.94-3.13-19.89-16.14-42-18.92C36.36,383.51,30.54,399.8,0,387.75v43.12C34.19,442.49,41.1,423.29,62,425.89Z" opacity=".29"/><path fill="#9fb432" d="M582.28,546.41c1.61,16.78-14.27,36.19-28,39.18-22.11,4.79-20.91-6.85-41.32-2.29-15.71,3.51-7.81,40.92-47.56,36.2-13.08-1.55-37-8.26-42.61-35.58-4.63-22.73-3.34-49.25,14.14-67.73,11.8-12.46,28.51-34.08,64.27-37.53s34.78,25.22,45.7,30c26.25,11.39,33.81,21,35.43,37.79Z"/><path d="M582.28,546.41h0a41.65,41.65,0,0,0-2.81-12.06c-5.3,6.39-12,11.17-18.3,12.53-22.12,4.79-20.91-6.85-41.32-2.29-15.71,3.51-7.82,40.92-47.57,36.2-13.07-1.55-37-8.25-42.6-35.58a114.35,114.35,0,0,1-2.11-15.75c-8.45,16.72-8.44,36.74-4.83,54.46,5.57,27.32,29.53,34,42.61,35.58,39.75,4.72,31.85-32.69,47.56-36.2,20.41-4.56,19.21,7.08,41.32,2.29C568,582.6,583.89,563.19,582.28,546.41Z" style="mix-blend-mode:multiply" fill="#9fb432" opacity=".26"/><path fill="#9fb432" d="M700.76,632.15c-10.33,9.11-26.46,8.86-35,1.17C652,621,655.91,615.23,643.11,603.9c-9.85-8.72-42.43,9.69-58.35-18.88-5.23-9.4-1.35-39.27,27-35,18.75,2.79.35-15.31,41-25.52,13.61-3.42,34.55-.5,54,21.52s0,35.11,2.06,44.62c5,22.83,2.28,32.44-8,41.55Z"/><path d="M708.81,590.6c-2.09-9.51,17.36-22.6-2.06-44.62-1.12-1.28-2.26-2.49-3.39-3.64,1.2,12.12-8,20.6-6.53,27.29,5,22.84,2.28,32.45-8.05,41.56h0c-10.33,9.1-26.46,8.86-35,1.16C640,600,643.93,594.26,631.13,582.93c-8.08-7.15-31.42,3.94-48.35-7.58a20.51,20.51,0,0,0,2,9.67c15.92,28.57,48.5,10.16,58.35,18.88,12.8,11.33,8.84,17.07,22.61,29.42,8.58,7.69,24.71,7.94,35-1.17h0C711.09,623,713.84,613.43,708.81,590.6Z" style="mix-blend-mode:multiply" fill="#9fb432" opacity=".26"/><path fill="#695627" d="M567.76,809.74c-20.56,5.2,10.9-19.92,14.63-66.42s1.23-122.42,1.7-145.19,1.55-86.79,1.92-107.74,6.79-24.57,6.79,2c0,7,11.84,120.76,15.54,161.62,4.2,46.4,8.61,64.6,15,89.4s36.2,66.29,25.76,66.29C634.33,809.74,608.28,799.5,567.76,809.74Z"/><path d="M567.76,809.74c-20.56,5.2,10.9-19.92,14.63-66.42s1.23-122.42,1.7-145.19,1.55-86.79,1.92-107.74,6.79-24.57,6.79,2c0,7-6.17,91.87-2.47,132.73,4.19,46.4,6.9,92.48,9.77,117.94C603.61,774.13,608.28,799.5,567.76,809.74Z" style="mix-blend-mode:multiply" fill="#695627" opacity=".14"/><path fill="#695627" d="M550.58,483c.66,2.65,1.58,5.22,2.47,7.78.44,1.28.91,2.56,1.4,3.82s.94,2.53,1.44,3.78,1.05,2.47,1.56,3.67c.26.6.53,1.19.81,1.75a12.73,12.73,0,0,0,.85,1.48l.54.75c.18.26.37.51.56.76.38.51.78,1,1.18,1.46a23.53,23.53,0,0,0,2.55,2.63,18.4,18.4,0,0,0,6,3.59,27.42,27.42,0,0,0,7.15,1.51l1,.08h.12l.17,0,.35,0a5.36,5.36,0,0,1,.7.1,11.63,11.63,0,0,1,2.68.85,13.85,13.85,0,0,1,4.3,3.09,20.28,20.28,0,0,1,2.86,3.93c.39.68.74,1.38,1.06,2.09.16.36.32.72.46,1.09l.21.56c.07.2.13.35.22.64L586,527.07c3.62-3.15,7.22-6.25,11.05-9.18,1-.74,1.92-1.47,2.93-2.2l.76-.54.81-.54,1.36-.91a19.06,19.06,0,0,0,4.46-4.27,21.28,21.28,0,0,0,2.84-5.68,30.8,30.8,0,0,0,.86-3.24c.13-.56.22-1.12.34-1.69l.3-1.75c.38-2.34.75-4.68,1.19-7s.86-4.68,1.35-7l.36,0-1.15,14.18a42.68,42.68,0,0,1-1,7.07,27.24,27.24,0,0,1-1.1,3.42,20.22,20.22,0,0,1-1.66,3.2,21.07,21.07,0,0,1-4.89,5.25l-1.46,1.05c-.48.33-1,.68-1.43,1-.94.71-1.86,1.45-2.78,2.2-3.66,3-7.24,6.1-10.78,9.25l-.39.34-.17-.5a19.43,19.43,0,0,0-4-6.86,10.37,10.37,0,0,0-3.18-2.33,7.51,7.51,0,0,0-1.86-.61c-.63-.12-1.31-.15-2-.23a30.22,30.22,0,0,1-8-1.82,21.78,21.78,0,0,1-7-4.45,30.77,30.77,0,0,1-5.13-6.47A25.45,25.45,0,0,1,555,503c-.47-1.29-.89-2.59-1.29-3.9q-1.2-3.93-2.1-7.93a56.73,56.73,0,0,1-1.36-8.11Z"/><path fill="#695627" d="M623.36,494.59a16.51,16.51,0,0,1-1.63,6.3,32.74,32.74,0,0,1-3.28,5.68c-.32.45-.64.9-1,1.33s-.69.87-1,1.3a10.52,10.52,0,0,1-2.63,2.23,18.75,18.75,0,0,1-3,1.37,11.28,11.28,0,0,1-3.26.68l-.06-.2c1.83-1.19,3.55-2.36,5.23-3.59.79-.57,1.51-1.23,2.28-1.91a24.17,24.17,0,0,0,2.18-2.23c.35-.39.67-.81,1-1.22s.64-.83.94-1.26.62-.86.9-1.31l.43-.66.4-.68a17,17,0,0,0,2.35-5.84Z"/><path fill="#695627" d="M572.48,482.51a16.56,16.56,0,0,1-1.63,6.31,32.39,32.39,0,0,1-3.28,5.67c-.32.45-.63.9-1,1.33s-.68.88-1,1.31a10.51,10.51,0,0,1-2.63,2.22,17.92,17.92,0,0,1-3,1.37,11.28,11.28,0,0,1-3.26.68l-.06-.2c1.83-1.19,3.55-2.36,5.23-3.59a28.14,28.14,0,0,0,2.28-1.91,24.3,24.3,0,0,0,2.19-2.23c.34-.39.66-.81,1-1.21s.64-.84.94-1.27.62-.86.9-1.3l.43-.67.4-.68a16.89,16.89,0,0,0,2.35-5.84Z"/><path fill="#695627" d="M600.1,479.06a12.4,12.4,0,0,1-1.13,4.78,23.18,23.18,0,0,1-2.42,4.32c-.47.68-.95,1.37-1.49,2a7.34,7.34,0,0,1-2,1.71,12.48,12.48,0,0,1-2.32,1,7.62,7.62,0,0,1-2.52.37l-.06-.2c1.32-1,2.56-2,3.79-2.89.56-.42,1.08-.89,1.66-1.39a15.75,15.75,0,0,0,1.66-1.61q.78-.88,1.47-1.83a23.12,23.12,0,0,0,1.33-1.95,12.83,12.83,0,0,0,1.84-4.32Z"/><path fill="#695627" d="M590.39,624.8a100.66,100.66,0,0,0,17-2.36l2.07-.47,2.07-.5c.7-.15,1.38-.33,2.07-.51l1-.24c.35-.08.64-.19,1-.28.64-.15,1.27-.42,1.91-.64s1.26-.51,1.88-.84a34.62,34.62,0,0,0,3.63-2.08,66,66,0,0,0,6.75-5.24c2.16-1.89,4.23-3.9,6.24-6a150.42,150.42,0,0,0,11.36-13.18l.3.21c-1.54,2.48-3.2,4.89-4.92,7.25s-3.52,4.67-5.4,6.93-3.85,4.43-5.94,6.51a67.22,67.22,0,0,1-6.72,5.85c-1.22.88-2.45,1.76-3.77,2.53-.64.41-1.34.75-2,1.12s-1.4.69-2.15,1c-.37.12-.76.28-1.11.39l-1.07.32c-.72.19-1.43.43-2.16.58s-1.45.34-2.18.49l-2.21.37a52.08,52.08,0,0,1-8.91.54,33.25,33.25,0,0,1-8.81-1.37Z"/><path fill="#695627" d="M664.84,624.11c-4,2-7.76,4.42-11.79,6.51a44.69,44.69,0,0,1-6.33,2.72,22.74,22.74,0,0,1-7,1.17,27.07,27.07,0,0,1-7.08-1.11,32,32,0,0,1-6.42-2.64,51.85,51.85,0,0,1-5.78-3.68,37.46,37.46,0,0,1-5.16-4.52l.2-.29c4.26,1.64,8.28,3.52,12.32,5.23q3,1.31,6,2.51a20.83,20.83,0,0,0,6,1.61,20,20,0,0,0,6.26-.6,43.58,43.58,0,0,0,6.23-2c2.06-.82,4.1-1.73,6.15-2.64s4.12-1.82,6.25-2.56Z"/><path fill="#695627" d="M619.13,586.38a53.47,53.47,0,0,0,2,7c.39,1.14.83,2.26,1.28,3.37s.92,2.22,1.44,3.31a35.07,35.07,0,0,0,1.7,3.14c.6,1,1.13,2.06,1.62,3.06,1,2.05,2.14,4.1,3.2,6.48l-.24.27a11.91,11.91,0,0,1-3.37-2,15.77,15.77,0,0,1-2.68-2.85c-1.6-2.16-2.16-4.67-2.93-7-.38-1.19-.71-2.4-1-3.61s-.54-2.44-.74-3.67a39.43,39.43,0,0,1-.58-7.42Z"/><path fill="#695627" d="M517,565.62c3.26,8.19,6.15,16.53,10.33,24.09a59.78,59.78,0,0,0,7.18,10.55,71.8,71.8,0,0,0,9.16,8.86,90,90,0,0,0,10.52,7.34c1.79,1.15,3.66,2.19,5.46,3.32s3.66,2.2,5.52,3.24,3.72,2.1,5.58,3.17c.94.52,1.91,1,2.85,1.51l1.43.76c.47.26,1,.48,1.44.73,1,.48,1.94,1,2.9,1.48s2,.93,2.95,1.41l1.48.74c.49.23,1,.45,1.49.69,1,.47,2,1,3,1.48l-.16.65c-1.12,0-2.24-.12-3.37-.21-.56,0-1.13-.1-1.69-.16l-1.67-.26c-1.11-.18-2.22-.37-3.33-.58s-2.2-.53-3.29-.81c-.55-.14-1.1-.27-1.64-.43l-1.62-.51c-1.07-.35-2.15-.69-3.22-1.08l-3.16-1.25c-1.05-.41-2.06-.92-3.1-1.38a67.48,67.48,0,0,1-6-3.19c-1-.6-1.91-1.22-2.86-1.84-.47-.31-.93-.64-1.39-1l-1.37-1a127.41,127.41,0,0,1-10.32-8.8A76.45,76.45,0,0,1,531,603a63.5,63.5,0,0,1-6.68-11.83c-3.6-8.26-5.71-16.87-8-25.36Z"/><path fill="#9fb432" d="M607.88,661c2.65,12.29-6.62,27.86-15.91,31.12-14.92,5.22-16.72-6.45-30.47-1.53-10.59,3.8-8.5,19.12-31.31,18.85-9.21-.11-22.74-8.73-25.45-25.82s4.7-27.17,11.07-29.38c8.14-2.82,5.42-25.71,29.92-31s26.5,16.75,31.19,15.06c17.39-6.26,28.32,10.39,31,22.68Z"/><path fill="#9fb432" d="M581.81,637.09a30.34,30.34,0,0,1,2.26,6.57h0c2.11,9.79-5.28,22.2-12.68,24.8-11.89,4.16-13.32-5.14-24.28-1.21-8.44,3-6.78,15.23-25,15-5.6-.07-13.19-4.08-17.45-12a40,40,0,0,0,0,13.34c2.71,17.09,16.24,25.71,25.45,25.82,22.81.27,20.72-15,31.31-18.85,13.75-4.92,15.55,6.75,30.47,1.53,9.29-3.26,18.56-18.83,15.91-31.12h0C605.5,649.88,596.36,635.23,581.81,637.09Z" opacity=".29"/><path fill="#695627" d="M477.49,611c2.27,1.67,4.56,3.3,6.93,4.75a37.68,37.68,0,0,0,7.45,3.56,30.56,30.56,0,0,0,7.95,1.58,35.87,35.87,0,0,0,8.08-.36,33.36,33.36,0,0,0,7.73-2.18c2.47-1,4.87-2.18,7.31-3.42,4.88-2.48,9.82-5.37,15.23-7.33l.21.35c-2.08,2-4.24,3.8-6.45,5.58a73.65,73.65,0,0,1-7,5,33.5,33.5,0,0,1-8,3.68,43.54,43.54,0,0,1-8.7,1.61,40.1,40.1,0,0,1-8.76-.19,32.61,32.61,0,0,1-8.42-2.4,39,39,0,0,1-7.4-4.42,77.6,77.6,0,0,1-6.48-5.49Z"/><path fill="#695627" d="M536.6,696.56l.37,1a3.85,3.85,0,0,0,.19.47l.23.46.45.91.52.88a32.43,32.43,0,0,0,2.33,3.36,47.62,47.62,0,0,0,5.6,5.93,50.79,50.79,0,0,0,6.38,4.93l1.69,1c.57.31,1.13.65,1.71.94l.87.42c.28.14.57.28.9.42l1.88.83c2.52,1.1,5.13,2,7.71,2.85s5.12,1.81,7.6,2.86,5,2.08,7.48,3.08,5.06,1.94,7.83,2.81l0,.67a22.22,22.22,0,0,1-8.81,1.17,41.8,41.8,0,0,1-8.66-1.36,38.2,38.2,0,0,1-8.06-3.11c-2.56-1.32-5-2.77-7.51-4.16-.62-.34-1.24-.71-1.85-1.06-.31-.17-.63-.37-1-.58l-1-.6c-.63-.41-1.22-.86-1.83-1.28L550,718a53.46,53.46,0,0,1-6.13-6.19,46.78,46.78,0,0,1-4.93-7.09,24.71,24.71,0,0,1-3-8Z"/><path fill="#695627" d="M579,675.91a82.67,82.67,0,0,1,2.83,12.78,61,61,0,0,1,.51,6.67,35.57,35.57,0,0,1-.6,6.9c-.1.59-.26,1.19-.4,1.78l-.46,1.69-.48,1.63-.51,1.6a29.22,29.22,0,0,1-2.81,5.95,45.53,45.53,0,0,1-3.85,5.35,30.38,30.38,0,0,1-4.87,4.73l-.58-.33A36.59,36.59,0,0,1,569,718c.58-2.1,1.27-4.14,2-6.13a39.68,39.68,0,0,1,2.75-5.68,31.78,31.78,0,0,0,2.73-5.34,30.51,30.51,0,0,0,1.33-5.82,57.65,57.65,0,0,0,.6-6.23,124.94,124.94,0,0,0-.15-12.82Z"/><path fill="#85a800" d="M374.28,547.63c-5.95,26.58-35.54,49.43-54.59,47.9-30.57-2.47-23.68-27.11-52-29.17-21.76-1.59-31.3,30.51-70.94,10.4-16-8.12-32.25-36.8-22.28-72.92s31.61-49.72,44.63-48.62c16.67,1.41,31.6-46.2,79-35.58s31.9,55.87,41.56,56.56c35.8,2.54,40.57,44.86,34.61,71.43Z"/><path fill="#85a800" d="M349.26,478A73.61,73.61,0,0,1,347.55,493h0c-4.75,21.18-28.33,39.39-43.51,38.16-24.36-2-18.87-21.6-41.4-23.24-17.35-1.27-24.95,24.32-56.54,8.29-9.73-4.94-19.55-19.4-20.15-38.74a95.29,95.29,0,0,0-11.44,26.41c-10,36.12,6.26,64.8,22.28,72.92,39.64,20.11,49.18-12,70.94-10.4,28.28,2.06,21.39,26.7,52,29.17,19.05,1.53,48.64-21.32,54.59-47.9h0C379.66,523.64,376.29,486.83,349.26,478Z" opacity=".29"/><path fill="#695627" d="M226.44,917.84c12.74-25.94,39.94-33.73,35.19-98.52C257,756,263.25,688.38,263.89,657.39s2.1-118.12,2.61-146.64,9.24-33.44,9.24,2.78c0,9.49,16.12,164.36,21.15,220,5.71,63.15,11.72,87.92,20.45,121.67s49.2,67.24,31.1,65C282.76,911.84,220.6,929.72,226.44,917.84Z"/><path d="M226.44,917.84c12.74-25.94,39.94-33.73,35.19-98.52C257,756,263.25,688.38,263.89,657.39s2.1-118.12,2.61-146.64,3.8-4.79,3.8,31.43c0,9.48-2.95,134,2.08,189.57,5.71,63.15,6.71,97.26,5.92,132.44C277.51,899.05,220.6,929.72,226.44,917.84Z" style="mix-blend-mode:multiply" fill="#695627" opacity=".15"/><path fill="#85a800" d="M292.28,614.14C301.8,635,290,667,273.56,677c-26.33,16-29.94.45-54.19,15.37-18.66,11.48,8.09,56.13-45.15,67.67-17.52,3.8-51.33,5.8-70.61-26.9-16-27.19-26.13-61.89-11.82-93.42,9.66-21.27,21.58-56.49,66.06-76.78s55.94,17,72.1,18.29c38.83,3,52.81,12.06,62.33,32.93Z"/><path d="M292.28,614.14h0a56,56,0,0,0-9-14.28c-4,10.57-10.51,19.7-18,24.24-26.34,16-29.95.45-54.19,15.37C192.48,651,219.22,695.59,166,707.14c-17.51,3.79-51.33,5.79-70.6-26.91a154.35,154.35,0,0,1-9.69-19.33c-3.46,25.26,5.43,51,17.92,72.22,19.28,32.7,53.09,30.7,70.61,26.9,53.24-11.54,26.49-56.19,45.15-67.67,24.25-14.92,27.86.6,54.19-15.37C290,667,301.8,635,292.28,614.14Z" style="mix-blend-mode:multiply" fill="#85a800" opacity=".26"/><path fill="#695627" d="M218.27,500.74c.9,3.61,2.16,7.1,3.37,10.59q.92,2.61,1.91,5.19c.63,1.73,1.28,3.45,2,5.14s1.42,3.37,2.11,5c.36.81.73,1.61,1.11,2.37a17,17,0,0,0,1.16,2l.73,1c.25.36.51.69.77,1,.52.68,1.06,1.34,1.61,2a32.6,32.6,0,0,0,3.46,3.58,25.19,25.19,0,0,0,8.21,4.88,37,37,0,0,0,9.74,2l1.31.11h.17l.23,0,.48.05c.32,0,.63.08.95.15a15.21,15.21,0,0,1,3.65,1.15,19,19,0,0,1,5.84,4.2,27.44,27.44,0,0,1,3.9,5.35q.8,1.41,1.44,2.85c.22.49.43,1,.63,1.48l.28.76c.1.28.18.48.3.87l-7-2c4.91-4.29,9.81-8.5,15-12.5,1.31-1,2.62-2,4-3l1-.73,1.09-.74,1.86-1.24a25.8,25.8,0,0,0,6.07-5.81,29,29,0,0,0,3.86-7.73,41.5,41.5,0,0,0,1.17-4.42c.17-.75.3-1.52.47-2.29l.4-2.38c.52-3.19,1-6.38,1.63-9.56s1.17-6.37,1.83-9.56l.5,0-1.58,19.3a58.46,58.46,0,0,1-1.36,9.63,36.59,36.59,0,0,1-1.49,4.66,29.4,29.4,0,0,1-2.26,4.35,28.69,28.69,0,0,1-6.66,7.15l-2,1.43c-.66.45-1.31.92-1.94,1.41-1.29,1-2.54,2-3.79,3-5,4.07-9.86,8.31-14.67,12.59l-.53.47-.24-.68a26.45,26.45,0,0,0-5.5-9.35,14.28,14.28,0,0,0-4.32-3.17,10.84,10.84,0,0,0-2.53-.82c-.86-.16-1.79-.21-2.73-.31a41.1,41.1,0,0,1-11-2.49,29.62,29.62,0,0,1-9.47-6,42,42,0,0,1-7-8.8,34.63,34.63,0,0,1-2.26-5.17c-.64-1.76-1.21-3.53-1.76-5.31-1.09-3.57-2-7.17-2.85-10.8a77.42,77.42,0,0,1-1.85-11Z"/><path fill="#695627" d="M317.34,516.47a22.76,22.76,0,0,1-2.22,8.58,44.67,44.67,0,0,1-4.47,7.72c-.43.61-.86,1.23-1.33,1.82s-.94,1.18-1.42,1.77a14.22,14.22,0,0,1-3.58,3,24.62,24.62,0,0,1-4.12,1.86,15.55,15.55,0,0,1-4.44.93l-.08-.27c2.49-1.63,4.83-3.22,7.12-4.89,1.07-.78,2.05-1.67,3.1-2.6a32.7,32.7,0,0,0,3-3c.47-.54.91-1.11,1.36-1.66s.87-1.14,1.28-1.72.84-1.17,1.22-1.78l.59-.9.55-.92a23.16,23.16,0,0,0,3.19-8Z"/><path fill="#695627" d="M248.09,500a22.34,22.34,0,0,1-2.22,8.58,44.12,44.12,0,0,1-4.47,7.73c-.43.61-.86,1.22-1.33,1.81s-.93,1.19-1.42,1.78a14,14,0,0,1-3.58,3,24.66,24.66,0,0,1-4.12,1.87,15.81,15.81,0,0,1-4.44.92l-.07-.27c2.48-1.62,4.83-3.22,7.12-4.89,1.07-.78,2-1.66,3.1-2.6a34,34,0,0,0,3-3c.47-.53.9-1.1,1.36-1.66s.87-1.13,1.28-1.72.84-1.16,1.22-1.77l.58-.9.55-.93a23.19,23.19,0,0,0,3.19-8Z"/><path fill="#695627" d="M272.46,693.69a137.27,137.27,0,0,0,23.16-3.22l2.83-.63,2.82-.68c.94-.2,1.87-.46,2.81-.69l1.41-.34c.48-.11.88-.25,1.32-.37.88-.21,1.73-.58,2.6-.87s1.72-.71,2.56-1.15a45.41,45.41,0,0,0,4.95-2.84,86.42,86.42,0,0,0,9.17-7.13c3-2.56,5.77-5.3,8.5-8.12a203.51,203.51,0,0,0,15.46-17.93l.41.28c-2.1,3.38-4.35,6.65-6.7,9.86s-4.78,6.37-7.34,9.43-5.24,6-8.09,8.87a89.62,89.62,0,0,1-9.15,8c-1.66,1.19-3.33,2.39-5.13,3.44-.87.56-1.82,1-2.74,1.53s-1.91.92-2.94,1.28c-.5.17-1,.39-1.51.53l-1.45.43c-1,.27-1.94.59-2.94.8s-2,.47-3,.66l-3,.51a69.35,69.35,0,0,1-12.13.73,44.69,44.69,0,0,1-12-1.86Z"/><path fill="#695627" d="M373.79,692.75c-5.44,2.73-10.56,6-16.05,8.86a59.53,59.53,0,0,1-8.61,3.7,30.93,30.93,0,0,1-9.54,1.6,36.78,36.78,0,0,1-9.63-1.52,42.71,42.71,0,0,1-8.74-3.59,69,69,0,0,1-7.87-5,51.81,51.81,0,0,1-7-6.14l.28-.41c5.8,2.24,11.27,4.8,16.76,7.12,2.74,1.18,5.45,2.33,8.15,3.41a28,28,0,0,0,8.22,2.2,27.29,27.29,0,0,0,8.52-.81,58.26,58.26,0,0,0,8.47-2.79c2.81-1.1,5.58-2.35,8.38-3.59s5.6-2.48,8.5-3.48Z"/><path fill="#695627" d="M311.58,641.4a73.21,73.21,0,0,0,2.68,9.54c.52,1.55,1.13,3.08,1.74,4.59s1.26,3,2,4.5a45.24,45.24,0,0,0,2.32,4.28c.81,1.39,1.53,2.8,2.19,4.17,1.35,2.78,2.92,5.58,4.36,8.81l-.33.36a15.9,15.9,0,0,1-4.58-2.73,21.36,21.36,0,0,1-3.65-3.88c-2.18-2.94-2.93-6.35-4-9.59-.52-1.62-1-3.27-1.39-4.91s-.74-3.32-1-5a53.6,53.6,0,0,1-.78-10.1Z"/><path fill="#695627" d="M172.51,613.14c4.44,11.15,8.37,22.5,14.06,32.79a81.17,81.17,0,0,0,9.77,14.35,97.48,97.48,0,0,0,12.46,12.07,121.89,121.89,0,0,0,14.32,10c2.45,1.57,5,3,7.44,4.52s5,3,7.51,4.4,5.06,2.87,7.6,4.32c1.27.71,2.59,1.34,3.87,2l1.94,1c.65.35,1.32.66,2,1,1.32.65,2.63,1.32,3.95,2s2.67,1.27,4,1.93l2,1,2,.94c1.36.64,2.73,1.3,4.09,2l-.22.89c-1.53,0-3.05-.16-4.58-.29-.77,0-1.54-.13-2.3-.21l-2.27-.35c-1.51-.25-3-.51-4.54-.8s-3-.71-4.48-1.09c-.74-.2-1.5-.37-2.23-.59l-2.2-.7c-1.46-.47-2.94-.93-4.38-1.47l-4.3-1.69c-1.44-.56-2.81-1.26-4.22-1.89a92.44,92.44,0,0,1-8.17-4.34c-1.31-.82-2.6-1.66-3.89-2.51-.65-.41-1.27-.86-1.89-1.33L218,689.81a174.46,174.46,0,0,1-14-12,102.88,102.88,0,0,1-12.39-13.78,85.63,85.63,0,0,1-9.1-16.11c-4.9-11.24-7.76-23-10.83-34.51Z"/><path fill="#85a800" d="M373.78,782.08c-5.69,16.13-26,28.14-37.83,25.73-19-3.87-12.89-18.72-30.51-22.17-13.57-2.65-21.92,16.66-45.36,1.09-9.47-6.29-17.56-25.43-8.65-47.21S275,710.9,283.06,712.58c10.37,2.15,23.25-26.42,52.24-16.19s15.95,37.3,22,38.47c22.32,4.31,22.21,31.09,16.51,47.22Z"/><path fill="#85a800" d="M363.17,736.73a46.15,46.15,0,0,1-2.18,9.19h0c-4.53,12.85-20.69,22.42-30.15,20.5-15.16-3.08-10.27-14.92-24.31-17.66-10.81-2.11-17.46,13.27-36.14.86-5.76-3.82-10.87-13.59-9.83-25.71a59.46,59.46,0,0,0-9.13,15.61c-8.91,21.78-.82,40.92,8.65,47.21,23.44,15.57,31.79-3.74,45.36-1.09,17.62,3.45,11.48,18.3,30.51,22.17,11.86,2.41,32.14-9.6,37.83-25.73h0C378.92,767.52,379.51,744.29,363.17,736.73Z" opacity=".29"/><path fill="#695627" d="M118.8,675c3.09,2.27,6.21,4.5,9.44,6.47a50.93,50.93,0,0,0,10.14,4.84,41.91,41.91,0,0,0,10.81,2.16,49.53,49.53,0,0,0,11-.5,45.45,45.45,0,0,0,10.51-3c3.36-1.37,6.62-3,9.95-4.66,6.64-3.37,13.36-7.31,20.73-10l.29.48c-2.84,2.7-5.77,5.18-8.78,7.59a100.82,100.82,0,0,1-9.47,6.81,45.75,45.75,0,0,1-10.87,5,58.06,58.06,0,0,1-11.84,2.18,52.93,52.93,0,0,1-11.93-.25,44.64,44.64,0,0,1-11.44-3.27,52.87,52.87,0,0,1-10.08-6,103.92,103.92,0,0,1-8.82-7.48Z"/><path fill="#695627" d="M324.65,778.45a119.52,119.52,0,0,1-2.5,17.6,84.78,84.78,0,0,1-2.49,8.75,52.21,52.21,0,0,1-3.93,8.58c-.4.7-.88,1.39-1.32,2.09l-1.34,2-1.34,1.87-1.37,1.82a40.61,40.61,0,0,1-6.18,6.38,62.45,62.45,0,0,1-7.15,5.13,40.7,40.7,0,0,1-8.1,3.91l-.56-.67A52,52,0,0,1,293,828c1.68-2.44,3.47-4.74,5.33-6.94a54.27,54.27,0,0,1,6-6,44.45,44.45,0,0,0,5.79-5.64,43.84,43.84,0,0,0,4.33-6.85,83.56,83.56,0,0,0,3.62-7.7c2.22-5.31,4.05-10.85,5.78-16.46Z"/><path fill="#85a800" d="M377.62,548.85a72.38,72.38,0,0,0-13.1,2.68c-63,19.45-36.83,47.16-63.85,42.93-37.77-5.91-42.59,36.42-36.1,49.79,19.95,41.13,65.26,19.19,79.45,33.44,19,19,22.38,40.21,40.18,50.32s45,6,70-11S486.31,625.2,463.47,591,377.62,548.85,377.62,548.85Z"/><path d="M468.69,689c-25,17-52.23,21.16-70,11s-21.21-31.28-40.18-50.32C344.3,635.42,299,657.37,279,616.24c-1.92-4-2.85-10.46-2.23-17.5-15.69,10.61-17,35.76-12.24,45.51,19.95,41.13,65.26,19.19,79.45,33.44,19,19,22.38,40.21,40.18,50.32s45,6,70-11c8-5.47,14.23-16.92,18.16-31.06A26.64,26.64,0,0,1,468.69,689Z" style="mix-blend-mode:multiply" fill="#85a800" opacity=".32"/><path fill="#85a800" d="M1295.07,739.49c4.68,13.07,3.63,32.14-.82,39.31-8.25,13.27-13.77.7-24,15.15-9.4,13.31.33,30.49-27.76,57.72-15.84,15.36-58.17,32.3-96.69,7.17-56.84-37.08-65.74-86.15-37.21-100.22,28.85-14.23-55.15-83.75,90.85-115,45.26-9.68,57,69.45,61.6,66.62,14.54-8.89,28.79,14.63,34,29.23Z"/><path fill="#85a800" d="M1265.81,708.46a94.49,94.49,0,0,1,5.31,10.61h0c6,14.34,4.6,33.38-1.18,39.6-10.74,11.55-17.89-2.49-31.25,9.82-12.34,11.37.34,31.08-36.62,52.53-15.58,9-48.7,15.43-86.26,5.17,5.66,11.89,15.54,23.22,30,32.65,38.52,25.13,80.85,8.19,96.69-7.17,28.09-27.23,18.36-44.41,27.76-57.72,10.22-14.45,15.74-1.88,24-15.15,4.45-7.17,5.5-26.24.82-39.31h0C1290.37,726.38,1278.61,706.43,1265.81,708.46Z" opacity=".29"/><path fill="#695627" d="M1289.51,1080c14.44-29.39,57.44-35.72,52.06-109.13-5.26-71.76-10.34-150.88-9.62-186s2.39-133.84,3-166.15,10.46-37.89,10.46,3.15c0,10.75,18.28,186.24,24,249.25,6.47,71.56,13.27,99.62,23.16,137.87s55.75,76.19,35.25,73.6C1353.34,1073.2,1282.89,1093.46,1289.51,1080Z"/><path d="M1364.22,969.63c0-77-15.72-149.51-15-184.63s-7.4-109-6.82-141.36,3-62.81,3-21.77c0,10.75,18.28,186.24,24,249.25,6.47,71.56,13.27,99.62,23.16,137.87s55.86,75.18,35.25,73.6C1379.08,1078.87,1364.22,1067.25,1364.22,969.63Z" style="mix-blend-mode:multiply" fill="#695627" opacity=".14"/><path fill="#85a800" d="M1225.94,612.78c5.52,25.27,35.45,45.58,55.09,43,31.51-4.13,24.59-20.5,53.73-24.12,22.43-2.78,29.08,55.73,79.61,28.86,16.63-8.85,45.33-30.67,40.21-73.31-4.26-35.46-18.09-73.48-49.72-91.62-21.35-12.24-53.39-35.35-102.36-22.4s-34.58,54.27-46.89,66.68c-29.59,29.81-35.2,47.64-29.67,72.91Z"/><path d="M1225.94,612.78h0a69,69,0,0,1-1.79-19c9.94,6.64,21,10.24,30,9.06,31.51-4.13,24.59-20.5,53.73-24.12,22.44-2.79,29.08,55.73,79.61,28.85,16.63-8.84,45.33-30.67,40.21-73.31a191.2,191.2,0,0,0-4.41-24c18.85,20.13,28,49.32,31.31,77,5.12,42.64-23.58,64.46-40.21,73.31-50.53,26.87-57.18-31.64-79.61-28.86-29.14,3.62-22.22,20-53.73,24.12C1261.39,658.36,1231.46,638.05,1225.94,612.78Z" style="mix-blend-mode:multiply" fill="#85a800" opacity=".26"/><path fill="#695627" d="M1280.26,607.37c1,4.09,2.44,8,3.82,12q1,3,2.16,5.89c.72,2,1.45,3.9,2.22,5.83s1.61,3.8,2.4,5.66c.41.92.82,1.84,1.26,2.7a19,19,0,0,0,1.31,2.28l.82,1.16c.28.41.58.78.87,1.18.59.77,1.21,1.52,1.83,2.25a35.83,35.83,0,0,0,3.92,4,28.18,28.18,0,0,0,9.31,5.53,41.39,41.39,0,0,0,11,2.33l1.49.13h.19l.26,0,.54.06a10.09,10.09,0,0,1,1.08.17,17.27,17.27,0,0,1,4.13,1.3,21.4,21.4,0,0,1,6.63,4.76,31.7,31.7,0,0,1,4.41,6.06c.6,1.06,1.14,2.14,1.64,3.23.24.55.48,1.11.7,1.67l.33.87c.11.32.2.55.33,1l-4.22-5.48c5.57-4.86,7.37-6.37,13.28-10.9,1.48-1.14,3-2.27,4.52-3.38l1.17-.84,1.24-.83,2.11-1.41a29.68,29.68,0,0,0,6.88-6.58,33,33,0,0,0,4.37-8.76,47,47,0,0,0,1.33-5c.19-.86.34-1.73.53-2.6l.45-2.7c.6-3.61,1.17-7.23,1.84-10.84s1.33-7.22,2.09-10.82l.55,0-1.78,21.87a65.29,65.29,0,0,1-1.54,10.91,41,41,0,0,1-1.69,5.28,31,31,0,0,1-10.11,13l-2.25,1.62c-.74.51-1.47,1-2.19,1.6-1.46,1.1-2.88,2.24-4.3,3.39-5.65,4.61-11.16,9.41-16.62,14.27l-.6.53-.27-.78a29.86,29.86,0,0,0-6.24-10.59,16.19,16.19,0,0,0-4.88-3.59,12.12,12.12,0,0,0-2.88-.93c-1-.19-2-.24-3.09-.36a45.87,45.87,0,0,1-12.41-2.81,33.61,33.61,0,0,1-10.74-6.86,47.78,47.78,0,0,1-7.9-10,39.79,39.79,0,0,1-2.57-5.86c-.72-2-1.37-4-2-6q-1.85-6.06-3.23-12.23a87.66,87.66,0,0,1-2.09-12.5Z"/><path fill="#695627" d="M1392.51,625.2a25.57,25.57,0,0,1-2.51,9.72,49.92,49.92,0,0,1-5.07,8.75c-.49.69-1,1.39-1.5,2.06s-1.06,1.34-1.61,2a16.11,16.11,0,0,1-4.06,3.43,28.42,28.42,0,0,1-4.67,2.11,17.48,17.48,0,0,1-5,1.05L1368,654c2.82-1.84,5.48-3.64,8.07-5.54,1.21-.88,2.32-1.88,3.52-2.94a39,39,0,0,0,3.36-3.44c.54-.6,1-1.25,1.54-1.87s1-1.29,1.45-2,.95-1.32,1.38-2l.67-1,.62-1a26.26,26.26,0,0,0,3.62-9Z"/><path fill="#695627" d="M1314.05,606.58a25.62,25.62,0,0,1-2.51,9.72,50.29,50.29,0,0,1-5.07,8.75c-.49.69-1,1.39-1.51,2.05s-1,1.35-1.61,2a15.69,15.69,0,0,1-4,3.43,27.65,27.65,0,0,1-4.67,2.12,17.89,17.89,0,0,1-5,1.05l-.09-.31c2.82-1.84,5.48-3.65,8.07-5.54,1.21-.88,2.32-1.89,3.51-3a36.42,36.42,0,0,0,3.37-3.43c.53-.61,1-1.25,1.54-1.88s1-1.29,1.45-2,1-1.32,1.38-2l.67-1,.62-1a26.32,26.32,0,0,0,3.61-9Z"/><path fill="#695627" d="M1341.66,826a155.81,155.81,0,0,0,26.25-3.65l3.2-.72,3.19-.76c1.07-.23,2.13-.52,3.2-.79l1.6-.38c.54-.12,1-.28,1.49-.42,1-.24,2-.65,2.94-1s2-.8,2.9-1.3a50.63,50.63,0,0,0,5.61-3.21,98.64,98.64,0,0,0,10.4-8.08c3.34-2.91,6.53-6,9.63-9.21a230.85,230.85,0,0,0,17.51-20.31l.46.31c-2.37,3.83-4.92,7.54-7.58,11.18s-5.42,7.21-8.32,10.69-5.94,6.83-9.17,10a103.13,103.13,0,0,1-10.37,9,69.23,69.23,0,0,1-5.81,3.9c-1,.63-2.06,1.16-3.11,1.73s-2.16,1-3.32,1.45c-.57.2-1.17.44-1.71.6l-1.65.5c-1.11.3-2.2.66-3.33.9s-2.23.53-3.36.75l-3.4.58a79.17,79.17,0,0,1-13.76.82,50.48,50.48,0,0,1-13.58-2.11Z"/><path fill="#695627" d="M1443.19,812.48c-5.19,6.61-9.65,13.52-14.81,20.29a102.57,102.57,0,0,1-8.56,9.85,54.83,54.83,0,0,1-10.9,8.47,65.57,65.57,0,0,1-12.8,5.49,71.55,71.55,0,0,1-12.87,2.81,102.17,102.17,0,0,1-12.62.79,71.44,71.44,0,0,1-12.21-.91l.11-.6c8.47-2,16.7-3.46,24.83-5.17,4.07-.83,8.08-1.67,12.05-2.56a43,43,0,0,0,21.52-10.77,99.09,99.09,0,0,0,8.9-8.85c2.84-3.12,5.57-6.35,8.32-9.58s5.53-6.48,8.54-9.57Z"/><path fill="#695627" d="M1386,766.76a83.33,83.33,0,0,0,3,10.8c.6,1.77,1.28,3.5,2,5.21s1.42,3.43,2.22,5.1a53.83,53.83,0,0,0,2.62,4.85c.93,1.57,1.75,3.18,2.49,4.72,1.53,3.16,3.31,6.32,4.94,10l-.37.42a18.11,18.11,0,0,1-5.19-3.1,24,24,0,0,1-4.14-4.39c-2.47-3.34-3.32-7.2-4.52-10.87-.59-1.84-1.09-3.7-1.58-5.57s-.83-3.76-1.15-5.66a61.17,61.17,0,0,1-.88-11.45Z"/><path fill="#695627" d="M1228.41,734.74c5,12.63,9.48,25.5,15.93,37.15a92.32,92.32,0,0,0,11.07,16.27,110,110,0,0,0,14.12,13.67,139.32,139.32,0,0,0,16.22,11.32c2.78,1.77,5.66,3.37,8.44,5.12s5.63,3.39,8.5,5,5.74,3.25,8.62,4.89c1.44.81,2.93,1.52,4.38,2.33l2.2,1.18c.74.39,1.49.74,2.23,1.11,1.49.75,3,1.51,4.48,2.29s3,1.43,4.54,2.18l2.28,1.14c.77.35,1.54.69,2.31,1.06,1.54.73,3.09,1.47,4.63,2.28l-.24,1c-1.73-.06-3.46-.19-5.2-.33-.87-.06-1.73-.16-2.6-.24l-2.58-.4c-1.71-.28-3.43-.57-5.14-.9s-3.38-.81-5.07-1.24c-.84-.22-1.7-.42-2.53-.67l-2.49-.79c-1.66-.53-3.33-1.06-5-1.67l-4.87-1.92c-1.63-.63-3.19-1.42-4.78-2.13-3.2-1.44-6.23-3.18-9.26-4.92q-2.22-1.39-4.4-2.84c-.74-.48-1.45-1-2.15-1.51l-2.11-1.55A198.47,198.47,0,0,1,1264,808a117.9,117.9,0,0,1-14-15.61,98.21,98.21,0,0,1-10.31-18.26c-5.55-12.73-8.79-26-12.26-39.1Z"/><path fill="#695627" d="M1311.73,767.51c-.39,6.13-.56,12.33-1.54,18.14a45.28,45.28,0,0,1-2.08,8.27,47.24,47.24,0,0,1-3.4,7.34,51.47,51.47,0,0,1-4.37,6.43c-.76,1-1.58,2-2.35,3s-1.57,2-2.39,3-1.62,1.93-2.43,2.9c-.41.49-.85.93-1.26,1.41l-.63.71c-.21.24-.43.46-.65.69l-1.29,1.39-1.33,1.35-.66.7c-.23.22-.46.44-.68.67-.45.45-.91.91-1.35,1.41l.19.43c.59-.16,1.17-.36,1.75-.56l.87-.32.84-.38,1.66-.82c.54-.32,1.08-.64,1.61-1l.8-.5.77-.56c.51-.38,1-.75,1.53-1.16l1.46-1.26c.5-.41,1-.9,1.42-1.35a33,33,0,0,0,2.65-3c.41-.54.82-1.09,1.21-1.64a8.62,8.62,0,0,0,.58-.86l.56-.87a81.19,81.19,0,0,0,4-7.43,52.53,52.53,0,0,0,3.16-8.21,50.16,50.16,0,0,0,1.61-9.12,156.06,156.06,0,0,0,.08-18.73Z"/><path fill="#6d8f00" d="M1197.13,679.54a45.9,45.9,0,0,0-5.08,6.5c-21.89,34.21,1.15,36.2-13.15,45.19-20,12.57-5.73,33.67,2.52,37.11,25.39,10.56,38-17.66,50.24-16.93,16.31,1,26.16,9.17,38.44,6.56s23.4-15.47,28.47-33.25-20.78-54.48-44.79-60.72S1197.13,679.54,1197.13,679.54Z"/><path d="M1289,709.58c-4.51,16.83-14.83,28.88-26.4,31.17s-21-5.67-36.47-6.85c-11.55-.89-23.07,25.74-47.25,15.29-2.33-1-5.18-3.49-7.56-6.8-2.85,10.54,6,22,11.78,24.47,24.18,10.45,35.7-16.18,47.25-15.29,15.45,1.17,24.9,9.13,36.47,6.84s26.33-13.83,30.85-30.65c1.45-5.41,1.15-16.28-2.45-23.94C1295.1,704.77,1289.19,708.72,1289,709.58Z" style="mix-blend-mode:multiply" fill="#85a800" opacity=".32"/><path fill="#6d8f00" d="M1544.74,748a63.19,63.19,0,0,0-9.09-7.67c-48.29-33.3-53.25.24-65.19-21-16.68-29.65-48.92-9.7-54.7,2.2-17.75,36.61,22.56,56.19,20.41,74-2.86,23.75-15.77,37.8-13,55.81s20.65,34.76,46.31,42.86,81.82-28.14,93.11-62.92S1544.74,748,1544.74,748Z"/><path d="M1497,888.81c-25.66-8.1-43.57-24.85-46.31-42.86s10.17-32.06,13-55.81c2.14-17.77-38.17-37.35-20.41-74,1.71-3.53,5.74-7.76,11-11.2-16.06-5.11-34.35,7.84-38.56,16.52-17.75,36.61,22.56,56.19,20.41,74-2.86,23.75-15.77,37.8-13,55.81s20.65,34.76,46.31,42.86c8.25,2.6,19.66.62,31.72-4.43A24.63,24.63,0,0,1,1497,888.81Z" style="mix-blend-mode:multiply" fill="#6d8f00" opacity=".32"/><path fill="#85a800" d="M1511,793.67c-6.46,18.28-29.43,31.89-42.87,29.16-21.57-4.39-14.61-21.22-34.58-25.12-15.37-3-24.83,18.88-51.39,1.23-10.73-7.13-19.9-28.81-9.8-53.49S1399,713,1408.18,714.92c11.75,2.44,26.34-29.94,59.2-18.34s18.07,42.27,24.89,43.59c25.28,4.88,25.16,35.22,18.71,53.5Z"/><path fill="#85a800" d="M1499,742.29a51.86,51.86,0,0,1-2.47,10.41h0c-5.14,14.57-23.45,25.41-34.16,23.23-17.18-3.49-11.64-16.9-27.55-20-12.25-2.4-19.79,15-41,1-6.52-4.33-12.31-15.41-11.13-29.14a67.11,67.11,0,0,0-10.35,17.69c-10.1,24.68-.93,46.36,9.8,53.49,26.56,17.65,36-4.23,51.39-1.23,20,3.9,13,20.73,34.58,25.12,13.44,2.73,36.41-10.88,42.87-29.16h0C1516.8,777.17,1517.47,750.85,1499,742.29Z" opacity=".29"/><path fill="#695627" d="M1167.55,804.79c3.5,2.57,7,5.09,10.7,7.33a57.78,57.78,0,0,0,11.48,5.48,47,47,0,0,0,12.25,2.45,56.11,56.11,0,0,0,12.48-.56,51.67,51.67,0,0,0,11.91-3.36c3.81-1.55,7.5-3.37,11.27-5.28,7.53-3.82,15.14-8.28,23.49-11.3l.33.54c-3.21,3-6.54,5.86-10,8.6a113.29,113.29,0,0,1-10.73,7.71,51.64,51.64,0,0,1-12.31,5.68,66.72,66.72,0,0,1-13.42,2.47,60,60,0,0,1-13.52-.29,51,51,0,0,1-13-3.69,60.34,60.34,0,0,1-11.41-6.82,118,118,0,0,1-10-8.47Z"/><path fill="#5b481e" d="M1403.16,922.19a121,121,0,0,1-2.58,18.11,90.37,90.37,0,0,1-2.55,9,53.52,53.52,0,0,1-4,8.82c-.41.73-.9,1.44-1.35,2.16l-1.38,2-1.38,1.93-1.41,1.87a42,42,0,0,1-6.35,6.56,64.12,64.12,0,0,1-7.37,5.28,41.38,41.38,0,0,1-8.33,4l-.58-.69a53.68,53.68,0,0,1,4.73-8.15c1.73-2.51,3.57-4.87,5.48-7.14a57.38,57.38,0,0,1,6.15-6.22,46.42,46.42,0,0,0,6-5.8,44.74,44.74,0,0,0,4.46-7.05,87.09,87.09,0,0,0,3.72-7.92c2.28-5.46,4.16-11.16,6-16.93Z"/><path fill="#85a800" d="M1435.57,938.89c-3.22,9.12-14.68,15.9-21.39,14.54-10.76-2.19-7.29-10.58-17.25-12.53-7.67-1.5-12.39,9.42-25.64.61-5.35-3.55-9.93-14.37-4.89-26.68s13.3-16.18,17.88-15.23c5.86,1.21,13.14-14.94,29.54-9.16s9,21.09,12.42,21.75c12.61,2.44,12.55,17.58,9.33,26.7Z"/><path fill="#85a800" d="M1429.57,913.25a26.47,26.47,0,0,1-1.23,5.19h0c-2.57,7.27-11.7,12.68-17,11.59-8.57-1.74-5.8-8.43-13.74-10-6.11-1.2-9.88,7.5-20.44.49-3.25-2.16-6.14-7.69-5.55-14.54a33.71,33.71,0,0,0-5.16,8.83c-5,12.31-.46,23.13,4.89,26.68,13.25,8.81,18-2.11,25.64-.61,10,2,6.49,10.34,17.25,12.53,6.71,1.36,18.17-5.42,21.39-14.54h0C1438.47,930.65,1438.81,917.52,1429.57,913.25Z" opacity=".29"/><path fill="#6d8f00" d="M1184.12,789.92c10.91,5.13,17.9,20.19,15.38,28.34-4,13.07-14,7.72-17.69,19.84-2.81,9.32,10.14,16.53-2.43,31.87-5.07,6.2-19.06,10.53-33.7,2.75s-18.42-18.5-16.67-24.07c2.23-7.12-16.89-18.16-7.68-37.77s27.28-8.56,28.52-12.7c4.59-15.34,23.36-13.38,34.27-8.26Z"/><path fill="#85a800" d="M1151.57,794.18a31.82,31.82,0,0,1,6.29,2.17h0c8.7,4.08,14.27,16.09,12.26,22.58-3.23,10.42-11.18,6.15-14.09,15.81-2.24,7.43,8.08,13.17-1.94,25.4-3.08,3.76-10.29,6.66-18.72,5.08a41.77,41.77,0,0,0,10.31,7.5c14.64,7.78,28.63,3.45,33.7-2.75,12.57-15.34-.38-22.55,2.43-31.87,3.66-12.12,13.64-6.77,17.69-19.84,2.52-8.15-4.47-23.21-15.38-28.34h0C1174.27,785.3,1158,783.25,1151.57,794.18Z" opacity=".29"/><path fill="#6d8f00" d="M1417.44,780.43a45.67,45.67,0,0,1,6.35,7.87c25.09,39.82-4.89,46.74,12.63,54.83,23.58,10.89,3.53,37.52-6.89,43-31.87,16.59-46.32-12.06-62-8.73-21.13,4.48-33.85,15.85-50,15.51-16.35-.35-32.23-12.92-40.79-33.35-6.47-15.43-2.28-39,29.61-58.6,10.59-6.5-2.08-33.43,29.9-40.52,33.37-7.39,37.7,21.64,40.47,19.78C1401.06,763.84,1417.44,780.43,1417.44,780.43Z"/><path d="M1280.91,835.17c8.66,21.49,24.8,34.82,41.47,35.35,16.42.52,29.45-11.26,51-15.74,16-3.33,30.54,26.8,63.1,9.77,3.15-1.65,7.13-5.19,10.59-9.64,2.64,12.12-10,27.21-17.56,31.17-31.87,16.59-46.32-12.07-62-8.73-21.13,4.48-33.85,15.85-50,15.51-16.35-.35-32.23-12.92-40.79-33.35-2.85-6.78-1.38-16.86,3.11-28A19.57,19.57,0,0,0,1280.91,835.17Z" style="mix-blend-mode:multiply" fill="#6d8f00" opacity=".32"/><path fill="#6d9600" d="M820.43,1080.55c31.34,7.7,71.91,8.28,124.25,1.47,30-3.9,39-16.75,38.23-21.88-1.2-8-12.91-12.59-28.11-11.94,0-.25,0-.5,0-.75a20,20,0,0,0,6.11-12c1.08-9.61-5.84-17.81-16.07-19.71,16.46-10,25.08-26.15,18.74-36.34-4.49-7.24-15.26-9.38-27.24-6.44-3.69-21.69-30.05-39-63.21-39-37,0-65.29,21.43-63.27,46.47a31.73,31.73,0,0,0,1.21,6.43c-8.77-.62-15.52,1.51-17.67,6.32-3.19,7.17,4.86,17.81,18.27,25.52-7.57,1.38-12.73,5.31-12.27,9.89.27,2.75,2.53,5.23,6,7.05-9.67,2.53-16.59,8.55-17.66,16.49C786.47,1061,800,1075.53,820.43,1080.55Z"/><g style="mix-blend-mode:screen" opacity=".44"><path fill="#6d9600" d="M799.4,1027.49a20,20,0,0,1,9.51-4.07c-1.41-.8-2.75-1.64-4-2.49C801.68,1022.6,799.65,1024.91,799.4,1027.49Z"/><path fill="#6d9600" d="M869.65,939.77c32.94,0,59.2,17.08,63,38.48,11.89-2.91,22.6-.79,27.1,6.35,3.61,5.72,2.41,13.38-2.29,20.71,7.71-8.78,10.57-18.82,6.15-25.92S948.31,970,936.33,973c-3.69-21.69-30.05-39-63.21-39-29,0-52.85,13.29-60.66,31.23C822.26,950.27,843.91,939.76,869.65,939.77Z"/><path fill="#6d9600" d="M947.25,1016.33a58.37,58.37,0,0,1-6,4.17c10.18,1.87,17.09,10,16.07,19.47a19.58,19.58,0,0,1-6,11.86c0,.25,0,.5,0,.74,15.1-.64,26.76,3.93,28,11.81a7.9,7.9,0,0,1-1.49,5.12c4-3.66,5.41-7.2,5.09-9.36-1.2-8-12.91-12.59-28.1-11.94,0-.25,0-.5,0-.75a20,20,0,0,0,6.11-12C961.89,1026.62,956.13,1019,947.25,1016.33Z"/><path fill="#6d9600" d="M808.2,992c1.69-1.5,3.07-3.36,2.86-5.12-9.59,0-15.86,2.26-17.67,6.32a8,8,0,0,0-.62,2.25C795.91,992.66,801.45,991.5,808.2,992Z"/><path fill="#6d9600" d="M802.69,1040.15a15,15,0,0,1-3.35-2.32c-5.15,2.49-9,6.19-10.73,10.72C791.72,1044.64,796.67,1041.72,802.69,1040.15Z"/></g><g style="mix-blend-mode:multiply" opacity=".44"><path fill="#6d9600" d="M956.56,1040.16c1.07-.05,2.13-.06,3.17-.05a18.49,18.49,0,0,0,1.17-4.67,18.3,18.3,0,0,0,.09-2.33,21.19,21.19,0,0,1-4.44,6.31C956.56,1039.66,956.56,1039.91,956.56,1040.16Z"/><path fill="#6d9600" d="M982.91,1060.14a8.92,8.92,0,0,0-.74-2.42c-4,5.82-14.43,13.16-35.61,16-51.34,6.75-91.11,6.18-121.78-1.46-20-5-33.15-19.36-31.91-28.17a15.56,15.56,0,0,1,.51-2.27,17,17,0,0,0-5.7,10.35c-1.21,8.9,12.33,23.41,32.75,28.43,31.34,7.7,71.91,8.28,124.25,1.47C974.67,1078.12,983.68,1065.27,982.91,1060.14Z"/><path fill="#6d9600" d="M799.39,1028.58a6.79,6.79,0,0,0,1.43,3.39,29.79,29.79,0,0,1,9.46-4.25c-3.2-1.72-5.32-4-5.72-6.62C801.1,1023,799.1,1025.66,799.39,1028.58Z"/></g><path fill="#6d9600" d="M790.08,1084.87c8.74,2.11,22.31-8.62,27.72-8.24,2.93.21,21.26,11.66,39.79,12,16.31.28,21.27-6.35,23.34-13.12,2.55-8.32-.87-18.31-10.26-17.92,0-.15,11.33-9.76,11.18-22.25-.2-17-20.34-23.89-27.32-22.21-3.46-12.22-13.66-19-33.07-19-8.18,0-31.4,6.73-26.75,20.19-5.34-.37-20.73-1.52-24.82,13.68-2.69,10,5.47,20.87,7.63,22-5.92,1.54-8.61,10.5-7.59,15.41C772,1075.22,777.21,1081.75,790.08,1084.87Z"/><path fill="#6d9600" d="M790,1084.07c8.75,2.12,22.34-8.64,27.76-8.25,2.93.21,21.28,11.68,39.83,12,16.33.28,21.29-6.36,23.37-13.15,2.55-8.34-.88-18.36-10.28-18,0-.15,11.35-9.78,11.2-22.31-.21-17-20.36-23.94-27.36-22.26-3.46-12.25-13.68-19.08-33.11-19.08-8.19,0-31.44,6.74-26.78,20.23-5.35-.36-20.76-1.52-24.84,13.72-2.7,10,5.47,20.92,7.63,22-5.93,1.53-8.62,10.52-7.6,15.44C771.87,1074.4,777.1,1081,790,1084.07Z"/><g style="mix-blend-mode:screen" opacity=".54"><path fill="#6d9600" d="M819.5,997.09c19.33,0,29.52,6.77,33,18.89,7-1.66,27,5.18,27.28,22a24.1,24.1,0,0,1-2.74,11.1c2.55-3.87,4.9-9,4.83-14.74-.21-17-20.36-23.94-27.36-22.26-3.46-12.25-13.68-19.08-33.11-19.08-7,0-25.18,5-27.19,15C799.35,1000.72,813.5,997.09,819.5,997.09Z"/><path fill="#6d9600" d="M775.85,1052.52a7.27,7.27,0,0,1-1.77-1.6,14.16,14.16,0,0,0-3.65,6.14A9.21,9.21,0,0,1,775.85,1052.52Z"/><path fill="#6d9600" d="M871.91,1056.72c-1.81,2.12-3.23,3.36-3.22,3.41,9.36-.4,12.79,9.53,10.28,17.79a22.22,22.22,0,0,1-1.09,2.87,18.76,18.76,0,0,0,3.06-6.13C883.37,1066.71,880.36,1057.24,871.91,1056.72Z"/><path fill="#6d9600" d="M792.89,1017.12a10.16,10.16,0,0,1-.58-4c-6.4-.26-18.37.43-22.28,13C775.7,1015.88,788.2,1016.8,792.89,1017.12Z"/></g><g style="mix-blend-mode:multiply" opacity=".15"><path fill="#6d9600" d="M782.3,1042.86c-2.17-1.12-10.34-12.17-7.56-22.39a22.17,22.17,0,0,1,1.1-3.11,17.6,17.6,0,0,0-6.07,9.64c-2.38,8.84,3.66,18.31,6.61,21.21C777.72,1045.64,779.71,1043.54,782.3,1042.86Z"/><path fill="#6d9600" d="M862.83,1082.28c-18.69-.32-37.1-12-40.05-12.19-5.46-.39-19.23,10.54-28,8.39-13-3.17-18.2-9.82-20.22-19.92a16.69,16.69,0,0,1,1.14-8.81c-4.71,2.66-6.78,10.31-5.87,14.72,2.07,9.93,7.3,16.48,20.18,19.6,8.75,2.12,22.34-8.64,27.76-8.25,2.93.21,21.28,11.68,39.83,12,12.92.22,18.7-3.87,21.59-9C875.6,1081,870.45,1082.41,862.83,1082.28Z"/></g><path fill="#6d9600" d="M896.18,1047.76c1.07,5,13,8.69,14.23,11.42.69,1.47-2.24,13.49,2.82,22.25,4.35,7.54,10.25,7.79,15.37,6.71,6.18-1.31,11.82-5.69,9.17-9.75.1-.05,9.12,2.27,16.92-1.25,10.31-4.66,9.85-15.22,7.22-17.88,6.58-4.61,8.35-10.82,3.92-19.59-1.9-3.75-11.64-13.07-19.12-7.69-1.1-2.65-4.27-10.4-15.55-8.85-7.66,1.05-13,7.81-13.18,9.16-2.77-2.59-10-1.71-13.32.06C897.91,1036,894.58,1040.38,896.18,1047.76Z"/><g style="mix-blend-mode:screen" opacity=".54"><path fill="#6d9600" d="M904.55,1035.1c3.29-1.76,10.52-2.64,13.28-.06.17-1.35,5.5-8.06,13.13-9.1,11.24-1.53,14.39,6.16,15.5,8.79,7.45-5.35,17.15,3.91,19,7.64a19.27,19.27,0,0,1,2.43,8.86c.79-3.27.15-7.07-2.11-11.56-1.9-3.75-11.64-13.07-19.12-7.69-1.1-2.65-4.27-10.4-15.55-8.85-7.66,1.05-13,7.81-13.18,9.16-2.77-2.59-10-1.71-13.32.06-6,3.21-9.26,7-8.83,13C896.43,1040.89,899.55,1037.77,904.55,1035.1Z"/><path fill="#6d9600" d="M910.4,1062.49c-.07,1.06-.15,2.32-.19,3.72C910.31,1064.59,910.42,1063.29,910.4,1062.49Z"/><path fill="#6d9600" d="M961.61,1061.82c1,1,1.63,3,1.58,5.43a11.31,11.31,0,0,0-.32-6.39C962.47,1061.18,962.05,1061.51,961.61,1061.82Z"/><path fill="#6d9600" d="M937.57,1080.82a3.9,3.9,0,0,1,.53,1.24,3.91,3.91,0,0,0,.3-1.1C937.89,1080.87,937.58,1080.81,937.57,1080.82Z"/></g><g style="mix-blend-mode:multiply" opacity=".25"><path fill="#6d9600" d="M964.52,1054.1a4.85,4.85,0,0,1,1.05,1.82,11.79,11.79,0,0,0,2.44-5A18.42,18.42,0,0,1,964.52,1054.1Z"/><path fill="#6d9600" d="M930.89,1083.38c-5.16,1.09-11.1.84-15.46-6.81-5.06-8.88-2.07-21.06-2.76-22.55-1.28-2.77-13.24-6.54-14.3-11.58a15.06,15.06,0,0,1-.3-4.92c-2.08,2.71-2.81,6-1.89,10.24,1.07,5,13,8.69,14.23,11.42.69,1.47-2.24,13.49,2.82,22.25,4.35,7.54,10.25,7.79,15.37,6.71,5.42-1.15,10.43-4.66,9.78-8.25A17.58,17.58,0,0,1,930.89,1083.38Z"/><path fill="#6d9600" d="M957.19,1072.23c-7.86,3.57-16.94,1.21-17,1.27,1.13,1.76.72,3.59-.59,5.2,3,.46,9.39,1,15.12-1.56a14.26,14.26,0,0,0,8.36-9.3A16,16,0,0,1,957.19,1072.23Z"/></g><path fill="#776500" d="M802.42,1078.79,817,1098c2.43,3.19,5.08,6.23,7.32,9.56s4.43,6.67,6.47,10.19a.15.15,0,0,1-.05.2.15.15,0,0,1-.16,0,43.1,43.1,0,0,1-4.48-4.16c-.7-.73-1.36-1.5-2-2.25l-2-2.32c-2.57-3.11-4.65-6.58-6.9-9.93l-6.63-10.09c-2.15-3.4-4.32-6.79-6.41-10.24a.14.14,0,0,1,0-.19A.14.14,0,0,1,802.42,1078.79Z"/><path fill="#776500" d="M817.76,1101.69a46.76,46.76,0,0,1,7.11-5.52,82.27,82.27,0,0,1,7.86-4.21l7.94-4.09c2.66-1.32,5.31-2.68,8-4a.14.14,0,0,1,.18.07.14.14,0,0,1,0,.17c-2.47,1.67-5,3.28-7.46,4.93l-7.52,4.8a81.07,81.07,0,0,1-7.59,4.69,47.55,47.55,0,0,1-8.34,3.37.14.14,0,0,1-.18-.1A.15.15,0,0,1,817.76,1101.69Z"/><path fill="#776500" d="M925.22,1084.49l-4.27,8.39-4.3,8.36c-.7,1.4-1.39,2.81-2,4.22a20.56,20.56,0,0,1-2.55,4.14,32.36,32.36,0,0,1-3.26,3.55,24.94,24.94,0,0,1-3.79,3,.14.14,0,0,1-.19-.2c1.6-2.78,3.35-5.33,5-7.92l4.92-7.84,5-8c1.73-2.63,3.44-5.26,5.22-7.85a.14.14,0,0,1,.24.14Z"/><path fill="#776500" d="M906.5,1078.87a40.24,40.24,0,0,1,3,5.9c.88,2,1.63,4.06,2.31,6.14s1.27,4.18,1.74,6.32a40.5,40.5,0,0,1,1,6.57,40.75,40.75,0,0,1-3.05-5.9c-.88-2-1.63-4.06-2.31-6.14a65,65,0,0,1-1.73-6.33A39.49,39.49,0,0,1,906.5,1078.87Z"/><path fill="#776500" d="M887.58,1080.84a36.94,36.94,0,0,1-.34,4.22l-.51,4.17-1.21,8.32a74.37,74.37,0,0,1-1.34,8.28,55.7,55.7,0,0,1-2.64,8,.14.14,0,0,1-.18.08.16.16,0,0,1-.09-.11,22.23,22.23,0,0,1-.16-4.3c0-1.42.19-2.82.36-4.21a69.84,69.84,0,0,1,1.88-8.19l2-8.15c.68-2.7,1.44-5.42,1.93-8.14v0a.14.14,0,0,1,.16-.11A.14.14,0,0,1,887.58,1080.84Z"/><path fill="#776500" d="M864.75,1082.19c1.74,1.48,3.42,3,5.13,4.5l5,4.59a47.42,47.42,0,0,1,4.92,4.69,28.15,28.15,0,0,1,3.83,5.74.14.14,0,0,1-.07.2.15.15,0,0,1-.13,0,28.26,28.26,0,0,1-5.61-4,48.5,48.5,0,0,1-4.53-5.07l-4.43-5.17c-1.44-1.76-2.91-3.49-4.32-5.27a.13.13,0,0,1,0-.19A.14.14,0,0,1,864.75,1082.19Z"/><path fill="#776500" d="M947.25,1080.91c-1.73,3-3.45,6-5.1,9s-3.31,6-4.78,9.14c-.75,1.56-1.31,3.1-2.09,4.73a33.72,33.72,0,0,1-2.68,4.57,34.87,34.87,0,0,1-7.16,7.74.15.15,0,0,1-.2,0,.14.14,0,0,1,0-.16h0c1.74-3,3.49-6,5.12-9l2.4-4.46c.76-1.46,1.7-3,2.57-4.53,1.79-3,3.67-5.93,5.61-8.8s4-5.68,6.09-8.43a.15.15,0,0,1,.2,0A.15.15,0,0,1,947.25,1080.91Z"/><path fill="#776500" d="M827.38,1051a135.28,135.28,0,0,0,3.14,16.69,81.69,81.69,0,0,0,2.64,8q1.46,4,3,8c2.05,5.29,4.31,10.51,6.09,15.9s3.56,10.8,4.91,16.37a.14.14,0,0,1-.1.17.13.13,0,0,1-.16-.07,168.58,168.58,0,0,1-7.19-15.51c-2.2-5.25-3.9-10.69-5.71-16.09-.89-2.7-1.79-5.4-2.65-8.12a79.36,79.36,0,0,1-2.28-8.3c-.58-2.81-1-5.64-1.3-8.47s-.56-5.68-.68-8.53a.13.13,0,0,1,.13-.14A.14.14,0,0,1,827.38,1051Z"/><path fill="#776500" d="M855.16,1084c.92,2.47,2.06,5,3.12,7.49l3.18,7.51a71.6,71.6,0,0,1,3.09,7.55,40.43,40.43,0,0,1,1.68,8.07.14.14,0,0,1-.26.09,39.55,39.55,0,0,1-4-7.2,67.63,67.63,0,0,1-2.57-7.75L857,1092l-1.11-3.93a40.71,40.71,0,0,1-1-4,.14.14,0,0,1,.11-.15.13.13,0,0,1,.14.09Z"/><path fill="#776500" d="M901.64,1080.49c-1,1.79-2.19,3.51-3.34,5.24s-2.4,3.38-3.7,5a25.65,25.65,0,0,1-4.21,4.69,16.14,16.14,0,0,1-2.76,1.71,6.72,6.72,0,0,1-3.24.76.15.15,0,0,1-.14-.15.12.12,0,0,1,0-.1l0,0a48.3,48.3,0,0,0,4.22-4.25c1.32-1.48,3-2.69,4.42-4.11s2.85-2.91,4.27-4.4,2.8-3,4.19-4.53a.13.13,0,0,1,.19,0A.14.14,0,0,1,901.64,1080.49Z"/><path fill="#9aa800" d="M982.77,960.93s-20.15,11-32.27.35c-16-14-5.69-34.09,2.47-34.79,16.33-1.38,8.72-12.12,16.33-19.65,8.85-8.76,29.14.83,29.14.83s-5.36-22.36-4-33.64,3.73-25.74,15.68-33.66,27.34-12,49.43-4.77,42.26,19.53,46,28.81,2.38,23.75-1,31.11-18.17,26.82-18.17,26.82,14.65-7.34,18.85-1.41a12.69,12.69,0,0,1,1.57,11.73,2.89,2.89,0,0,0,3.57,3.68c5.13-1.52,11.66-2.7,14.25.06,13.7,14.6-8.81,24.91-8.81,24.91s-1.83,10.12-28.07,10.26-49-10.59-49-10.59-15.25,13.86-34.76,13.78S982.77,960.93,982.77,960.93Z"/><path d="M1038.81,961a128.16,128.16,0,0,0,44.8,10.51c.43-8.51-13.08-13.07-8.93-13.76,6.46-1.07,9.13-11.77,7.35-14.16s-5.12-4.09-10.44-1.86a13.83,13.83,0,0,0-4.58,3.54,2,2,0,0,1-3.51-1.62l0-.11c.47-3.75-2.18-6.13-5.8-8-1.8-.93-4.79.15-7.33,1.48a2,2,0,0,1-2.83-2.44c2.27-6.78,5.92-18.23,6.57-23.34.95-7.49-1.57-21-7-28.64s-25.41-14.25-45.65-15.74c-2.06-.15-4-.19-5.91-.17-.45,2.53-.79,5-1.08,7.36-1.38,11.28,4,33.64,4,33.64s-20.29-9.59-29.14-.83c-6.33,6.26-2.15,14.73-9.94,18.21A215.61,215.61,0,0,0,969.44,946a2,2,0,0,1-2.9,2.63,56.54,56.54,0,0,0-4.82-3c-3.35-1.71-9.77,2.05-10.52,9.49a15.09,15.09,0,0,0,1.92,8c12.19,7.27,29.65-2.25,29.65-2.25s1.77,13.75,21.28,13.83S1038.81,961,1038.81,961Z" style="mix-blend-mode:multiply" fill="#83a802" opacity=".21"/><g style="mix-blend-mode:screen" opacity=".39"><path fill="#83a802" d="M996.44,909.67s-.28-1.18-.7-3.13c-5.82-2.24-19.57-6.5-26.44.3a11.92,11.92,0,0,0-1,1.14C977.57,900.75,996.44,909.67,996.44,909.67Z"/><path fill="#83a802" d="M1124.64,936.4c-2.59-2.76-9.12-1.58-14.25-.06a2.89,2.89,0,0,1-3.57-3.68,12.69,12.69,0,0,0-1.57-11.73c-4.2-5.93-18.85,1.41-18.85,1.41s14.8-19.46,18.17-26.82,4.74-21.84,1-31.11-23.91-21.62-46-28.81-37.49-3.16-49.43,4.77a27.67,27.67,0,0,0-5.34,4.63,27.46,27.46,0,0,1,3.34-2.63c11.94-7.93,27.34-12,49.43-4.77s42.26,19.53,46,28.81,2.38,23.75-1,31.11-18.17,26.82-18.17,26.82,14.65-7.34,18.85-1.41a12.69,12.69,0,0,1,1.57,11.73,2.89,2.89,0,0,0,3.57,3.68c5.13-1.52,11.66-2.7,14.25.06,6.81,7.26,4.67,13.45.8,17.84C1128.38,951.83,1132.56,944.84,1124.64,936.4Z"/><path fill="#83a802" d="M951,928.49c5.71-.48,8.49-2.11,10-4.35-1.7,1.19-4.2,2-8,2.35-2.09.18-4.31,1.63-6.2,3.92A8,8,0,0,1,951,928.49Z"/><path fill="#83a802" d="M1113.83,963.31a6.21,6.21,0,0,1-1.24,2.37,10.56,10.56,0,0,0,2.75-3.16C1114.42,963,1113.83,963.31,1113.83,963.31Z"/></g><path fill="#9aa800" d="M975.41,949.74c6.11-.85,11.55-13.21,15-14.47,1.89-.68,16.95,2.93,28.79-2.23,10.44-4.54,11.23-11.06,10.16-16.74-1.29-6.83-6.73-13-12.3-10.11-.06-.11,3.69-10-.36-18.4-5.3-11-18.84-10.07-22.37-7.17-5.25-6.77-12.74-8.34-23.59-3.34-4.58,2.1-16.09,12.34-10.41,19.87-3.14,1.17-12.21,4.46-11.26,15.85.65,7.77,8,13.35,9.58,13.56-3.2,2.77-2.69,10.2-.88,13.65C961.53,947.31,966.47,951,975.41,949.74Z"/><path d="M1014,933.72c-1.29-6.83-6.73-13-12.3-10.11-.06-.1,3.69-10-.36-18.4-5.31-11-18.85-10.07-22.38-7.17-4.67-6-11.13-7.92-20.14-4.74a7.42,7.42,0,0,0,1.5,3.85c-3.14,1.17-12.21,4.46-11.26,15.85.65,7.77,8,13.35,9.58,13.56-3.2,2.77-2.69,10.2-.88,13.65,3.73,7.1,8.67,10.77,17.61,9.53,6.11-.85,11.55-13.21,15-14.47,1.63-.58,13,2,23.76-.57C1014.15,934.38,1014.1,934.05,1014,933.72Z" style="mix-blend-mode:multiply" fill="#83a802" opacity=".21"/><g style="mix-blend-mode:screen" opacity=".38"><path fill="#83a802" d="M979.55,947.55c3.06-2.65,5.84-7.08,8.15-9.86C985.53,939.24,982.73,944,979.55,947.55Z"/><path fill="#9aa800" d="M1029.39,916.3c-1.29-6.83-6.73-13-12.3-10.11-.06-.11,3.69-10-.36-18.4-5.3-11-18.84-10.07-22.37-7.17-5.25-6.77-12.74-8.34-23.59-3.35a26.35,26.35,0,0,0-7.3,5.77,23.62,23.62,0,0,1,5.3-3.77c10.85-5,18.34-3.42,23.59,3.35,3.53-2.9,17.07-3.85,22.37,7.17,4,8.42.3,18.29.36,18.4,5.57-2.91,11,3.28,12.3,10.11.69,3.67.59,7.68-2.36,11.28C1029.92,925.51,1030.21,920.66,1029.39,916.3Z"/></g><path fill="#83a802" d="M961,892.64c0-6.38,4.18-11.14,9.26-15.11-4.73,2.52-14.83,11.87-10.26,19.07C961.33,895.9,961,894.84,961,892.64Z"/><path fill="#776500" d="M1058.83,940.4l-10.76,28.13c-.87,2.35-1.72,4.7-2.52,7.07a42.55,42.55,0,0,1-3.21,7,66,66,0,0,1-4.16,6.39,51.31,51.31,0,0,1-4.91,5.81.15.15,0,0,1-.2,0,.14.14,0,0,1,0-.16c2.32-4.5,4.71-8.87,6.86-13.33,1.08-2.22,2.14-4.44,3.09-6.68l3-6.92q3-6.91,6.16-13.77c2.12-4.55,4.21-9.12,6.39-13.64a.15.15,0,0,1,.19-.07A.16.16,0,0,1,1058.83,940.4Z"/><path fill="#776500" d="M1033.15,931.28a105.88,105.88,0,0,1,4.22,10.14q1.89,5.15,3.49,10.36t2.9,10.55a107.27,107.27,0,0,1,2.17,10.76A106.39,106.39,0,0,1,1041.7,963c-1.25-3.42-2.42-6.87-3.48-10.36s-2-7-2.9-10.54A109.75,109.75,0,0,1,1033.15,931.28Z"/><path fill="#776500" d="M1088.24,934.54c-2.13,5-4.21,10.11-6.18,15.21s-3.93,10.2-5.59,15.39q-.63,1.93-1.17,3.9c-.36,1.29-.81,2.64-1.22,4a66.11,66.11,0,0,1-3.12,7.71,68.06,68.06,0,0,1-8.72,14.08.13.13,0,0,1-.19,0,.13.13,0,0,1,0-.16h0c2.35-5,4.56-9.93,6.54-15q1.46-3.78,2.85-7.59c.88-2.52,1.83-5.15,2.84-7.71,2-5.14,4.21-10.17,6.48-15.17s4.72-9.91,7.27-14.76a.13.13,0,0,1,.18-.06A.14.14,0,0,1,1088.24,934.54Z"/><path fill="#776500" d="M988,930.36c1.43,2.71,3.08,5.33,4.65,8l4.83,7.89,9.63,15.79c3.2,5.27,6.61,10.42,9.51,15.87,1.46,2.72,2.9,5.45,4.24,8.24a91.23,91.23,0,0,1,3.72,8.53.13.13,0,0,1-.08.17.14.14,0,0,1-.17-.05c-3.53-5.09-6.88-10.26-10.1-15.51s-6-10.75-9-16.14l-8.92-16.21L992,938.76c-1.43-2.74-2.9-5.44-4.16-8.29a.14.14,0,0,1,.07-.18.14.14,0,0,1,.18.06Z"/><path fill="#776500" d="M1018.09,920.77c-.38,4.18-.83,8.36-1.23,12.53l-1.37,12.51c-.48,4.17-.72,8.37-1.51,12.49a93,93,0,0,1-3,12.27.13.13,0,0,1-.18.09.14.14,0,0,1-.09-.13,93,93,0,0,1,.55-12.62c.39-4.18,1.34-8.28,2-12.41l2.19-12.39c.78-4.13,1.51-8.26,2.33-12.38a.13.13,0,0,1,.16-.1A.13.13,0,0,1,1018.09,920.77Z"/><path fill="#776500" d="M969.88,937.21c2.91,2.34,5.83,4.68,8.8,6.94s5.91,4.53,8.94,6.69,6.22,4.07,9.19,6.22c1.5,1.06,3,2.1,4.54,3.08a17.21,17.21,0,0,0,4.88,2.36h0a.14.14,0,0,1,0,.27,11.09,11.09,0,0,1-5.75-.89,35.21,35.21,0,0,1-5.17-2.5,66.17,66.17,0,0,1-9.05-6.79q-4.34-3.6-8.48-7.39c-2.75-2.55-5.48-5.11-8.1-7.79a.14.14,0,0,1,.19-.2Z"/><path fill="#9aa800" d="M17.57,1041c19.28,11.12,58.19,0,58.19,0s0,17.51,37.82,20.55,61.1-21.91,61.1-21.91,32.31,19.6,48.73,12.48c15.64-6.79,17.37-17,15.37-24-.75-2.61-6.23-12.08-12.66-14.35a29.41,29.41,0,0,0-27.52-50.4c0-.38,0-.77,0-1.16a46.42,46.42,0,0,0-42.22-46.25A39.34,39.34,0,1,0,87.78,952c-10.06,3.64-17,11.69-17.06,21,0,.18,0,.35,0,.53-12.06,2-21.24,9.78-22.29,19.27a57,57,0,0,0-12.68-1.41c-19.3,0-34.95,9.22-34.95,20.61C.81,1016.41-1.7,1029.84,17.57,1041Z"/><g style="mix-blend-mode:screen" opacity=".26"><path fill="#97b22c" d="M84.32,958.94A42,42,0,0,1,81.68,955,23.11,23.11,0,0,0,71.4,968.14,27.89,27.89,0,0,1,84.32,958.94Z"/><path fill="#97b22c" d="M227.93,1014.54a29.83,29.83,0,0,1-5.26,6.05c6.42,2.28,11.91,11.74,12.65,14.36a16.82,16.82,0,0,1,.23,8.53,16.74,16.74,0,0,0,3.23-15.44C238.1,1025.68,233.55,1017.72,227.93,1014.54Z"/><path fill="#97b22c" d="M115.6,895.72A39.36,39.36,0,0,1,153,922.79,46.42,46.42,0,0,1,195.18,969c0,.4,0,.78,0,1.17a29.42,29.42,0,0,1,36,37.81,29.41,29.41,0,0,0-32.54-44.72c0-.38,0-.77,0-1.16a46.42,46.42,0,0,0-42.22-46.25,39.34,39.34,0,0,0-74.13-1.75A39.32,39.32,0,0,1,115.6,895.72Z"/><path fill="#97b22c" d="M32.32,998.37A56.49,56.49,0,0,1,45,999.78a17.31,17.31,0,0,1,2.46-7.1,56.79,56.79,0,0,0-11.69-1.22c-18,0-32.8,8-34.73,18.32C6.77,1003,18.62,998.36,32.32,998.37Z"/><path fill="#97b22c" d="M67.29,980.51c0-.18,0-.36,0-.54a18.82,18.82,0,0,1,1-5.85c-9.87,2.4-17.4,8.72-19.36,16.53C52.83,985.58,59.44,981.83,67.29,980.51Z"/></g><path d="M170.48,1010.54a35.68,35.68,0,0,0-8.61,1c0-.35,0-.69,0-1,0-21.52-19.51-39.2-44.43-41.09-4.85-12.48-17.81-21.85-33.62-23.69A38.7,38.7,0,0,0,87.78,952c-10.06,3.64-17,11.69-17.06,21,0,.18,0,.35,0,.53-12.06,2-21.24,9.78-22.29,19.27a56,56,0,0,0-9.51-1.32,33.49,33.49,0,0,0,6.32,10c-10.58,3.23-17.94,10.38-17.95,18.69,0,.16,0,.31,0,.47-9.45,1.35-17.21,5.51-21,11A39.48,39.48,0,0,0,17.57,1041c19.28,11.12,58.19,0,58.19,0s0,17.51,37.82,20.55,61.1-21.91,61.1-21.91a133,133,0,0,0,22.38,10.46,23.06,23.06,0,0,0,4.36-13.37C201.43,1022.25,187.58,1010.54,170.48,1010.54Z" style="mix-blend-mode:multiply" fill="#97b22c" opacity=".18"/><path fill="#9aa800" d="M31,1022.7c9.62,2.91,26.09-11.67,32.09-11.15,3.26.28,23.07,15.87,44.11,16.3,18.54.38,24.15-8.71,26.43-17.85,2.75-11-1.08-23.84-11.31-23.33,0-.2,12.26-12.25,12-27.47-.35-19.9-21-27.73-28.22-25.84-3.16-13.6-13.17-21-32.62-21-8.2,0-32.2,7.31-28.92,22.31-5.45-.41-21.11-1.71-27.46,15.79-4.33,11.94,2.77,25.21,4.93,26.58-6.61,1.91-10.93,13.26-10.59,19.59C12.16,1009.66,17,1018.46,31,1022.7Z"/><g style="mix-blend-mode:screen" opacity=".31"><path fill="#97b22c" d="M70.07,919.26c19.45,0,29.46,7.41,32.62,21,7.2-1.89,27.87,5.93,28.21,25.84a32.16,32.16,0,0,1-2.37,12.32c3-4.92,6-11.68,5.83-19.23-.35-19.9-21-27.73-28.22-25.84-3.16-13.6-13.17-21-32.62-21-7.31,0-27.2,5.83-29.07,17.74C50.92,922.83,64.34,919.26,70.07,919.26Z"/><path fill="#97b22c" d="M18.62,983.93a8.55,8.55,0,0,1-2.08-2.68,25.68,25.68,0,0,0-3.73,7.3A11.58,11.58,0,0,1,18.62,983.93Z"/><path fill="#97b22c" d="M41.15,941.57a11.92,11.92,0,0,1,.53-7.08c-6.83-.22-19.1,1-24.54,16-.05.13-.08.26-.13.38C24.4,940.22,36.5,941.22,41.15,941.57Z"/><path fill="#97b22c" d="M124.2,986.72a62.33,62.33,0,0,1-5.29,6.85c10.22-.51,14.05,12.35,11.31,23.34-.2.8-.43,1.61-.69,2.41a26,26,0,0,0,4.14-9.32C136.24,999.71,133,987.76,124.2,986.72Z"/></g><path d="M95.11,1007.38c0-.17,10.87-10.86,10.64-24.36-.31-17.66-18.65-24.61-25-22.93C77.91,948,69,941.45,51.78,941.45c-7.28,0-28.58,6.49-25.67,19.8a31.39,31.39,0,0,0-10.16.54c.87,7.82,4.65,14.3,6.12,15.24-6.61,1.91-10.93,13.26-10.59,19.59.68,13,5.5,21.83,19.56,26.08,9.62,2.91,26.09-11.67,32.09-11.15,3.15.27,21.81,14.88,42.08,16.21C107.49,1018.09,104.08,1006.94,95.11,1007.38Z" style="mix-blend-mode:multiply" fill="#97b22c" opacity=".28"/><path fill="#776500" d="M132.78,1059.2a93.43,93.43,0,0,1-.07,10.85c-.18,3.6-.51,7.18-.94,10.75s-1,7.12-1.64,10.66a91.48,91.48,0,0,1-2.52,10.56,93.62,93.62,0,0,1,.06-10.86c.18-3.59.52-7.17,1-10.74s1-7.13,1.64-10.66A91.48,91.48,0,0,1,132.78,1059.2Z"/><path fill="#776500" d="M35.24,1043.86c2.32,4.13,4.55,8.29,6.8,12.45s4.38,8.38,6.53,12.6l3.23,6.33c1,2,2.12,4,3.24,6.07,2.23,4.06,4.7,8,7,12.21a.17.17,0,0,1-.06.22.17.17,0,0,1-.18,0,43.62,43.62,0,0,1-5.12-5,54.43,54.43,0,0,1-4.38-5.72,35.25,35.25,0,0,1-3.43-6.42c-.86-2.2-1.73-4.37-2.66-6.54-1.84-4.34-3.74-8.66-5.65-13L35,1044a.16.16,0,0,1,.08-.21A.16.16,0,0,1,35.24,1043.86Z"/><path fill="#776500" d="M62,1035.66a84.43,84.43,0,0,1-2.19,10c-.89,3.27-1.92,6.48-3,9.67s-2.33,6.33-3.68,9.43a81.69,81.69,0,0,1-4.53,9.14,80.6,80.6,0,0,1,2.19-10c.88-3.27,1.91-6.48,3-9.67s2.34-6.33,3.7-9.43A79.93,79.93,0,0,1,62,1035.66Z"/><path fill="#776500" d="M93.86,1023.74c-.73,3.63-1.27,7.44-1.86,11.17l-1.82,11.21c-.62,3.74-1,7.53-1.94,11.2a66.53,66.53,0,0,1-3.62,10.86.16.16,0,0,1-.22.08.17.17,0,0,1-.09-.14,64.54,64.54,0,0,1,.82-11.42,110.46,110.46,0,0,1,2.56-11.08l2.75-11,1.48-5.5c.52-1.84,1-3.64,1.66-5.49a.16.16,0,0,1,.2-.09.17.17,0,0,1,.1.18Z"/><path fill="#776500" d="M197.19,1045.51c-1.74,4.78-3.58,9.53-5.4,14.28L186.1,1074c-1.94,4.71-3.67,9.52-6,14l-1.8,3.38c-.64,1.11-1.25,2.23-1.92,3.32a59.63,59.63,0,0,1-4.36,6.36.17.17,0,0,1-.23,0,.18.18,0,0,1,0-.18c1.66-4.87,3.53-9.57,5.48-14.26s4.4-9.14,6.59-13.73l13.12-27.54a.16.16,0,0,1,.21-.08A.15.15,0,0,1,197.19,1045.51Z"/><path fill="#776500" d="M183.67,1077.52a53.24,53.24,0,0,1-8.85-5.11,92.54,92.54,0,0,1-7.78-6.49l-7.68-6.61c-2.52-2.25-5.08-4.46-7.58-6.74a.17.17,0,0,1,0-.23.18.18,0,0,1,.21,0c2.81,1.88,5.57,3.83,8.36,5.74l8.27,5.86a92,92,0,0,1,8.17,6,53.21,53.21,0,0,1,7.09,7.36.17.17,0,0,1,0,.23A.17.17,0,0,1,183.67,1077.52Z"/><path fill="#776500" d="M73.17,1003.66a204.41,204.41,0,0,0,2.66,24.75c.73,4,1.78,8.07,2.79,12.1s2.1,8,3.2,12.06c2.2,8,4.58,16,6.43,24.12s3.7,16.25,5.07,24.5a.15.15,0,0,1-.13.18.14.14,0,0,1-.17-.1c-3-7.83-5.43-15.79-7.75-23.79s-4.17-16.14-6-24.26L76.47,1041c-.87-4.08-1.8-8.16-2.37-12.34s-.83-8.34-1-12.51-.27-8.34-.21-12.51a.16.16,0,0,1,.16-.16A.16.16,0,0,1,73.17,1003.66Z"/><path fill="#776500" d="M104.9,1051c1.08,3.93,2.43,7.92,3.7,11.86l3.78,11.89c1.25,4,2.76,7.85,3.67,11.91a80.9,80.9,0,0,1,2,12.38.17.17,0,0,1-.15.18.19.19,0,0,1-.15-.09,78.55,78.55,0,0,1-4.77-11.61c-1.35-3.94-2.08-8-3.06-12.09l-2.87-12.15-1.32-6.1c-.43-2.05-.9-4-1.16-6.18a.15.15,0,0,1,.3-.06Z"/><path fill="#95a816" d="M680.79,793.3c22,5.41,50.55,5.82,87.35,1,21.08-2.74,27.41-11.77,26.87-15.38-.84-5.6-9.07-8.85-19.76-8.4V770a14.08,14.08,0,0,0,4.29-8.44c.76-6.76-4.11-12.53-11.3-13.86,11.57-7,17.63-18.39,13.18-25.55-3.16-5.08-10.74-6.59-19.16-4.52-2.59-15.25-21.12-27.41-44.43-27.42-26,0-45.9,15.07-44.48,32.66a22.7,22.7,0,0,0,.85,4.52c-6.17-.43-10.91,1.07-12.42,4.45-2.25,5,3.42,12.52,12.84,17.94-5.32,1-9,3.73-8.62,7,.19,1.94,1.77,3.68,4.18,5-6.8,1.78-11.66,6-12.42,11.59C656.91,779.57,666.43,789.77,680.79,793.3Z"/><path d="M739.66,797.1v-.22a14.08,14.08,0,0,0,4.29-8.44c.76-6.76-4.1-12.52-11.29-13.86,11.57-7,17.63-18.39,13.17-25.55-3.16-5.08-10.73-6.59-19.15-4.52-2.59-15.25-21.13-27.41-44.44-27.42a66,66,0,0,0-8.67.58,21.71,21.71,0,0,0-.22,5.23,22.7,22.7,0,0,0,.85,4.52c-6.17-.43-10.91,1.07-12.42,4.45-2.25,5,3.42,12.52,12.84,17.94-5.32,1-9,3.73-8.62,7,.19,1.94,1.77,3.68,4.18,5-6.8,1.78-11.66,6-12.42,11.59-.85,6.26,8.67,16.46,23,20C696.77,797.23,716.17,798.51,739.66,797.1Z" style="mix-blend-mode:multiply" fill="#95a816" opacity=".36"/><g style="mix-blend-mode:screen" opacity=".44"><path fill="#95a816" d="M666,756a14.13,14.13,0,0,1,6.69-2.87c-1-.56-1.93-1.14-2.83-1.75C667.6,752.56,666.18,754.18,666,756Z"/><path fill="#95a816" d="M715.39,694.33c23.15,0,41.62,12,44.26,27,8.36-2,15.89-.55,19.05,4.47,2.54,4,1.69,9.4-1.61,14.56,5.42-6.18,7.43-13.24,4.33-18.23s-10.74-6.59-19.16-4.52c-2.59-15.25-21.12-27.41-44.43-27.42-20.4,0-37.15,9.34-42.65,22C682.07,701.71,697.29,694.32,715.39,694.33Z"/><path fill="#95a816" d="M769.94,748.15a39.73,39.73,0,0,1-4.21,2.93c7.15,1.32,12,7,11.29,13.69a13.79,13.79,0,0,1-4.23,8.34c0,.17,0,.35,0,.52,10.62-.45,18.82,2.76,19.68,8.3a5.51,5.51,0,0,1-1.05,3.6c2.8-2.57,3.81-5.06,3.58-6.58-.84-5.6-9.07-8.85-19.76-8.4V770a14.08,14.08,0,0,0,4.29-8.44C780.23,755.38,776.19,750,769.94,748.15Z"/><path fill="#95a816" d="M672.19,731c1.19-1.06,2.16-2.36,2-3.61-6.74,0-11.15,1.6-12.42,4.45a5.47,5.47,0,0,0-.44,1.58C663.55,731.51,667.44,730.69,672.19,731Z"/><path fill="#95a816" d="M668.31,764.9a10.83,10.83,0,0,1-2.35-1.63,14.49,14.49,0,0,0-7.54,7.53A18.46,18.46,0,0,1,668.31,764.9Z"/></g><path fill="#776500" d="M739,790.22,729.48,815c-.77,2.08-1.52,4.16-2.23,6.24a38.73,38.73,0,0,1-2.83,6.17,53.17,53.17,0,0,1-8,10.77.11.11,0,0,1-.17,0,.12.12,0,0,1,0-.15c2-4,4.15-7.82,6-11.76.94-2,1.9-3.9,2.73-5.89l2.67-6.11c1.79-4.07,3.6-8.11,5.43-12.15s3.72-8,5.65-12a.12.12,0,1,1,.22.1Z"/><path fill="#776500" d="M716.32,782.18c1.42,2.93,2.61,5.92,3.72,8.94s2.11,6.08,3.08,9.15,1.8,6.17,2.56,9.3,1.45,6.28,1.91,9.5a93.93,93.93,0,0,1-3.73-9c-1.12-3-2.11-6.07-3.07-9.14s-1.81-6.17-2.56-9.3A94.49,94.49,0,0,1,716.32,782.18Z"/><path fill="#776500" d="M764.92,785.05c-1.91,4.44-3.7,8.93-5.45,13.42s-3.47,9-4.93,13.58c-.75,2.29-1.32,4.59-2.11,6.93a56.58,56.58,0,0,1-2.76,6.8A60,60,0,0,1,742,838.21a.12.12,0,0,1-.17,0,.14.14,0,0,1,0-.15h0c2.08-4.38,4-8.77,5.77-13.22q1.29-3.35,2.52-6.7c.77-2.22,1.61-4.55,2.5-6.81,1.77-4.53,3.71-9,5.72-13.38s4.19-8.73,6.41-13a.12.12,0,0,1,.16-.05A.12.12,0,0,1,764.92,785.05Z"/><path fill="#776500" d="M676.51,781.37c1.25,2.39,2.69,4.71,4.09,7l4.27,7,8.5,13.94c2.83,4.65,5.83,9.19,8.4,14,1.28,2.4,2.55,4.82,3.73,7.28s2.32,4.95,3.29,7.52a.13.13,0,0,1-.08.16.13.13,0,0,1-.14,0c-3.12-4.49-6.07-9.05-8.92-13.69s-5.32-9.49-8-14.24L683.81,796l-3.84-7.2c-1.26-2.42-2.56-4.81-3.69-7.31a.13.13,0,0,1,.07-.16.12.12,0,0,1,.15.06Z"/><path fill="#776500" d="M703,772.9c-.33,3.69-.73,7.37-1.09,11.06l-1.2,11c-.42,3.67-.63,7.38-1.33,11a82.63,82.63,0,0,1-2.66,10.83.12.12,0,0,1-.24,0,82.63,82.63,0,0,1,.48-11.14c.35-3.69,1.19-7.3,1.82-10.95l1.93-10.93c.68-3.64,1.33-7.29,2-10.92a.12.12,0,0,1,.14-.1A.11.11,0,0,1,703,772.9Z"/><path fill="#776500" d="M660.48,787.41c2.57,2.06,5.14,4.12,7.76,6.12s5.22,4,7.9,5.91,5.48,3.58,8.11,5.48c1.32.94,2.65,1.86,4,2.72a15.07,15.07,0,0,0,4.31,2.08h0a.12.12,0,0,1,.09.15.11.11,0,0,1-.09.09,9.81,9.81,0,0,1-5.08-.78,31,31,0,0,1-4.56-2.21,58.53,58.53,0,0,1-8-6c-2.56-2.12-5-4.3-7.49-6.52s-4.83-4.52-7.14-6.87a.13.13,0,0,1,0-.18A.12.12,0,0,1,660.48,787.41Z"/><path fill="#95a816" d="M650,800.9s-10.52,5.74-16.86.18c-8.33-7.32-3-17.81,1.29-18.17,8.53-.72,4.56-6.33,8.53-10.26,4.62-4.58,15.22.43,15.22.43s-2.8-11.68-2.08-17.57,1.95-13.44,8.19-17.58,14.28-6.25,25.82-2.49,22.07,10.2,24,15,1.24,12.41-.53,16.25-9.49,14-9.49,14,7.65-3.83,9.85-.73a6.61,6.61,0,0,1,.82,6.12,1.51,1.51,0,0,0,1.86,1.93c2.68-.8,6.09-1.42,7.45,0,7.15,7.62-4.61,13-4.61,13s-1,5.29-14.66,5.36a66.25,66.25,0,0,1-25.56-5.53s-8,7.24-18.16,7.2S650,800.9,650,800.9Z"/><path d="M679.24,800.92a66.93,66.93,0,0,0,23.39,5.49c.23-4.44-6.83-6.82-4.66-7.18,3.38-.56,4.77-6.15,3.84-7.4s-2.68-2.14-5.45-1a7.09,7.09,0,0,0-2.39,1.85,1.06,1.06,0,0,1-1.84-.85v-.06c.25-2-1.14-3.2-3-4.18-.94-.48-2.5.08-3.83.78a1.05,1.05,0,0,1-1.47-1.28c1.18-3.54,3.09-9.52,3.43-12.19.5-3.91-.82-11-3.67-15s-13.27-7.44-23.85-8.22c-1.07-.08-2.1-.1-3.08-.09-.24,1.33-.42,2.62-.57,3.85-.72,5.89,2.08,17.57,2.08,17.57s-10.6-5-15.22-.43c-3.3,3.27-1.12,7.69-5.19,9.51A112.16,112.16,0,0,0,643,793.09a1.06,1.06,0,0,1-1.52,1.38,29,29,0,0,0-2.52-1.56c-1.75-.89-5.1,1.07-5.49,5a7.85,7.85,0,0,0,1,4.2c6.37,3.8,15.49-1.17,15.49-1.17s.92,7.18,11.11,7.22S679.24,800.92,679.24,800.92Z" style="mix-blend-mode:multiply" fill="#95a816" opacity=".21"/><g style="mix-blend-mode:screen" opacity=".39"><path fill="#95a816" d="M657.11,774.13s-.15-.62-.37-1.64c-3-1.17-10.22-3.4-13.81.16a5.76,5.76,0,0,0-.53.59C647.25,769.47,657.11,774.13,657.11,774.13Z"/><path fill="#95a816" d="M724.07,788.09c-1.36-1.45-4.77-.83-7.45,0a1.51,1.51,0,0,1-1.86-1.93,6.61,6.61,0,0,0-.82-6.12c-2.2-3.1-9.85.73-9.85.73s7.73-10.16,9.49-14,2.48-11.4.53-16.25-12.49-11.29-24-15-19.58-1.65-25.82,2.49a14.59,14.59,0,0,0-2.79,2.42,14.18,14.18,0,0,1,1.75-1.38c6.23-4.14,14.27-6.24,25.81-2.49s22.08,10.2,24,15,1.24,12.4-.52,16.25-9.49,14-9.49,14,7.65-3.83,9.84-.73a6.62,6.62,0,0,1,.82,6.12,1.51,1.51,0,0,0,1.87,1.93c2.68-.8,6.09-1.41,7.44,0,3.56,3.79,2.44,7,.42,9.32C726,796.15,728.2,792.49,724.07,788.09Z"/><path fill="#95a816" d="M633.36,784c3-.25,4.43-1.1,5.23-2.27a8.46,8.46,0,0,1-4.19,1.23,5,5,0,0,0-3.23,2.05A4.22,4.22,0,0,1,633.36,784Z"/><path fill="#95a816" d="M718.42,802.14a3.27,3.27,0,0,1-.65,1.23,5.52,5.52,0,0,0,1.44-1.64C718.73,802,718.42,802.14,718.42,802.14Z"/></g><path fill="#83a802" d="M367.66,882.64s-18.17,9.91-29.11.32c-14.39-12.64-5.12-30.76,2.23-31.38,14.73-1.25,7.87-10.93,14.73-17.73,8-7.9,26.28.76,26.28.76s-4.84-20.18-3.59-30.35,3.37-23.21,14.14-30.36,24.66-10.78,44.58-4.3,38.12,17.61,41.49,26,2.15,21.43-.9,28.07-16.39,24.18-16.39,24.18,13.21-6.62,17-1.26a11.45,11.45,0,0,1,1.42,10.57,2.61,2.61,0,0,0,3.22,3.32c4.63-1.37,10.51-2.44,12.86.06,12.35,13.16-8,22.46-8,22.46s-1.64,9.13-25.31,9.25-44.15-9.54-44.15-9.54-13.75,12.49-31.34,12.42S367.66,882.64,367.66,882.64Z"/><path d="M418.2,882.69a115.83,115.83,0,0,0,40.4,9.48c.39-7.68-11.79-11.79-8.05-12.42,5.83-1,8.24-10.61,6.63-12.77s-4.62-3.69-9.41-1.68a12.65,12.65,0,0,0-4.13,3.19,1.82,1.82,0,0,1-3.17-1.45l0-.1c.43-3.39-2-5.54-5.23-7.22-1.63-.84-4.33.14-6.62,1.33a1.81,1.81,0,0,1-2.54-2.2c2-6.11,5.33-16.44,5.92-21,.86-6.77-1.41-19-6.34-25.84s-22.92-12.85-41.17-14.19c-1.87-.14-3.63-.18-5.34-.16-.4,2.29-.71,4.53-1,6.64-1.25,10.17,3.59,30.35,3.59,30.35s-18.3-8.66-26.28-.76c-5.71,5.65-1.94,13.29-9,16.43a192.59,192.59,0,0,0,9.09,18.88,1.82,1.82,0,0,1-2.62,2.38c-1.67-1.12-3.3-2.15-4.35-2.69-3-1.53-8.81,1.85-9.48,8.57a13.49,13.49,0,0,0,1.73,7.25c11,6.55,26.74-2,26.74-2s1.6,12.4,19.2,12.47S418.2,882.69,418.2,882.69Z" style="mix-blend-mode:multiply" fill="#83a802" opacity=".21"/><g style="mix-blend-mode:screen" opacity=".39"><path fill="#83a802" d="M380,836.41s-.26-1.07-.63-2.82c-5.25-2-17.66-5.87-23.85.26a12.37,12.37,0,0,0-.92,1C363,828.36,380,836.41,380,836.41Z"/><path fill="#83a802" d="M495.62,860.52c-2.35-2.5-8.23-1.43-12.86-.06a2.61,2.61,0,0,1-3.22-3.32,11.45,11.45,0,0,0-1.42-10.57c-3.79-5.36-17,1.26-17,1.26s13.35-17.54,16.39-24.18,4.28-19.7.9-28.07-21.56-19.5-41.49-26-33.81-2.84-44.58,4.3a25.06,25.06,0,0,0-4.81,4.18,23.83,23.83,0,0,1,3-2.37c10.77-7.15,24.65-10.78,44.58-4.3s38.11,17.61,41.49,26,2.14,21.42-.9,28.06-16.39,24.19-16.39,24.19,13.21-6.62,17-1.27a11.45,11.45,0,0,1,1.42,10.57,2.61,2.61,0,0,0,3.21,3.33c4.63-1.38,10.52-2.44,12.86.05,6.14,6.54,4.21,12.13.72,16.09C499,874.43,502.75,868.12,495.62,860.52Z"/><path fill="#83a802" d="M339,853.38c5.15-.43,7.65-1.91,9-3.92-1.53,1.07-3.78,1.83-7.23,2.12-1.88.16-3.88,1.47-5.59,3.53A7.23,7.23,0,0,1,339,853.38Z"/><path fill="#83a802" d="M485.86,884.78a5.52,5.52,0,0,1-1.12,2.14,9.3,9.3,0,0,0,2.48-2.85C486.39,884.54,485.86,884.78,485.86,884.78Z"/></g><path fill="#83a802" d="M456.37,905.21c7,3.28,20.61-9,25.11-8.16,2.44.46,16.19,16,32,17.75,14,1.54,18.92-6.44,21.35-14.65,2.93-9.88,1-21.91-6.73-22.1,0-.18,10.21-10.43,11.19-24.38,1.29-18.25-13.72-26.74-19.31-25.47-1.33-12.65-8.31-20.08-23-21.33-6.2-.52-24.9,4.63-23.59,18.58-4.08-.72-15.81-2.92-22,12.7-4.2,10.66.13,23.27,1.66,24.66-5.14,1.33-9.28,11.44-9.52,17.26C443.12,892.06,446.08,900.42,456.37,905.21Z"/><g style="mix-blend-mode:screen" opacity=".31"><path fill="#7db225" d="M493.88,813c14.69,1.24,21.68,8.67,23,21.32,5.58-1.27,20.59,7.22,19.31,25.47a35.31,35.31,0,0,1-2.75,11.14,38.58,38.58,0,0,0,5.89-17.24c1.29-18.25-13.72-26.74-19.31-25.47-1.33-12.65-8.31-20.08-23-21.33-5.53-.46-21,3.6-23.34,14.38C479.13,815,489.55,812.61,493.88,813Z"/><path fill="#7db225" d="M470.3,831.56a13.14,13.14,0,0,1,.95-6.45c-5.14-.64-14.5-.34-19.77,13-.05.12-.09.23-.13.35C457.76,829.25,466.82,830.94,470.3,831.56Z"/><path fill="#7db225" d="M529.54,878.22a57.11,57.11,0,0,1-4.53,5.93c7.76.19,9.66,12.22,6.73,22.1-.22.72-.45,1.45-.71,2.16a26.44,26.44,0,0,0,3.85-8.26C537.63,890.88,536.13,879.74,529.54,878.22Z"/></g><path d="M506,894.89c0-.16,9.05-9.25,9.92-21.63,1.14-16.19-12.17-23.72-17.13-22.6-1.18-11.22-7.38-17.81-20.41-18.92-5.5-.47-22.09,4.11-20.92,16.48a20,20,0,0,0-7.72-.14c.05,7.21,2.4,13.39,3.44,14.34-5.14,1.33-9.28,11.44-9.52,17.26-.5,12,2.46,20.35,12.75,25.14,7,3.28,20.61-9,25.11-8.16,2.36.45,15.32,15,30.53,17.54C514.48,905.49,512.76,895.06,506,894.89Z" style="mix-blend-mode:multiply" fill="#7db225" opacity=".19"/><path fill="#776500" d="M460.5,899.73a93.43,93.43,0,0,1-.07,10.85c-.18,3.6-.52,7.18-.94,10.75s-1,7.12-1.64,10.66a91.48,91.48,0,0,1-2.52,10.56,91.45,91.45,0,0,1,.06-10.86c.18-3.6.52-7.17.95-10.74s1-7.13,1.64-10.66A91.48,91.48,0,0,1,460.5,899.73Z"/><path fill="#776500" d="M363,884.39c2.32,4.12,4.55,8.29,6.79,12.45s4.39,8.38,6.54,12.6l3.23,6.33c1,2,2.12,4.05,3.24,6.07,2.23,4.06,4.7,8,7,12.2a.16.16,0,0,1-.06.22.15.15,0,0,1-.18,0,43.62,43.62,0,0,1-5.12-5,55.48,55.48,0,0,1-4.38-5.72,35.25,35.25,0,0,1-3.43-6.42c-.86-2.2-1.73-4.37-2.66-6.54-1.84-4.34-3.74-8.66-5.65-13l-5.64-13a.16.16,0,0,1,.08-.21A.16.16,0,0,1,363,884.39Z"/><path fill="#776500" d="M389.68,876.19a82.5,82.5,0,0,1-2.2,10c-.88,3.26-1.91,6.48-3,9.67s-2.33,6.33-3.69,9.43a79.93,79.93,0,0,1-4.52,9.14,80.6,80.6,0,0,1,2.19-10c.88-3.27,1.91-6.48,3-9.67s2.34-6.33,3.69-9.43A81.69,81.69,0,0,1,389.68,876.19Z"/><path fill="#776500" d="M421.58,864.27c-.73,3.63-1.27,7.44-1.86,11.17l-1.82,11.21c-.62,3.74-1,7.53-1.94,11.2a67.83,67.83,0,0,1-3.62,10.86.17.17,0,0,1-.22.08.15.15,0,0,1-.09-.14,64.73,64.73,0,0,1,.82-11.43,110.91,110.91,0,0,1,2.56-11.07l2.75-11,1.48-5.5c.52-1.84,1-3.64,1.66-5.49a.16.16,0,0,1,.2-.09.15.15,0,0,1,.09.18Z"/><path fill="#776500" d="M506.09,882.23c-2,4.7-4,9.34-6.08,14l-6.35,13.89c-2.16,4.61-4.11,9.33-6.69,13.74l-2,3.29c-.69,1.08-1.35,2.17-2.08,3.23a57.23,57.23,0,0,1-4.65,6.14.16.16,0,0,1-.23,0,.16.16,0,0,1,0-.18c1.89-4.79,4-9.39,6.15-14s4.83-8.93,7.23-13.41l14.41-26.89A.15.15,0,0,1,506,882,.16.16,0,0,1,506.09,882.23Z"/><path fill="#776500" d="M491.06,913.56a53.87,53.87,0,0,1-8.6-5.52,94.57,94.57,0,0,1-7.46-6.85l-7.35-7c-2.42-2.37-4.87-4.7-7.26-7.09a.17.17,0,0,1,0-.23.17.17,0,0,1,.21,0c2.72,2,5.39,4.08,8.08,6.12l8,6.25a92.91,92.91,0,0,1,7.88,6.37,54,54,0,0,1,6.73,7.69.16.16,0,0,1,0,.23A.15.15,0,0,1,491.06,913.56Z"/><path fill="#776500" d="M400.89,844.18a200.43,200.43,0,0,0,2.66,24.76c.73,4,1.77,8.07,2.79,12.1s2.1,8,3.2,12.06c2.2,8,4.58,16,6.43,24.12s3.7,16.24,5.07,24.5a.15.15,0,0,1-.13.18.16.16,0,0,1-.18-.1C417.78,934,415.31,926,413,918s-4.16-16.14-6-24.26l-2.76-12.2c-.87-4.08-1.8-8.16-2.37-12.34s-.83-8.34-1-12.51-.26-8.34-.2-12.51a.16.16,0,0,1,.16-.16A.15.15,0,0,1,400.89,844.18Z"/><path fill="#776500" d="M432.62,891.48c1.08,3.93,2.43,7.92,3.7,11.86l3.77,11.89c1.25,4,2.77,7.85,3.68,11.91a80.7,80.7,0,0,1,2,12.38.15.15,0,0,1-.15.17.16.16,0,0,1-.15-.08A78.55,78.55,0,0,1,440.71,928c-1.35-3.94-2.08-8-3.06-12.09l-2.87-12.15-1.32-6.1c-.43-2-.9-4-1.16-6.18a.15.15,0,0,1,.14-.17.14.14,0,0,1,.16.11Z"/></g></svg>